<svg width="26" height="25" viewBox="0 0 26 25" fill="none" xmlns="http://www.w3.org/2000/svg">
<path fill-rule="evenodd" clip-rule="evenodd" d="M23.8218 10.6924H24.6835C24.7983 10.6924 24.9084 10.7369 24.9897 10.8162C25.071 10.8955 25.1168 11.003 25.1171 11.1153V12.9327C25.1171 13.0452 25.0715 13.153 24.9901 13.2325C24.9088 13.3121 24.7985 13.3568 24.6835 13.3568H23.854L23.1487 20.0589C23.0774 20.7519 22.7632 21.3994 22.2593 21.8916C21.7554 22.3838 21.0929 22.6904 20.3841 22.7594L21.0996 23.6696C21.1489 23.7323 21.1792 23.8074 21.1872 23.8862C21.1952 23.965 21.1804 24.0443 21.1446 24.1154C21.1088 24.1864 21.0534 24.2462 20.9847 24.288C20.9159 24.3298 20.8366 24.352 20.7556 24.3519H19.2967C19.2302 24.3519 19.1646 24.337 19.105 24.3083C19.0453 24.2795 18.9932 24.2378 18.9527 24.1862L17.8438 22.7754H7.48407L6.37509 24.1862C6.33459 24.2378 6.28251 24.2795 6.22286 24.3083C6.16322 24.337 6.09762 24.3519 6.03113 24.3519H4.57298C4.49201 24.352 4.41266 24.3298 4.34391 24.288C4.27516 24.2462 4.21975 24.1864 4.18395 24.1154C4.14816 24.0443 4.1334 23.965 4.14137 23.8862C4.14933 23.8074 4.17969 23.7323 4.22901 23.6696L4.94445 22.7594C4.23571 22.6904 3.5732 22.3838 3.0693 21.8916C2.5654 21.3994 2.25114 20.7519 2.17982 20.0589L1.47454 13.3568H0.645347C0.530329 13.3568 0.420021 13.3121 0.338691 13.2325C0.257361 13.153 0.21167 13.0452 0.21167 12.9327V11.1153C0.21167 11.0028 0.257361 10.8949 0.338691 10.8154C0.420021 10.7359 0.530329 10.6912 0.645347 10.6912H1.43241V8.96585C1.43241 8.85338 1.4781 8.74552 1.55943 8.66599C1.64076 8.58646 1.75107 8.54179 1.86609 8.54179H2.53147V3.07109C2.53147 2.66779 2.61271 2.26844 2.77054 1.89583C2.92838 1.52323 3.15972 1.18468 3.45136 0.899501C3.743 0.614324 4.08923 0.388109 4.47027 0.233773C4.85132 0.0794361 5.25972 0 5.67216 0C6.08461 0 6.49301 0.0794361 6.87406 0.233773C7.2551 0.388109 7.60133 0.614324 7.89297 0.899501C8.18461 1.18468 8.41595 1.52323 8.57379 1.89583C8.73162 2.26844 8.81286 2.66779 8.81286 3.07109V3.55864C9.50972 3.66057 10.1461 4.00346 10.6065 4.52504C11.0669 5.04663 11.3207 5.71235 11.322 6.40134C11.322 6.51381 11.2763 6.62167 11.195 6.7012C11.1136 6.78073 11.0033 6.82541 10.8883 6.82541H5.87005C5.75503 6.82541 5.64472 6.78073 5.56339 6.7012C5.48206 6.62167 5.43637 6.51381 5.43637 6.40134C5.43763 5.71235 5.69149 5.04663 6.15188 4.52504C6.61226 4.00346 7.24864 3.66057 7.9455 3.55864V3.07109C7.9455 2.48152 7.70599 1.91611 7.27966 1.49922C6.85332 1.08234 6.27509 0.848132 5.67216 0.848132C5.06924 0.848132 4.49101 1.08234 4.06467 1.49922C3.63834 1.91611 3.39883 2.48152 3.39883 3.07109V8.54179H4.0652C4.12216 8.54191 4.17852 8.55301 4.23109 8.57444C4.28366 8.59586 4.33139 8.62721 4.37157 8.66668C4.41175 8.70614 4.44358 8.75296 4.46526 8.80446C4.48693 8.85596 4.49802 8.91113 4.49789 8.96682V10.6922H13.9446C14.0057 10.2521 14.2118 9.84358 14.5317 9.52836C14.8515 9.21314 15.2677 9.00844 15.7173 8.94525C15.8621 8.5509 16.1126 8.20179 16.4425 7.93441C16.7724 7.66702 17.1697 7.49115 17.5929 7.42517C18.0161 7.35919 18.4496 7.40551 18.8482 7.5593C19.2468 7.71309 19.5959 7.96871 19.859 8.29946C20.2529 8.05967 20.7052 7.92729 21.169 7.91606C21.6328 7.90482 22.0913 8.01514 22.4968 8.23558C22.9023 8.45601 23.2402 8.77852 23.4752 9.16967C23.7103 9.56081 23.8341 10.0063 23.8337 10.46C23.8337 10.5378 23.829 10.6153 23.8218 10.6924ZM7.07399 4.82364C6.70455 5.11577 6.44875 5.52297 6.34932 5.97727H10.4093C10.3099 5.52297 10.0541 5.11577 9.68461 4.82364C9.31517 4.53152 8.85442 4.37215 8.3793 4.37215C7.90418 4.37215 7.44344 4.53152 7.07399 4.82364ZM16.0342 9.77545L16.001 9.77352C15.7281 9.77537 15.4639 9.86705 15.2508 10.0338C15.0377 10.2005 14.8883 10.4325 14.8266 10.6924H22.9475C22.9591 10.6154 22.9653 10.5378 22.9661 10.46C22.9665 10.1286 22.8676 9.80443 22.6815 9.52751C22.4953 9.25058 22.2303 9.03311 21.919 8.90201C21.6078 8.77092 21.2641 8.73196 20.9304 8.78995C20.5968 8.84794 20.2878 9.00034 20.0419 9.22829C19.9921 9.27424 19.9319 9.30802 19.8662 9.32687C19.8005 9.34572 19.7312 9.3491 19.6639 9.33674C19.5966 9.32438 19.5333 9.29663 19.4791 9.25575C19.4249 9.21488 19.3813 9.16204 19.352 9.10155C19.2155 8.81791 18.9911 8.58346 18.7108 8.43144C18.4304 8.27942 18.1082 8.21753 17.7899 8.25456C17.4716 8.29158 17.1732 8.42564 16.9371 8.63772C16.701 8.8498 16.5392 9.12916 16.4746 9.4362C16.454 9.53452 16.3985 9.62254 16.3179 9.68464C16.2373 9.74675 16.1368 9.77892 16.0342 9.77545ZM3.63054 9.38992H2.29977V10.6912H3.63054V9.38992ZM5.45297 23.5041H5.81875L6.38947 22.7756H6.02543L5.45297 23.5041ZM18.9401 22.7756L19.5125 23.5041H19.8766L19.3041 22.7756H18.9401ZM21.5659 21.3679C21.9755 21.0066 22.2329 20.5091 22.2881 19.9724L22.9822 13.357H2.34685L3.04296 19.9724C3.09816 20.5091 3.35557 21.0066 3.76512 21.3679C4.17466 21.7293 4.70705 21.9288 5.25868 21.9275H20.0724C20.624 21.9288 21.1564 21.7293 21.5659 21.3679ZM1.07902 12.5089H24.252L24.2498 11.5396H1.07902V12.5089ZM7.94522 8.74366V7.65321C7.94522 7.54074 7.99091 7.43287 8.07224 7.35334C8.15357 7.27382 8.26388 7.22914 8.3789 7.22914C8.49392 7.22914 8.60423 7.27382 8.68556 7.35334C8.76689 7.43287 8.81258 7.54074 8.81258 7.65321V8.74366C8.81258 8.85613 8.76689 8.96399 8.68556 9.04352C8.60423 9.12305 8.49392 9.16773 8.3789 9.16773C8.26388 9.16773 8.15357 9.12305 8.07224 9.04352C7.99091 8.96399 7.94522 8.85613 7.94522 8.74366ZM6.30315 7.48112L5.80752 8.57158C5.76079 8.67441 5.75774 8.79118 5.79906 8.8962C5.84038 9.00122 5.92266 9.08589 6.02782 9.13159C6.13298 9.17728 6.2524 9.18026 6.3598 9.13986C6.46721 9.09946 6.5538 9.01899 6.60053 8.91616L7.09616 7.82571C7.14289 7.72288 7.14593 7.60611 7.10462 7.50109C7.0633 7.39606 6.98101 7.31139 6.87585 7.2657C6.77069 7.22 6.65128 7.21703 6.54387 7.25743C6.43647 7.29783 6.34988 7.37829 6.30315 7.48112ZM9.65478 7.50124C9.69609 7.39622 9.77838 7.31154 9.88353 7.26584C9.93559 7.24316 9.99172 7.23073 10.0487 7.22928C10.1057 7.22783 10.1624 7.23739 10.2156 7.2574C10.2688 7.27741 10.3174 7.30748 10.3587 7.3459C10.4 7.38431 10.4331 7.43031 10.4562 7.48127L10.9519 8.57172C10.975 8.62264 10.9877 8.67751 10.9891 8.73321C10.9906 8.78891 10.9808 8.84434 10.9603 8.89634C10.9399 8.94834 10.9091 8.9959 10.8699 9.03628C10.8306 9.07667 10.7836 9.10911 10.7316 9.13173C10.6795 9.15436 10.6234 9.16673 10.5664 9.16815C10.5094 9.16957 10.4528 9.16 10.3996 9.14C10.3464 9.12 10.2978 9.08995 10.2565 9.05156C10.2152 9.01318 10.182 8.96722 10.1589 8.91631L9.66322 7.82585C9.6165 7.72302 9.61346 7.60626 9.65478 7.50124Z" fill="#6A676D"/>
</svg>
