<svg width="30" height="23" viewBox="0 0 30 23" fill="none" xmlns="http://www.w3.org/2000/svg">
<path d="M29.5177 17.1357H29.0392V12.9816C29.0385 12.431 28.8366 11.9031 28.4778 11.5137C28.1189 11.1243 27.6325 10.9053 27.125 10.9046V2.07706C27.1243 1.52641 26.9224 0.998521 26.5636 0.609153C26.2048 0.219785 25.7183 0.000721307 25.2108 0H5.11213C4.60466 0.000721307 4.11818 0.219785 3.75934 0.609153C3.40051 0.998521 3.19863 1.52641 3.19796 2.07706V10.9046C2.6905 10.9053 2.20401 11.1243 1.84518 11.5137C1.48635 11.9031 1.28447 12.431 1.2838 12.9816V17.1357H0.805262C0.678345 17.1357 0.556626 17.1904 0.466882 17.2878C0.377139 17.3852 0.326721 17.5173 0.326721 17.655V19.7321C0.326721 19.8698 0.377139 20.0019 0.466882 20.0992C0.556626 20.1966 0.678345 20.2513 0.805262 20.2513H1.2838V22.3284C1.2838 22.4661 1.33422 22.5982 1.42396 22.6956C1.51371 22.7929 1.63543 22.8476 1.76234 22.8476H3.19796C3.30857 22.8477 3.41576 22.8061 3.50128 22.73C3.5868 22.6539 3.64534 22.548 3.66693 22.4303L4.06891 20.2513H26.2541L26.656 22.4303C26.6776 22.548 26.7362 22.6539 26.8217 22.73C26.9072 22.8061 27.0144 22.8477 27.125 22.8476H28.5606C28.6875 22.8476 28.8093 22.7929 28.899 22.6956C28.9887 22.5982 29.0392 22.4661 29.0392 22.3284V20.2513H29.5177C29.6446 20.2513 29.7663 20.1966 29.8561 20.0992C29.9458 20.0019 29.9962 19.8698 29.9962 19.7321V17.655C29.9962 17.5173 29.9458 17.3852 29.8561 17.2878C29.7663 17.1904 29.6446 17.1357 29.5177 17.1357ZM4.15505 2.07706C4.15538 1.80173 4.25632 1.53779 4.43574 1.34311C4.61515 1.14842 4.8584 1.03889 5.11213 1.03853H25.2108C25.4646 1.03889 25.7078 1.14842 25.8872 1.34311C26.0666 1.53779 26.1676 1.80173 26.1679 2.07706V10.9046H25.2108V8.8275C25.2102 8.27685 25.0083 7.74896 24.6495 7.35959C24.2906 6.97023 23.8041 6.75116 23.2967 6.75044H17.5542C17.0467 6.75116 16.5602 6.97023 16.2014 7.35959C15.8426 7.74896 15.6407 8.27685 15.64 8.8275V10.9046H14.6829V8.8275C14.6823 8.27685 14.4804 7.74896 14.1216 7.35959C13.7627 6.97023 13.2762 6.75116 12.7688 6.75044H7.02629C6.51883 6.75116 6.03234 6.97023 5.67351 7.35959C5.31468 7.74896 5.11279 8.27685 5.11213 8.8275V10.9046H4.15505V2.07706ZM24.2538 8.8275V10.9046H16.5971V8.8275C16.5974 8.55217 16.6984 8.28823 16.8778 8.09355C17.0572 7.89886 17.3005 7.78933 17.5542 7.78897H23.2967C23.5504 7.78933 23.7936 7.89886 23.9731 8.09355C24.1525 8.28823 24.2534 8.55217 24.2538 8.8275ZM13.7259 8.8275V10.9046H6.06921V8.8275C6.06954 8.55217 6.17048 8.28823 6.3499 8.09355C6.52931 7.89886 6.77256 7.78933 7.02629 7.78897H12.7688C13.0225 7.78933 13.2658 7.89886 13.4452 8.09355C13.6246 8.28823 13.7255 8.55217 13.7259 8.8275ZM2.24088 12.9816C2.24122 12.7063 2.34216 12.4423 2.52157 12.2477C2.70099 12.053 2.94423 11.9434 3.19796 11.9431H27.125C27.3787 11.9434 27.622 12.053 27.8014 12.2477C27.9808 12.4423 28.0817 12.7063 28.0821 12.9816V17.1357H2.24088V12.9816ZM2.80556 21.8091H2.24088V20.2513H3.09269L2.80556 21.8091ZM28.0821 21.8091H27.5174L27.2303 20.2513H28.0821V21.8091ZM29.0392 19.2128H1.2838V18.1743H29.0392V19.2128Z" fill="#6A676D"/>
</svg>
