<svg width="47" height="47" viewBox="0 0 47 47" fill="none" xmlns="http://www.w3.org/2000/svg">
<path d="M23.5001 43.0834C31.0573 43.0834 37.2084 36.9323 37.2084 29.3751C37.2084 21.8179 31.0573 15.6667 23.5001 15.6667C15.9409 15.6667 9.79175 21.8179 9.79175 29.3751C9.79175 36.9323 15.9409 43.0834 23.5001 43.0834ZM23.5001 19.5834C28.8992 19.5834 33.2917 23.976 33.2917 29.3751C33.2917 34.7742 28.8992 39.1667 23.5001 39.1667C18.101 39.1667 13.7084 34.7742 13.7084 29.3751C13.7084 23.976 18.101 19.5834 23.5001 19.5834ZM21.5417 3.91675H13.7084V14.7228C16.0519 13.1546 18.7389 12.1746 21.5417 11.8656V3.91675ZM33.2917 3.91675H25.4584V11.8656C28.2612 12.1746 30.9482 13.1546 33.2917 14.7228V3.91675Z" fill="#A5A8AB"/>
<path d="M19.6206 30.9633L18.7041 36.3017L23.5 33.7813L28.296 36.3017L27.3795 30.9633L31.2609 27.1798L25.899 26.4004L23.5 21.5417L21.1011 26.4004L15.7391 27.1798L19.6206 30.9633Z" fill="#A5A8AB"/>
</svg>
