<svg width="43" height="43" viewBox="0 0 43 43" fill="none" xmlns="http://www.w3.org/2000/svg">
<path d="M37.6161 12.3679C37.5872 12.0663 37.4821 11.777 37.3107 11.5272C37.1392 11.2774 36.9071 11.0753 36.636 10.9399L22.3511 3.77326C22.1025 3.64774 21.8281 3.58205 21.5497 3.58143C21.2713 3.5808 20.9966 3.64527 20.7475 3.76968L6.36581 10.9363C5.83369 11.2051 5.46639 11.7193 5.39114 12.3106C5.36785 12.4843 3.33969 29.7632 20.6938 39.1999C20.9605 39.3454 21.2601 39.4203 21.5639 39.4175C21.8678 39.4146 22.1659 39.3342 22.4299 39.1838C39.1049 29.7614 37.6841 13.0738 37.6161 12.3679ZM21.5323 35.5592C9.24143 28.3746 8.73977 17.0119 8.87773 13.6919L21.5466 7.37989L34.0847 13.6704C34.0936 17.0208 33.2229 28.4391 21.5323 35.5592Z" fill="#A5A8AB"/>
</svg>
