<svg width="43" height="43" viewBox="0 0 43 43" fill="none" xmlns="http://www.w3.org/2000/svg">
<path d="M11.6745 25.6619L9.00488 37.2217C8.92222 37.5718 8.94703 37.9386 9.07609 38.2743C9.20515 38.61 9.43245 38.899 9.7283 39.1035C10.0242 39.3081 10.3748 39.4186 10.7345 39.4208C11.0941 39.4229 11.4461 39.3165 11.7443 39.1155L21.5 32.6118L31.2556 39.1155C31.5608 39.3182 31.9207 39.4225 32.2869 39.4144C32.6532 39.4064 33.0082 39.2864 33.3042 39.0706C33.6002 38.8548 33.823 38.5535 33.9427 38.2073C34.0623 37.861 34.0731 37.4865 33.9736 37.1339L30.6966 25.6673L38.8236 18.3537C39.0839 18.1193 39.2698 17.8138 39.3583 17.4749C39.4468 17.136 39.434 16.7786 39.3215 16.4469C39.209 16.1152 39.0018 15.8237 38.7254 15.6085C38.449 15.3934 38.1157 15.2639 37.7665 15.2362L27.5522 14.4228L23.1322 4.63849C22.9912 4.32343 22.7621 4.0559 22.4725 3.86818C22.1829 3.68046 21.8451 3.58057 21.5 3.58057C21.1548 3.58057 20.8171 3.68046 20.5274 3.86818C20.2378 4.0559 20.0087 4.32343 19.8678 4.63849L15.4477 14.4228L5.23342 15.2344C4.89024 15.2616 4.56215 15.3871 4.28842 15.5958C4.01468 15.8046 3.80689 16.0878 3.68989 16.4116C3.5729 16.7354 3.55165 17.086 3.62871 17.4215C3.70576 17.757 3.87785 18.0632 4.12438 18.3035L11.6745 25.6619ZM16.7861 17.9112C17.1059 17.886 17.413 17.7752 17.6753 17.5905C17.9376 17.4057 18.1453 17.1539 18.2768 16.8612L21.5 9.72861L24.7232 16.8612C24.8546 17.1539 25.0624 17.4057 25.3246 17.5905C25.5869 17.7752 25.894 17.886 26.2138 17.9112L33.3303 18.4755L27.4698 23.7502C26.961 24.2089 26.7585 24.9148 26.9448 25.5741L29.1898 33.4306L22.4961 28.9675C22.2023 28.7703 21.8565 28.665 21.5027 28.665C21.1488 28.665 20.803 28.7703 20.5092 28.9675L13.5145 33.6312L15.3958 25.4863C15.4647 25.1868 15.4555 24.8745 15.3689 24.5795C15.2823 24.2846 15.1212 24.0169 14.9013 23.8022L9.45817 18.4952L16.7861 17.9112Z" fill="#A5A8AB"/>
</svg>
