<svg width="30" height="31" viewBox="0 0 30 31" fill="none" xmlns="http://www.w3.org/2000/svg">
<path d="M21.2173 16.9223H10.9207L14.977 20.9786L14.148 21.9146L8.53165 16.2982L14.148 10.6819L14.977 11.618L10.9207 15.6742H21.2173V16.9223ZM2.49622 16.2982C2.49622 9.74995 7.80464 4.44153 14.3529 4.44153C20.9012 4.44153 26.2096 9.74997 26.2096 16.2982C26.2096 22.8465 20.9012 28.155 14.3529 28.155C7.80464 28.155 2.49622 22.8465 2.49622 16.2982ZM3.74429 16.2982C3.74429 22.1572 8.49394 26.9069 14.3529 26.9069C20.2119 26.9069 24.9616 22.1572 24.9616 16.2982C24.9616 10.4393 20.2119 5.6896 14.3529 5.6896C8.49394 5.6896 3.74429 10.4393 3.74429 16.2982Z" fill="#6A676D"/>
</svg>
