<svg width="117" height="52" viewBox="0 0 117 52" fill="none" xmlns="http://www.w3.org/2000/svg">
<path d="M76.6158 27.7691L83.6462 16.0902L79.8497 9.92767L69.0838 27.7691H76.6158Z" fill="url(#paint0_linear_596_17499)"/>
<path d="M40.0291 27.7691L52.6955 6.88818L48.8989 0.725616L32.4926 27.7691H40.0291Z" fill="url(#paint1_linear_596_17499)"/>
<path d="M53.0389 27.769L65.007 8.04294L61.2104 1.88037L45.5023 27.769H53.0389Z" fill="url(#paint2_linear_596_17499)"/>
<path d="M76.209 27.769L68.1075 13.8552L64.311 20.0178L69.0318 27.769H76.209Z" fill="black"/>
<path d="M76.209 27.769L68.1075 13.8552L64.311 20.0178L69.0318 27.769H76.209Z" fill="#FF0000"/>
<path d="M1.77461 42.9179L1.13508 44.4207H0.0413208C0.931696 42.3311 1.82132 40.2408 2.71018 38.1497H3.80394L6.47281 44.4207H5.37905L4.73952 42.9179H1.77461ZM2.2085 41.8988H4.30563L3.25481 39.431C2.90679 40.2491 2.55802 41.0717 2.2085 41.8988Z" fill="black"/>
<path d="M1.77461 42.9179L1.13508 44.4207H0.0413208C0.931696 42.3311 1.82132 40.2408 2.71018 38.1497H3.80394L6.47281 44.4207H5.37905L4.73952 42.9179H1.77461ZM2.2085 41.8988H4.30563L3.25481 39.431C2.90679 40.2491 2.55802 41.0717 2.2085 41.8988Z" fill="#0D735A"/>
<path d="M6.47278 44.4659H5.37902C5.37035 44.4658 5.36191 44.4631 5.3547 44.4583C5.34749 44.4535 5.34181 44.4467 5.33834 44.4388L4.71011 42.9631H1.80396L1.17573 44.4388C1.17226 44.4467 1.16658 44.4535 1.15937 44.4583C1.15216 44.4631 1.14372 44.4658 1.13505 44.4659H0.0412926C0.0340383 44.4658 0.0269157 44.4639 0.0205929 44.4604C0.01427 44.4568 0.00895233 44.4517 0.00513442 44.4456C0.00175958 44.4389 0 44.4315 0 44.4241C0 44.4166 0.00175958 44.4093 0.00513442 44.4026L0.958785 42.1654L2.674 38.1338C2.67692 38.1255 2.68247 38.1184 2.68981 38.1135C2.69714 38.1086 2.70587 38.1062 2.71468 38.1067H3.80844C3.81724 38.1062 3.82596 38.1086 3.8333 38.1135C3.84064 38.1184 3.84619 38.1255 3.84911 38.1338L6.51798 44.4026C6.52135 44.4093 6.52311 44.4166 6.52311 44.4241C6.52311 44.4315 6.52135 44.4389 6.51798 44.4456C6.51347 44.4532 6.5067 44.4593 6.49861 44.4629C6.49052 44.4666 6.48149 44.4676 6.47278 44.4659V44.4659ZM5.4084 44.3755H6.40499L3.77454 38.1949H2.73954L1.03788 42.1993L0.118126 44.3755H1.11471L1.74069 42.8998C1.74474 42.8919 1.75088 42.8851 1.75843 42.8804C1.76599 42.8756 1.77469 42.873 1.78362 42.8727H4.74853C4.75746 42.873 4.76616 42.8756 4.77372 42.8804C4.78127 42.8851 4.7874 42.8919 4.79146 42.8998L5.4084 44.3755ZM4.3056 41.9439H2.20847C2.20095 41.9437 2.19358 41.9417 2.18692 41.9382C2.18027 41.9347 2.1745 41.9297 2.17006 41.9236C2.16629 41.9171 2.1643 41.9097 2.1643 41.9021C2.1643 41.8946 2.16629 41.8872 2.17006 41.8806L3.01749 39.8852L3.21636 39.4129C3.22042 39.4054 3.22645 39.399 3.23381 39.3946C3.24117 39.3902 3.24959 39.3879 3.25817 39.3879C3.26674 39.3879 3.27516 39.3902 3.28252 39.3946C3.28988 39.399 3.29591 39.4054 3.29997 39.4129L4.35079 41.8806C4.35417 41.8873 4.35593 41.8947 4.35593 41.9021C4.35593 41.9096 4.35417 41.9169 4.35079 41.9236C4.3457 41.9306 4.33884 41.9362 4.33091 41.9398C4.32298 41.9434 4.31425 41.9448 4.3056 41.9439ZM2.27175 41.8535H4.23329L3.25026 39.544L3.09207 39.9191L2.27175 41.8535Z" fill="black"/>
<path d="M6.47278 44.4659H5.37902C5.37035 44.4658 5.36191 44.4631 5.3547 44.4583C5.34749 44.4535 5.34181 44.4467 5.33834 44.4388L4.71011 42.9631H1.80396L1.17573 44.4388C1.17226 44.4467 1.16658 44.4535 1.15937 44.4583C1.15216 44.4631 1.14372 44.4658 1.13505 44.4659H0.0412926C0.0340383 44.4658 0.0269157 44.4639 0.0205929 44.4604C0.01427 44.4568 0.00895233 44.4517 0.00513442 44.4456C0.00175958 44.4389 0 44.4315 0 44.4241C0 44.4166 0.00175958 44.4093 0.00513442 44.4026L0.958785 42.1654L2.674 38.1338C2.67692 38.1255 2.68247 38.1184 2.68981 38.1135C2.69714 38.1086 2.70587 38.1062 2.71468 38.1067H3.80844C3.81724 38.1062 3.82596 38.1086 3.8333 38.1135C3.84064 38.1184 3.84619 38.1255 3.84911 38.1338L6.51798 44.4026C6.52135 44.4093 6.52311 44.4166 6.52311 44.4241C6.52311 44.4315 6.52135 44.4389 6.51798 44.4456C6.51347 44.4532 6.5067 44.4593 6.49861 44.4629C6.49052 44.4666 6.48149 44.4676 6.47278 44.4659V44.4659ZM5.4084 44.3755H6.40499L3.77454 38.1949H2.73954L1.03788 42.1993L0.118126 44.3755H1.11471L1.74069 42.8998C1.74474 42.8919 1.75088 42.8851 1.75843 42.8804C1.76599 42.8756 1.77469 42.873 1.78362 42.8727H4.74853C4.75746 42.873 4.76616 42.8756 4.77372 42.8804C4.78127 42.8851 4.7874 42.8919 4.79146 42.8998L5.4084 44.3755ZM4.3056 41.9439H2.20847C2.20095 41.9437 2.19358 41.9417 2.18692 41.9382C2.18027 41.9347 2.1745 41.9297 2.17006 41.9236C2.16629 41.9171 2.1643 41.9097 2.1643 41.9021C2.1643 41.8946 2.16629 41.8872 2.17006 41.8806L3.01749 39.8852L3.21636 39.4129C3.22042 39.4054 3.22645 39.399 3.23381 39.3946C3.24117 39.3902 3.24959 39.3879 3.25817 39.3879C3.26674 39.3879 3.27516 39.3902 3.28252 39.3946C3.28988 39.399 3.29591 39.4054 3.29997 39.4129L4.35079 41.8806C4.35417 41.8873 4.35593 41.8947 4.35593 41.9021C4.35593 41.9096 4.35417 41.9169 4.35079 41.9236C4.3457 41.9306 4.33884 41.9362 4.33091 41.9398C4.32298 41.9434 4.31425 41.9448 4.3056 41.9439ZM2.27175 41.8535H4.23329L3.25026 39.544L3.09207 39.9191L2.27175 41.8535Z" fill="#0D735A"/>
<path d="M7.63666 38.1497H9.23662L11.8174 43.397V38.1497H12.8094V44.4207H11.214L8.63098 39.1711V44.4185H7.63666V38.1497Z" fill="black"/>
<path d="M7.63666 38.1497H9.23662L11.8174 43.397V38.1497H12.8094V44.4207H11.214L8.63098 39.1711V44.4185H7.63666V38.1497Z" fill="#0D735A"/>
<path d="M12.8094 44.4659H11.2139C11.2055 44.4662 11.1971 44.4641 11.1898 44.4596C11.1826 44.4552 11.1768 44.4487 11.1733 44.441L8.68745 39.3632V44.4207C8.68745 44.4327 8.68268 44.4442 8.67421 44.4527C8.66573 44.4611 8.65424 44.4659 8.64225 44.4659H7.64792C7.64209 44.4659 7.63631 44.4647 7.63095 44.4624C7.62559 44.4601 7.62075 44.4568 7.61673 44.4525C7.61272 44.4483 7.6096 44.4433 7.60758 44.4378C7.60556 44.4324 7.60468 44.4265 7.60499 44.4207V38.1497C7.60466 38.1439 7.60554 38.1382 7.60759 38.1328C7.60963 38.1275 7.61278 38.1226 7.61683 38.1186C7.62089 38.1145 7.62575 38.1114 7.63111 38.1093C7.63647 38.1073 7.6422 38.1064 7.64792 38.1067H9.24788C9.25625 38.1069 9.26443 38.1093 9.27157 38.1137C9.27872 38.118 9.28458 38.1242 9.28856 38.1316L11.7744 43.2049V38.1497C11.7744 38.1438 11.7756 38.1381 11.7778 38.1327C11.7801 38.1273 11.7835 38.1225 11.7877 38.1185C11.792 38.1145 11.797 38.1113 11.8024 38.1093C11.8079 38.1073 11.8137 38.1064 11.8196 38.1067H12.8116C12.8175 38.1064 12.8233 38.1073 12.8288 38.1093C12.8342 38.1113 12.8392 38.1145 12.8435 38.1185C12.8477 38.1225 12.8511 38.1273 12.8534 38.1327C12.8557 38.1381 12.8568 38.1438 12.8568 38.1497V44.4207C12.8568 44.4268 12.8556 44.4329 12.8532 44.4385C12.8508 44.4442 12.8473 44.4493 12.8428 44.4535C12.8384 44.4577 12.8331 44.461 12.8274 44.4631C12.8216 44.4653 12.8155 44.4662 12.8094 44.4659V44.4659ZM11.2411 44.3755H12.7732V38.1949H11.8693V43.3925C11.869 43.4027 11.8652 43.4124 11.8587 43.4202C11.8521 43.428 11.8431 43.4334 11.8331 43.4354C11.8235 43.4385 11.8131 43.4379 11.8039 43.4337C11.7947 43.4295 11.7874 43.4221 11.7834 43.4128L9.20721 38.1949H7.68182V44.3755H8.58575V39.1779C8.58554 39.1673 8.58904 39.157 8.59565 39.1487C8.60225 39.1405 8.61155 39.1348 8.62191 39.1327C8.63153 39.1305 8.64159 39.1316 8.65057 39.1356C8.65954 39.1397 8.66694 39.1466 8.67163 39.1553L11.2411 44.3755Z" fill="black"/>
<path d="M12.8094 44.4659H11.2139C11.2055 44.4662 11.1971 44.4641 11.1898 44.4596C11.1826 44.4552 11.1768 44.4487 11.1733 44.441L8.68745 39.3632V44.4207C8.68745 44.4327 8.68268 44.4442 8.67421 44.4527C8.66573 44.4611 8.65424 44.4659 8.64225 44.4659H7.64792C7.64209 44.4659 7.63631 44.4647 7.63095 44.4624C7.62559 44.4601 7.62075 44.4568 7.61673 44.4525C7.61272 44.4483 7.6096 44.4433 7.60758 44.4378C7.60556 44.4324 7.60468 44.4265 7.60499 44.4207V38.1497C7.60466 38.1439 7.60554 38.1382 7.60759 38.1328C7.60963 38.1275 7.61278 38.1226 7.61683 38.1186C7.62089 38.1145 7.62575 38.1114 7.63111 38.1093C7.63647 38.1073 7.6422 38.1064 7.64792 38.1067H9.24788C9.25625 38.1069 9.26443 38.1093 9.27157 38.1137C9.27872 38.118 9.28458 38.1242 9.28856 38.1316L11.7744 43.2049V38.1497C11.7744 38.1438 11.7756 38.1381 11.7778 38.1327C11.7801 38.1273 11.7835 38.1225 11.7877 38.1185C11.792 38.1145 11.797 38.1113 11.8024 38.1093C11.8079 38.1073 11.8137 38.1064 11.8196 38.1067H12.8116C12.8175 38.1064 12.8233 38.1073 12.8288 38.1093C12.8342 38.1113 12.8392 38.1145 12.8435 38.1185C12.8477 38.1225 12.8511 38.1273 12.8534 38.1327C12.8557 38.1381 12.8568 38.1438 12.8568 38.1497V44.4207C12.8568 44.4268 12.8556 44.4329 12.8532 44.4385C12.8508 44.4442 12.8473 44.4493 12.8428 44.4535C12.8384 44.4577 12.8331 44.461 12.8274 44.4631C12.8216 44.4653 12.8155 44.4662 12.8094 44.4659V44.4659ZM11.2411 44.3755H12.7732V38.1949H11.8693V43.3925C11.869 43.4027 11.8652 43.4124 11.8587 43.4202C11.8521 43.428 11.8431 43.4334 11.8331 43.4354C11.8235 43.4385 11.8131 43.4379 11.8039 43.4337C11.7947 43.4295 11.7874 43.4221 11.7834 43.4128L9.20721 38.1949H7.68182V44.3755H8.58575V39.1779C8.58554 39.1673 8.58904 39.157 8.59565 39.1487C8.60225 39.1405 8.61155 39.1348 8.62191 39.1327C8.63153 39.1305 8.64159 39.1316 8.65057 39.1356C8.65954 39.1397 8.66694 39.1466 8.67163 39.1553L11.2411 44.3755Z" fill="#0D735A"/>
<path d="M13.9709 44.4207V38.1497H14.963V44.4207H13.9709Z" fill="black"/>
<path d="M13.9709 44.4207V38.1497H14.963V44.4207H13.9709Z" fill="#0D735A"/>
<path d="M14.963 44.4659H13.9709C13.9589 44.4659 13.9474 44.4611 13.939 44.4527C13.9305 44.4442 13.9257 44.4327 13.9257 44.4207V38.1497C13.9257 38.1438 13.9269 38.138 13.9292 38.1327C13.9315 38.1273 13.9349 38.1225 13.9391 38.1185C13.9433 38.1144 13.9483 38.1113 13.9538 38.1093C13.9593 38.1073 13.9651 38.1064 13.9709 38.1067H14.963C14.9688 38.1064 14.9746 38.1073 14.9801 38.1093C14.9856 38.1113 14.9906 38.1144 14.9948 38.1185C14.999 38.1225 15.0024 38.1273 15.0047 38.1327C15.007 38.138 15.0082 38.1438 15.0082 38.1497V44.4207C15.0082 44.4327 15.0034 44.4442 14.9949 44.4527C14.9865 44.4611 14.975 44.4659 14.963 44.4659ZM14.0161 44.3755H14.92V38.1949H14.0161V44.3755Z" fill="black"/>
<path d="M14.963 44.4659H13.9709C13.9589 44.4659 13.9474 44.4611 13.939 44.4527C13.9305 44.4442 13.9257 44.4327 13.9257 44.4207V38.1497C13.9257 38.1438 13.9269 38.138 13.9292 38.1327C13.9315 38.1273 13.9349 38.1225 13.9391 38.1185C13.9433 38.1144 13.9483 38.1113 13.9538 38.1093C13.9593 38.1073 13.9651 38.1064 13.9709 38.1067H14.963C14.9688 38.1064 14.9746 38.1073 14.9801 38.1093C14.9856 38.1113 14.9906 38.1144 14.9948 38.1185C14.999 38.1225 15.0024 38.1273 15.0047 38.1327C15.007 38.138 15.0082 38.1438 15.0082 38.1497V44.4207C15.0082 44.4327 15.0034 44.4442 14.9949 44.4527C14.9865 44.4611 14.975 44.4659 14.963 44.4659ZM14.0161 44.3755H14.92V38.1949H14.0161V44.3755Z" fill="#0D735A"/>
<path d="M16.1291 38.1497H19.2748C19.6402 38.1457 19.9982 38.2527 20.3016 38.4563C20.6051 38.6599 20.8397 38.9507 20.9745 39.2904C21.1093 39.63 21.1381 40.0026 21.0569 40.3589C20.9758 40.7152 20.7886 41.0386 20.5199 41.2863C20.7005 41.4555 20.8444 41.6599 20.9427 41.8869C21.041 42.1139 21.0918 42.3587 21.0917 42.6061C21.0881 43.0844 20.8965 43.5422 20.5583 43.8805C20.22 44.2188 19.7622 44.4104 19.2838 44.4139H16.1291V38.1497ZM17.1234 40.7892H19.2861C19.5042 40.7892 19.7135 40.7025 19.8677 40.5482C20.022 40.394 20.1087 40.1847 20.1087 39.9666C20.1087 39.7484 20.022 39.5392 19.8677 39.3849C19.7135 39.2307 19.5042 39.144 19.2861 39.144H17.1234V40.7892ZM19.2861 43.4264C19.4965 43.4153 19.6946 43.324 19.8397 43.1711C19.9847 43.0183 20.0656 42.8156 20.0656 42.6049C20.0656 42.3942 19.9847 42.1916 19.8397 42.0387C19.6946 41.8859 19.4965 41.7945 19.2861 41.7835H17.1234V43.4264H19.2861Z" fill="black"/>
<path d="M16.1291 38.1497H19.2748C19.6402 38.1457 19.9982 38.2527 20.3016 38.4563C20.6051 38.6599 20.8397 38.9507 20.9745 39.2904C21.1093 39.63 21.1381 40.0026 21.0569 40.3589C20.9758 40.7152 20.7886 41.0386 20.5199 41.2863C20.7005 41.4555 20.8444 41.6599 20.9427 41.8869C21.041 42.1139 21.0918 42.3587 21.0917 42.6061C21.0881 43.0844 20.8965 43.5422 20.5583 43.8805C20.22 44.2188 19.7622 44.4104 19.2838 44.4139H16.1291V38.1497ZM17.1234 40.7892H19.2861C19.5042 40.7892 19.7135 40.7025 19.8677 40.5482C20.022 40.394 20.1087 40.1847 20.1087 39.9666C20.1087 39.7484 20.022 39.5392 19.8677 39.3849C19.7135 39.2307 19.5042 39.144 19.2861 39.144H17.1234V40.7892ZM19.2861 43.4264C19.4965 43.4153 19.6946 43.324 19.8397 43.1711C19.9847 43.0183 20.0656 42.8156 20.0656 42.6049C20.0656 42.3942 19.9847 42.1916 19.8397 42.0387C19.6946 41.8859 19.4965 41.7945 19.2861 41.7835H17.1234V43.4264H19.2861Z" fill="#0D735A"/>
<path d="M23.5932 42.9179L22.9537 44.4207H21.8622C22.7495 42.3311 23.6392 40.2408 24.531 38.1497H25.6225L28.2914 44.4207H27.1976L26.5581 42.9179H23.5932ZM24.0271 41.8988H26.1242L25.0757 39.431L24.0271 41.8988Z" fill="black"/>
<path d="M23.5932 42.9179L22.9537 44.4207H21.8622C22.7495 42.3311 23.6392 40.2408 24.531 38.1497H25.6225L28.2914 44.4207H27.1976L26.5581 42.9179H23.5932ZM24.0271 41.8988H26.1242L25.0757 39.431L24.0271 41.8988Z" fill="#0D735A"/>
<path d="M28.2915 44.4659H27.1977C27.1891 44.4655 27.1808 44.4628 27.1736 44.458C27.1665 44.4532 27.1607 44.4466 27.1571 44.4388L26.5288 42.9631H23.6204L22.9922 44.4388C22.9887 44.4467 22.983 44.4535 22.9758 44.4583C22.9686 44.4631 22.9602 44.4658 22.9515 44.4659H21.86C21.8524 44.466 21.8449 44.4642 21.8382 44.4607C21.8315 44.4571 21.8258 44.4519 21.8216 44.4456C21.8182 44.4389 21.8165 44.4315 21.8165 44.4241C21.8165 44.4166 21.8182 44.4093 21.8216 44.4026L22.7753 42.1654C23.3462 40.8215 23.918 39.4777 24.4905 38.1338C24.4941 38.1255 24.5001 38.1185 24.5078 38.1137C24.5154 38.1088 24.5244 38.1064 24.5334 38.1067H25.6249C25.6337 38.1062 25.6424 38.1086 25.6498 38.1135C25.6571 38.1184 25.6627 38.1255 25.6656 38.1338L28.3344 44.4026C28.3382 44.4092 28.3402 44.4166 28.3402 44.4241C28.3402 44.4316 28.3382 44.439 28.3344 44.4456C28.3303 44.453 28.324 44.459 28.3163 44.4626C28.3085 44.4663 28.2999 44.4674 28.2915 44.4659ZM27.2294 44.3755H28.2237L25.5933 38.1949H24.5605C23.9925 39.5297 23.4246 40.8645 22.8566 42.1993L21.9301 44.3755H22.9244L23.5526 42.8998C23.5561 42.8919 23.5618 42.8851 23.569 42.8803C23.5762 42.8755 23.5846 42.8729 23.5933 42.8727H26.5582C26.5672 42.8727 26.576 42.8752 26.5836 42.88C26.5912 42.8848 26.5973 42.8917 26.6012 42.8998L27.2294 44.3755ZM26.1243 41.9439H24.0272C24.0197 41.9437 24.0123 41.9417 24.0057 41.9382C23.999 41.9347 23.9932 41.9297 23.9888 41.9236C23.9854 41.9169 23.9836 41.9096 23.9836 41.9021C23.9836 41.8947 23.9854 41.8873 23.9888 41.8806L24.8362 39.8852L25.0351 39.4129C25.0391 39.4054 25.0452 39.399 25.0525 39.3946C25.0599 39.3902 25.0683 39.3879 25.0769 39.3879C25.0855 39.3879 25.0939 39.3902 25.1012 39.3946C25.1086 39.399 25.1146 39.4054 25.1187 39.4129L26.1695 41.8806C26.1729 41.8873 26.1747 41.8947 26.1747 41.9021C26.1747 41.9096 26.1729 41.9169 26.1695 41.9236C26.1644 41.9306 26.1576 41.9362 26.1496 41.9398C26.1417 41.9434 26.133 41.9448 26.1243 41.9439ZM24.0905 41.8535H26.0543L25.0712 39.544L24.9108 39.9191L24.0905 41.8535Z" fill="black"/>
<path d="M28.2915 44.4659H27.1977C27.1891 44.4655 27.1808 44.4628 27.1736 44.458C27.1665 44.4532 27.1607 44.4466 27.1571 44.4388L26.5288 42.9631H23.6204L22.9922 44.4388C22.9887 44.4467 22.983 44.4535 22.9758 44.4583C22.9686 44.4631 22.9602 44.4658 22.9515 44.4659H21.86C21.8524 44.466 21.8449 44.4642 21.8382 44.4607C21.8315 44.4571 21.8258 44.4519 21.8216 44.4456C21.8182 44.4389 21.8165 44.4315 21.8165 44.4241C21.8165 44.4166 21.8182 44.4093 21.8216 44.4026L22.7753 42.1654C23.3462 40.8215 23.918 39.4777 24.4905 38.1338C24.4941 38.1255 24.5001 38.1185 24.5078 38.1137C24.5154 38.1088 24.5244 38.1064 24.5334 38.1067H25.6249C25.6337 38.1062 25.6424 38.1086 25.6498 38.1135C25.6571 38.1184 25.6627 38.1255 25.6656 38.1338L28.3344 44.4026C28.3382 44.4092 28.3402 44.4166 28.3402 44.4241C28.3402 44.4316 28.3382 44.439 28.3344 44.4456C28.3303 44.453 28.324 44.459 28.3163 44.4626C28.3085 44.4663 28.2999 44.4674 28.2915 44.4659ZM27.2294 44.3755H28.2237L25.5933 38.1949H24.5605C23.9925 39.5297 23.4246 40.8645 22.8566 42.1993L21.9301 44.3755H22.9244L23.5526 42.8998C23.5561 42.8919 23.5618 42.8851 23.569 42.8803C23.5762 42.8755 23.5846 42.8729 23.5933 42.8727H26.5582C26.5672 42.8727 26.576 42.8752 26.5836 42.88C26.5912 42.8848 26.5973 42.8917 26.6012 42.8998L27.2294 44.3755ZM26.1243 41.9439H24.0272C24.0197 41.9437 24.0123 41.9417 24.0057 41.9382C23.999 41.9347 23.9932 41.9297 23.9888 41.9236C23.9854 41.9169 23.9836 41.9096 23.9836 41.9021C23.9836 41.8947 23.9854 41.8873 23.9888 41.8806L24.8362 39.8852L25.0351 39.4129C25.0391 39.4054 25.0452 39.399 25.0525 39.3946C25.0599 39.3902 25.0683 39.3879 25.0769 39.3879C25.0855 39.3879 25.0939 39.3902 25.1012 39.3946C25.1086 39.399 25.1146 39.4054 25.1187 39.4129L26.1695 41.8806C26.1729 41.8873 26.1747 41.8947 26.1747 41.9021C26.1747 41.9096 26.1729 41.9169 26.1695 41.9236C26.1644 41.9306 26.1576 41.9362 26.1496 41.9398C26.1417 41.9434 26.133 41.9448 26.1243 41.9439ZM24.0905 41.8535H26.0543L25.0712 39.544L24.9108 39.9191L24.0905 41.8535Z" fill="#0D735A"/>
<path d="M29.4576 44.4207V38.1497H30.4497V43.4264H34.0157V44.4207H29.4576Z" fill="black"/>
<path d="M29.4576 44.4207V38.1497H30.4497V43.4264H34.0157V44.4207H29.4576Z" fill="#0D735A"/>
<path d="M34.0156 44.4659H29.4508C29.4388 44.4659 29.4273 44.4611 29.4188 44.4527C29.4103 44.4442 29.4056 44.4327 29.4056 44.4207V38.1497C29.4056 38.1438 29.4067 38.138 29.409 38.1327C29.4113 38.1273 29.4147 38.1225 29.4189 38.1185C29.4232 38.1144 29.4282 38.1113 29.4336 38.1093C29.4391 38.1073 29.4449 38.1064 29.4508 38.1067H30.4428C30.4487 38.1064 30.4545 38.1073 30.46 38.1093C30.4654 38.1113 30.4704 38.1144 30.4747 38.1185C30.4789 38.1225 30.4823 38.1273 30.4846 38.1327C30.4869 38.138 30.488 38.1438 30.488 38.1497V43.3834H34.0156C34.0215 43.3831 34.0273 43.384 34.0328 43.386C34.0382 43.388 34.0432 43.3912 34.0475 43.3952C34.0517 43.3992 34.0551 43.404 34.0574 43.4094C34.0597 43.4148 34.0608 43.4205 34.0608 43.4264V44.4207C34.0608 44.4327 34.0561 44.4442 34.0476 44.4527C34.0391 44.4611 34.0276 44.4659 34.0156 44.4659V44.4659ZM29.496 44.3755H33.9727V43.4716H30.4496C30.4438 43.4716 30.438 43.4704 30.4326 43.4681C30.4273 43.4658 30.4225 43.4624 30.4184 43.4582C30.4144 43.454 30.4113 43.449 30.4093 43.4435C30.4073 43.438 30.4064 43.4322 30.4067 43.4264V38.1949H29.5027L29.496 44.3755Z" fill="black"/>
<path d="M34.0156 44.4659H29.4508C29.4388 44.4659 29.4273 44.4611 29.4188 44.4527C29.4103 44.4442 29.4056 44.4327 29.4056 44.4207V38.1497C29.4056 38.1438 29.4067 38.138 29.409 38.1327C29.4113 38.1273 29.4147 38.1225 29.4189 38.1185C29.4232 38.1144 29.4282 38.1113 29.4336 38.1093C29.4391 38.1073 29.4449 38.1064 29.4508 38.1067H30.4428C30.4487 38.1064 30.4545 38.1073 30.46 38.1093C30.4654 38.1113 30.4704 38.1144 30.4747 38.1185C30.4789 38.1225 30.4823 38.1273 30.4846 38.1327C30.4869 38.138 30.488 38.1438 30.488 38.1497V43.3834H34.0156C34.0215 43.3831 34.0273 43.384 34.0328 43.386C34.0382 43.388 34.0432 43.3912 34.0475 43.3952C34.0517 43.3992 34.0551 43.404 34.0574 43.4094C34.0597 43.4148 34.0608 43.4205 34.0608 43.4264V44.4207C34.0608 44.4327 34.0561 44.4442 34.0476 44.4527C34.0391 44.4611 34.0276 44.4659 34.0156 44.4659V44.4659ZM29.496 44.3755H33.9727V43.4716H30.4496C30.4438 43.4716 30.438 43.4704 30.4326 43.4681C30.4273 43.4658 30.4225 43.4624 30.4184 43.4582C30.4144 43.454 30.4113 43.449 30.4093 43.4435C30.4073 43.438 30.4064 43.4322 30.4067 43.4264V38.1949H29.5027L29.496 44.3755Z" fill="#0D735A"/>
<path d="M39.559 44.4207H38.5647V38.1497H40.1963L41.8076 41.8332L43.4211 38.1497H45.0436V44.4207H44.0516V39.187L41.8076 44.31L39.5477 39.1734L39.559 44.4207Z" fill="black"/>
<path d="M39.559 44.4207H38.5647V38.1497H40.1963L41.8076 41.8332L43.4211 38.1497H45.0436V44.4207H44.0516V39.187L41.8076 44.31L39.5477 39.1734L39.559 44.4207Z" fill="#0D735A"/>
<path d="M47.9385 42.9179L47.299 44.4207H46.2052C47.0956 42.3311 47.9852 40.2408 48.8741 38.1497H49.9678L52.6344 44.4207H51.5429L50.9034 42.9179H47.9385ZM48.3724 41.8988H50.4695L49.4187 39.431C49.0707 40.2491 48.7219 41.0717 48.3724 41.8988V41.8988Z" fill="black"/>
<path d="M47.9385 42.9179L47.299 44.4207H46.2052C47.0956 42.3311 47.9852 40.2408 48.8741 38.1497H49.9678L52.6344 44.4207H51.5429L50.9034 42.9179H47.9385ZM48.3724 41.8988H50.4695L49.4187 39.431C49.0707 40.2491 48.7219 41.0717 48.3724 41.8988V41.8988Z" fill="#0D735A"/>
<path d="M52.6345 44.4659H51.543C51.5343 44.4658 51.5258 44.4631 51.5186 44.4583C51.5114 44.4535 51.5058 44.4467 51.5023 44.4388L50.8741 42.9631H47.9679L47.3487 44.4388C47.345 44.4466 47.3393 44.4532 47.3321 44.458C47.325 44.4628 47.3166 44.4655 47.308 44.4659H46.2143C46.207 44.4661 46.1998 44.4643 46.1934 44.4607C46.187 44.4571 46.1818 44.4519 46.1781 44.4456C46.1743 44.439 46.1724 44.4316 46.1724 44.4241C46.1724 44.4166 46.1743 44.4092 46.1781 44.4026L47.1318 42.1654L48.847 38.1338C48.8499 38.1255 48.8554 38.1184 48.8628 38.1135C48.8701 38.1086 48.8789 38.1062 48.8877 38.1067H49.9814C49.9901 38.1066 49.9987 38.1091 50.006 38.1139C50.0133 38.1188 50.0189 38.1257 50.0221 38.1338L52.691 44.4026C52.6943 44.4093 52.6961 44.4166 52.6961 44.4241C52.6961 44.4315 52.6943 44.4389 52.691 44.4456C52.6857 44.4553 52.677 44.4627 52.6666 44.4665C52.6562 44.4702 52.6447 44.47 52.6345 44.4659V44.4659ZM51.5723 44.3755H52.5667L49.9362 38.1949H48.9035C48.337 39.5297 47.769 40.8645 47.1996 42.1993L46.273 44.3755H47.2674L47.8956 42.8998C47.8994 42.8917 47.9055 42.8848 47.9131 42.88C47.9207 42.8752 47.9295 42.8727 47.9385 42.8727H50.9034C50.9121 42.8729 50.9205 42.8755 50.9277 42.8803C50.935 42.8851 50.9406 42.8919 50.9441 42.8998L51.5723 44.3755ZM50.4695 41.9439H48.3724C48.3649 41.9437 48.3575 41.9417 48.3509 41.9382C48.3442 41.9347 48.3384 41.9297 48.334 41.9236C48.3306 41.9169 48.3289 41.9096 48.3289 41.9021C48.3289 41.8947 48.3306 41.8873 48.334 41.8806C48.6187 41.2163 48.899 40.5496 49.1814 39.8852L49.3826 39.4129C49.3863 39.4053 49.392 39.3988 49.3992 39.3943C49.4064 39.3898 49.4147 39.3874 49.4232 39.3874C49.4317 39.3874 49.44 39.3898 49.4472 39.3943C49.4544 39.3988 49.4602 39.4053 49.4639 39.4129L50.5125 41.8806C50.5159 41.8873 50.5176 41.8947 50.5176 41.9021C50.5176 41.9096 50.5159 41.9169 50.5125 41.9236C50.5076 41.9303 50.5011 41.9357 50.4936 41.9392C50.4861 41.9428 50.4778 41.9444 50.4695 41.9439ZM48.4357 41.8535H50.3972L49.4142 39.544L49.256 39.9191L48.4357 41.8535Z" fill="black"/>
<path d="M52.6345 44.4659H51.543C51.5343 44.4658 51.5258 44.4631 51.5186 44.4583C51.5114 44.4535 51.5058 44.4467 51.5023 44.4388L50.8741 42.9631H47.9679L47.3487 44.4388C47.345 44.4466 47.3393 44.4532 47.3321 44.458C47.325 44.4628 47.3166 44.4655 47.308 44.4659H46.2143C46.207 44.4661 46.1998 44.4643 46.1934 44.4607C46.187 44.4571 46.1818 44.4519 46.1781 44.4456C46.1743 44.439 46.1724 44.4316 46.1724 44.4241C46.1724 44.4166 46.1743 44.4092 46.1781 44.4026L47.1318 42.1654L48.847 38.1338C48.8499 38.1255 48.8554 38.1184 48.8628 38.1135C48.8701 38.1086 48.8789 38.1062 48.8877 38.1067H49.9814C49.9901 38.1066 49.9987 38.1091 50.006 38.1139C50.0133 38.1188 50.0189 38.1257 50.0221 38.1338L52.691 44.4026C52.6943 44.4093 52.6961 44.4166 52.6961 44.4241C52.6961 44.4315 52.6943 44.4389 52.691 44.4456C52.6857 44.4553 52.677 44.4627 52.6666 44.4665C52.6562 44.4702 52.6447 44.47 52.6345 44.4659V44.4659ZM51.5723 44.3755H52.5667L49.9362 38.1949H48.9035C48.337 39.5297 47.769 40.8645 47.1996 42.1993L46.273 44.3755H47.2674L47.8956 42.8998C47.8994 42.8917 47.9055 42.8848 47.9131 42.88C47.9207 42.8752 47.9295 42.8727 47.9385 42.8727H50.9034C50.9121 42.8729 50.9205 42.8755 50.9277 42.8803C50.935 42.8851 50.9406 42.8919 50.9441 42.8998L51.5723 44.3755ZM50.4695 41.9439H48.3724C48.3649 41.9437 48.3575 41.9417 48.3509 41.9382C48.3442 41.9347 48.3384 41.9297 48.334 41.9236C48.3306 41.9169 48.3289 41.9096 48.3289 41.9021C48.3289 41.8947 48.3306 41.8873 48.334 41.8806C48.6187 41.2163 48.899 40.5496 49.1814 39.8852L49.3826 39.4129C49.3863 39.4053 49.392 39.3988 49.3992 39.3943C49.4064 39.3898 49.4147 39.3874 49.4232 39.3874C49.4317 39.3874 49.44 39.3898 49.4472 39.3943C49.4544 39.3988 49.4602 39.4053 49.4639 39.4129L50.5125 41.8806C50.5159 41.8873 50.5176 41.8947 50.5176 41.9021C50.5176 41.9096 50.5159 41.9169 50.5125 41.9236C50.5076 41.9303 50.5011 41.9357 50.4936 41.9392C50.4861 41.9428 50.4778 41.9444 50.4695 41.9439ZM48.4357 41.8535H50.3972L49.4142 39.544L49.256 39.9191L48.4357 41.8535Z" fill="#0D735A"/>
<path d="M54.8061 41.788V44.4253H53.8118V38.1497H56.9597C57.4231 38.1518 57.8682 38.3308 58.2042 38.6499C58.5402 38.9691 58.7417 39.4045 58.7676 39.8672V39.8785C58.7873 40.3136 58.6504 40.7414 58.3817 41.0843C58.1131 41.4272 57.7304 41.6624 57.3032 41.7473L58.9664 44.4207H57.7959L56.162 41.788H54.8061ZM54.8061 40.7937H56.9688C57.1869 40.7937 57.3961 40.707 57.5504 40.5528C57.7047 40.3985 57.7913 40.1893 57.7913 39.9711C57.7913 39.753 57.7047 39.5437 57.5504 39.3895C57.3961 39.2352 57.1869 39.1485 56.9688 39.1485H54.8061V40.7937Z" fill="black"/>
<path d="M54.8061 41.788V44.4253H53.8118V38.1497H56.9597C57.4231 38.1518 57.8682 38.3308 58.2042 38.6499C58.5402 38.9691 58.7417 39.4045 58.7676 39.8672V39.8785C58.7873 40.3136 58.6504 40.7414 58.3817 41.0843C58.1131 41.4272 57.7304 41.6624 57.3032 41.7473L58.9664 44.4207H57.7959L56.162 41.788H54.8061ZM54.8061 40.7937H56.9688C57.1869 40.7937 57.3961 40.707 57.5504 40.5528C57.7047 40.3985 57.7913 40.1893 57.7913 39.9711C57.7913 39.753 57.7047 39.5437 57.5504 39.3895C57.3961 39.2352 57.1869 39.1485 56.9688 39.1485H54.8061V40.7937Z" fill="#0D735A"/>
<path d="M63.0229 37.9937C63.5115 37.9931 63.9941 38.1015 64.4355 38.3111C64.8768 38.5206 65.2659 38.826 65.5742 39.205L64.8488 39.9304C64.5637 39.5467 64.165 39.2627 63.7092 39.1186C63.2534 38.9746 62.7638 38.9778 62.31 39.128C61.8561 39.2781 61.4612 39.5675 61.1813 39.955C60.9013 40.3425 60.7507 40.8083 60.7507 41.2863C60.7507 41.7643 60.9013 42.2302 61.1813 42.6177C61.4612 43.0051 61.8561 43.2945 62.31 43.4447C62.7638 43.5948 63.2534 43.5981 63.7092 43.454C64.165 43.31 64.5637 43.0259 64.8488 42.6422L65.5742 43.3699C65.2231 43.8004 64.7687 44.135 64.2534 44.3426C63.7381 44.5502 63.1786 44.6241 62.6271 44.5573C62.0756 44.4905 61.5499 44.2852 61.0991 43.9606C60.6482 43.636 60.2868 43.2026 60.0485 42.7007C59.8103 42.1989 59.7029 41.6449 59.7363 41.0903C59.7698 40.5358 59.943 39.9987 60.2399 39.5291C60.5367 39.0595 60.9476 38.6727 61.4342 38.4047C61.9208 38.1366 62.4673 37.996 63.0229 37.996V37.9937Z" fill="black"/>
<path d="M63.0229 37.9937C63.5115 37.9931 63.9941 38.1015 64.4355 38.3111C64.8768 38.5206 65.2659 38.826 65.5742 39.205L64.8488 39.9304C64.5637 39.5467 64.165 39.2627 63.7092 39.1186C63.2534 38.9746 62.7638 38.9778 62.31 39.128C61.8561 39.2781 61.4612 39.5675 61.1813 39.955C60.9013 40.3425 60.7507 40.8083 60.7507 41.2863C60.7507 41.7643 60.9013 42.2302 61.1813 42.6177C61.4612 43.0051 61.8561 43.2945 62.31 43.4447C62.7638 43.5948 63.2534 43.5981 63.7092 43.454C64.165 43.31 64.5637 43.0259 64.8488 42.6422L65.5742 43.3699C65.2231 43.8004 64.7687 44.135 64.2534 44.3426C63.7381 44.5502 63.1786 44.6241 62.6271 44.5573C62.0756 44.4905 61.5499 44.2852 61.0991 43.9606C60.6482 43.636 60.2868 43.2026 60.0485 42.7007C59.8103 42.1989 59.7029 41.6449 59.7363 41.0903C59.7698 40.5358 59.943 39.9987 60.2399 39.5291C60.5367 39.0595 60.9476 38.6727 61.4342 38.4047C61.9208 38.1366 62.4673 37.996 63.0229 37.996V37.9937Z" fill="#0D735A"/>
<path d="M63.023 44.6241C62.4599 44.6238 61.9061 44.4811 61.413 44.2092C60.9199 43.9373 60.5037 43.5451 60.203 43.069C59.9022 42.593 59.7268 42.0487 59.693 41.4866C59.6592 40.9246 59.7682 40.3631 60.0097 39.8545C60.2513 39.3459 60.6176 38.9066 61.0745 38.5776C61.5315 38.2486 62.0642 38.0406 62.6232 37.9728C63.1822 37.9051 63.7492 37.9798 64.2715 38.1901C64.7938 38.4005 65.2544 38.7395 65.6105 39.1757C65.6176 39.1842 65.6216 39.195 65.6216 39.2062C65.6216 39.2173 65.6176 39.2281 65.6105 39.2367L64.8828 39.9621C64.8787 39.9675 64.8731 39.9717 64.8667 39.9741C64.8603 39.9765 64.8533 39.977 64.8466 39.9756C64.8403 39.9755 64.8341 39.9738 64.8285 39.9706C64.823 39.9674 64.8184 39.963 64.815 39.9576C64.5358 39.5812 64.145 39.3025 63.6982 39.161C63.2514 39.0195 62.7714 39.0225 62.3264 39.1696C61.8814 39.3166 61.4941 39.6002 61.2196 39.98C60.9451 40.3599 60.7973 40.8166 60.7973 41.2852C60.7973 41.7539 60.9451 42.2106 61.2196 42.5904C61.4941 42.9702 61.8814 43.2539 62.3264 43.4009C62.7714 43.5479 63.2514 43.5509 63.6982 43.4095C64.145 43.268 64.5358 42.9892 64.815 42.6129C64.8233 42.6035 64.8344 42.5972 64.8466 42.5948C64.8533 42.5944 64.8599 42.5954 64.8662 42.5977C64.8724 42.6001 64.8781 42.6037 64.8828 42.6084L65.6105 43.336C65.6175 43.3442 65.6213 43.3546 65.6213 43.3654C65.6213 43.3762 65.6175 43.3866 65.6105 43.3948C65.2981 43.7796 64.9036 44.0898 64.4559 44.3025C64.0082 44.5152 63.5186 44.6251 63.023 44.6241V44.6241ZM63.023 38.0367C62.4759 38.0354 61.9374 38.1722 61.4573 38.4344C60.9772 38.6966 60.5711 39.0758 60.2766 39.5367C59.9821 39.9977 59.8087 40.5256 59.7725 41.0714C59.7363 41.6172 59.8385 42.1634 60.0696 42.6592C60.3007 43.155 60.6532 43.5845 61.0945 43.9078C61.5358 44.2311 62.0515 44.4377 62.594 44.5086C63.1364 44.5795 63.6879 44.5123 64.1975 44.3132C64.707 44.1142 65.158 43.7897 65.5088 43.3699L64.8466 42.7078C64.5501 43.0894 64.1418 43.3688 63.6787 43.507C63.2157 43.6452 62.721 43.6352 62.2638 43.4785C61.8067 43.3218 61.4099 43.0261 61.1291 42.6329C60.8482 42.2397 60.6972 41.7685 60.6972 41.2852C60.6972 40.802 60.8482 40.3308 61.1291 39.9375C61.4099 39.5443 61.8067 39.2487 62.2638 39.0919C62.721 38.9352 63.2157 38.9253 63.6787 39.0634C64.1418 39.2016 64.5501 39.481 64.8466 39.8627L65.5088 39.2028C65.2053 38.8381 64.8253 38.5445 64.3957 38.343C63.9661 38.1415 63.4975 38.0369 63.023 38.0367V38.0367Z" fill="black"/>
<path d="M63.023 44.6241C62.4599 44.6238 61.9061 44.4811 61.413 44.2092C60.9199 43.9373 60.5037 43.5451 60.203 43.069C59.9022 42.593 59.7268 42.0487 59.693 41.4866C59.6592 40.9246 59.7682 40.3631 60.0097 39.8545C60.2513 39.3459 60.6176 38.9066 61.0745 38.5776C61.5315 38.2486 62.0642 38.0406 62.6232 37.9728C63.1822 37.9051 63.7492 37.9798 64.2715 38.1901C64.7938 38.4005 65.2544 38.7395 65.6105 39.1757C65.6176 39.1842 65.6216 39.195 65.6216 39.2062C65.6216 39.2173 65.6176 39.2281 65.6105 39.2367L64.8828 39.9621C64.8787 39.9675 64.8731 39.9717 64.8667 39.9741C64.8603 39.9765 64.8533 39.977 64.8466 39.9756C64.8403 39.9755 64.8341 39.9738 64.8285 39.9706C64.823 39.9674 64.8184 39.963 64.815 39.9576C64.5358 39.5812 64.145 39.3025 63.6982 39.161C63.2514 39.0195 62.7714 39.0225 62.3264 39.1696C61.8814 39.3166 61.4941 39.6002 61.2196 39.98C60.9451 40.3599 60.7973 40.8166 60.7973 41.2852C60.7973 41.7539 60.9451 42.2106 61.2196 42.5904C61.4941 42.9702 61.8814 43.2539 62.3264 43.4009C62.7714 43.5479 63.2514 43.5509 63.6982 43.4095C64.145 43.268 64.5358 42.9892 64.815 42.6129C64.8233 42.6035 64.8344 42.5972 64.8466 42.5948C64.8533 42.5944 64.8599 42.5954 64.8662 42.5977C64.8724 42.6001 64.8781 42.6037 64.8828 42.6084L65.6105 43.336C65.6175 43.3442 65.6213 43.3546 65.6213 43.3654C65.6213 43.3762 65.6175 43.3866 65.6105 43.3948C65.2981 43.7796 64.9036 44.0898 64.4559 44.3025C64.0082 44.5152 63.5186 44.6251 63.023 44.6241V44.6241ZM63.023 38.0367C62.4759 38.0354 61.9374 38.1722 61.4573 38.4344C60.9772 38.6966 60.5711 39.0758 60.2766 39.5367C59.9821 39.9977 59.8087 40.5256 59.7725 41.0714C59.7363 41.6172 59.8385 42.1634 60.0696 42.6592C60.3007 43.155 60.6532 43.5845 61.0945 43.9078C61.5358 44.2311 62.0515 44.4377 62.594 44.5086C63.1364 44.5795 63.6879 44.5123 64.1975 44.3132C64.707 44.1142 65.158 43.7897 65.5088 43.3699L64.8466 42.7078C64.5501 43.0894 64.1418 43.3688 63.6787 43.507C63.2157 43.6452 62.721 43.6352 62.2638 43.4785C61.8067 43.3218 61.4099 43.0261 61.1291 42.6329C60.8482 42.2397 60.6972 41.7685 60.6972 41.2852C60.6972 40.802 60.8482 40.3308 61.1291 39.9375C61.4099 39.5443 61.8067 39.2487 62.2638 39.0919C62.721 38.9352 63.2157 38.9253 63.6787 39.0634C64.1418 39.2016 64.5501 39.481 64.8466 39.8627L65.5088 39.2028C65.2053 38.8381 64.8253 38.5445 64.3957 38.343C63.9661 38.1415 63.4975 38.0369 63.023 38.0367V38.0367Z" fill="#0D735A"/>
<path d="M71.5763 44.4207H66.7358V38.1497H71.5763V39.144H67.7346V40.7892H71.5763V41.788H67.7346V43.4309H71.5763V44.4207Z" fill="black"/>
<path d="M71.5763 44.4207H66.7358V38.1497H71.5763V39.144H67.7346V40.7892H71.5763V41.788H67.7346V43.4309H71.5763V44.4207Z" fill="#0D735A"/>
<path d="M71.5763 44.4659H66.7358C66.7238 44.4659 66.7123 44.4611 66.7038 44.4527C66.6953 44.4442 66.6906 44.4327 66.6906 44.4207V38.1497C66.6905 38.1438 66.6917 38.138 66.694 38.1327C66.6963 38.1273 66.6997 38.1225 66.7039 38.1185C66.7081 38.1144 66.7131 38.1113 66.7186 38.1093C66.7241 38.1073 66.7299 38.1064 66.7358 38.1067H71.5763C71.5821 38.1064 71.588 38.1073 71.5934 38.1093C71.5989 38.1113 71.6039 38.1144 71.6081 38.1185C71.6124 38.1225 71.6157 38.1273 71.618 38.1327C71.6203 38.138 71.6215 38.1438 71.6215 38.1497V39.144C71.6215 39.156 71.6167 39.1675 71.6083 39.1759C71.5998 39.1844 71.5883 39.1892 71.5763 39.1892H67.773V40.7439H71.5763C71.5883 40.7439 71.5998 40.7487 71.6083 40.7572C71.6167 40.7657 71.6215 40.7772 71.6215 40.7891V41.788C71.6215 41.7938 71.6203 41.7996 71.618 41.805C71.6157 41.8103 71.6124 41.8152 71.6081 41.8192C71.6039 41.8232 71.5989 41.8263 71.5934 41.8283C71.588 41.8303 71.5821 41.8312 71.5763 41.8309H67.773V43.388H71.5763C71.5821 43.3876 71.588 43.3885 71.5934 43.3905C71.5989 43.3926 71.6039 43.3957 71.6081 43.3997C71.6124 43.4037 71.6157 43.4086 71.618 43.4139C71.6203 43.4193 71.6215 43.4251 71.6215 43.4309V44.4252C71.6204 44.4364 71.6151 44.4468 71.6068 44.4543C71.5984 44.4618 71.5876 44.4659 71.5763 44.4659ZM66.7787 44.3755H71.5243V43.4716H67.7278C67.722 43.4716 67.7162 43.4704 67.7108 43.4681C67.7055 43.4658 67.7006 43.4624 67.6966 43.4582C67.6926 43.454 67.6895 43.449 67.6875 43.4435C67.6855 43.438 67.6846 43.4322 67.6849 43.4264V41.788C67.6846 41.7822 67.6855 41.7763 67.6875 41.7709C67.6895 41.7654 67.6926 41.7604 67.6966 41.7562C67.7006 41.7519 67.7055 41.7486 67.7108 41.7463C67.7162 41.744 67.722 41.7428 67.7278 41.7428H71.5289V40.8389H67.7278C67.722 40.8389 67.7162 40.8377 67.7108 40.8354C67.7055 40.8331 67.7006 40.8297 67.6966 40.8255C67.6926 40.8213 67.6895 40.8163 67.6875 40.8108C67.6855 40.8053 67.6846 40.7995 67.6849 40.7937V39.144C67.6846 39.1382 67.6855 39.1323 67.6875 39.1269C67.6895 39.1214 67.6926 39.1164 67.6966 39.1121C67.7006 39.1079 67.7055 39.1046 67.7108 39.1023C67.7162 39.1 67.722 39.0988 67.7278 39.0988H71.5289V38.1949H66.7832L66.7787 44.3755Z" fill="black"/>
<path d="M71.5763 44.4659H66.7358C66.7238 44.4659 66.7123 44.4611 66.7038 44.4527C66.6953 44.4442 66.6906 44.4327 66.6906 44.4207V38.1497C66.6905 38.1438 66.6917 38.138 66.694 38.1327C66.6963 38.1273 66.6997 38.1225 66.7039 38.1185C66.7081 38.1144 66.7131 38.1113 66.7186 38.1093C66.7241 38.1073 66.7299 38.1064 66.7358 38.1067H71.5763C71.5821 38.1064 71.588 38.1073 71.5934 38.1093C71.5989 38.1113 71.6039 38.1144 71.6081 38.1185C71.6124 38.1225 71.6157 38.1273 71.618 38.1327C71.6203 38.138 71.6215 38.1438 71.6215 38.1497V39.144C71.6215 39.156 71.6167 39.1675 71.6083 39.1759C71.5998 39.1844 71.5883 39.1892 71.5763 39.1892H67.773V40.7439H71.5763C71.5883 40.7439 71.5998 40.7487 71.6083 40.7572C71.6167 40.7657 71.6215 40.7772 71.6215 40.7891V41.788C71.6215 41.7938 71.6203 41.7996 71.618 41.805C71.6157 41.8103 71.6124 41.8152 71.6081 41.8192C71.6039 41.8232 71.5989 41.8263 71.5934 41.8283C71.588 41.8303 71.5821 41.8312 71.5763 41.8309H67.773V43.388H71.5763C71.5821 43.3876 71.588 43.3885 71.5934 43.3905C71.5989 43.3926 71.6039 43.3957 71.6081 43.3997C71.6124 43.4037 71.6157 43.4086 71.618 43.4139C71.6203 43.4193 71.6215 43.4251 71.6215 43.4309V44.4252C71.6204 44.4364 71.6151 44.4468 71.6068 44.4543C71.5984 44.4618 71.5876 44.4659 71.5763 44.4659ZM66.7787 44.3755H71.5243V43.4716H67.7278C67.722 43.4716 67.7162 43.4704 67.7108 43.4681C67.7055 43.4658 67.7006 43.4624 67.6966 43.4582C67.6926 43.454 67.6895 43.449 67.6875 43.4435C67.6855 43.438 67.6846 43.4322 67.6849 43.4264V41.788C67.6846 41.7822 67.6855 41.7763 67.6875 41.7709C67.6895 41.7654 67.6926 41.7604 67.6966 41.7562C67.7006 41.7519 67.7055 41.7486 67.7108 41.7463C67.7162 41.744 67.722 41.7428 67.7278 41.7428H71.5289V40.8389H67.7278C67.722 40.8389 67.7162 40.8377 67.7108 40.8354C67.7055 40.8331 67.7006 40.8297 67.6966 40.8255C67.6926 40.8213 67.6895 40.8163 67.6875 40.8108C67.6855 40.8053 67.6846 40.7995 67.6849 40.7937V39.144C67.6846 39.1382 67.6855 39.1323 67.6875 39.1269C67.6895 39.1214 67.6926 39.1164 67.6966 39.1121C67.7006 39.1079 67.7055 39.1046 67.7108 39.1023C67.7162 39.1 67.722 39.0988 67.7278 39.0988H71.5289V38.1949H66.7832L66.7787 44.3755Z" fill="#0D735A"/>
<path d="M72.7357 44.4207V38.1497H73.73V43.4264H77.3006V44.4207H72.7357Z" fill="black"/>
<path d="M72.7357 44.4207V38.1497H73.73V43.4264H77.3006V44.4207H72.7357Z" fill="#0D735A"/>
<path d="M77.3006 44.4659H72.7357C72.7237 44.4659 72.7122 44.4611 72.7037 44.4527C72.6952 44.4442 72.6905 44.4327 72.6905 44.4207V38.1497C72.6905 38.1438 72.6917 38.138 72.694 38.1327C72.6963 38.1273 72.6996 38.1225 72.7038 38.1185C72.7081 38.1144 72.7131 38.1113 72.7186 38.1093C72.724 38.1073 72.7299 38.1064 72.7357 38.1067H73.73C73.7358 38.1064 73.7417 38.1073 73.7471 38.1093C73.7526 38.1113 73.7576 38.1144 73.7618 38.1185C73.7661 38.1225 73.7694 38.1273 73.7717 38.1327C73.774 38.138 73.7752 38.1438 73.7752 38.1497V43.3834H77.3006C77.3064 43.3831 77.3122 43.384 77.3177 43.386C77.3231 43.388 77.3282 43.3912 77.3324 43.3952C77.3366 43.3992 77.34 43.404 77.3423 43.4094C77.3446 43.4148 77.3458 43.4205 77.3457 43.4264V44.4207C77.3457 44.4327 77.341 44.4442 77.3325 44.4527C77.324 44.4611 77.3125 44.4659 77.3006 44.4659ZM72.7809 44.3755H77.2576V43.4716H73.73C73.718 43.4716 73.7065 43.4668 73.6981 43.4583C73.6896 43.4498 73.6848 43.4384 73.6848 43.4264V38.1949H72.7809V44.3755Z" fill="black"/>
<path d="M77.3006 44.4659H72.7357C72.7237 44.4659 72.7122 44.4611 72.7037 44.4527C72.6952 44.4442 72.6905 44.4327 72.6905 44.4207V38.1497C72.6905 38.1438 72.6917 38.138 72.694 38.1327C72.6963 38.1273 72.6996 38.1225 72.7038 38.1185C72.7081 38.1144 72.7131 38.1113 72.7186 38.1093C72.724 38.1073 72.7299 38.1064 72.7357 38.1067H73.73C73.7358 38.1064 73.7417 38.1073 73.7471 38.1093C73.7526 38.1113 73.7576 38.1144 73.7618 38.1185C73.7661 38.1225 73.7694 38.1273 73.7717 38.1327C73.774 38.138 73.7752 38.1438 73.7752 38.1497V43.3834H77.3006C77.3064 43.3831 77.3122 43.384 77.3177 43.386C77.3231 43.388 77.3282 43.3912 77.3324 43.3952C77.3366 43.3992 77.34 43.404 77.3423 43.4094C77.3446 43.4148 77.3458 43.4205 77.3457 43.4264V44.4207C77.3457 44.4327 77.341 44.4442 77.3325 44.4527C77.324 44.4611 77.3125 44.4659 77.3006 44.4659ZM72.7809 44.3755H77.2576V43.4716H73.73C73.718 43.4716 73.7065 43.4668 73.6981 43.4583C73.6896 43.4498 73.6848 43.4384 73.6848 43.4264V38.1949H72.7809V44.3755Z" fill="#0D735A"/>
<path d="M84.6654 41.2864C84.6654 41.9386 84.4719 42.5761 84.1096 43.1184C83.7472 43.6606 83.2321 44.0832 82.6295 44.3327C82.0269 44.5822 81.3638 44.6473 80.7242 44.5199C80.0846 44.3925 79.4971 44.0783 79.0361 43.617C78.5751 43.1556 78.2612 42.5679 78.1342 41.9282C78.0073 41.2885 78.0729 40.6255 78.3228 40.023C78.5727 39.4206 78.9956 38.9058 79.5381 38.5438C80.0806 38.1818 80.7183 37.9888 81.3705 37.9893C81.8034 37.9893 82.232 38.0746 82.6319 38.2403C83.0318 38.406 83.3951 38.6489 83.7011 38.9551C84.0071 39.2613 84.2498 39.6248 84.4152 40.0248C84.5807 40.4248 84.6657 40.8535 84.6654 41.2864ZM81.3705 39.0265C80.9236 39.0265 80.4867 39.1591 80.115 39.4074C79.7434 39.6557 79.4538 40.0086 79.2827 40.4216C79.1117 40.8345 79.0669 41.2889 79.1541 41.7272C79.2413 42.1656 79.4565 42.5683 79.7726 42.8843C80.0886 43.2003 80.4913 43.4156 80.9297 43.5028C81.368 43.59 81.8224 43.5452 82.2353 43.3742C82.6483 43.2031 83.0012 42.9135 83.2495 42.5419C83.4978 42.1702 83.6304 41.7333 83.6304 41.2864C83.6315 40.9888 83.574 40.694 83.4609 40.4188C83.3479 40.1436 83.1816 39.8934 82.9717 39.6826C82.7617 39.4718 82.5122 39.3045 82.2374 39.1904C81.9627 39.0762 81.6681 39.0175 81.3705 39.0175V39.0265Z" fill="black"/>
<path d="M84.6654 41.2864C84.6654 41.9386 84.4719 42.5761 84.1096 43.1184C83.7472 43.6606 83.2321 44.0832 82.6295 44.3327C82.0269 44.5822 81.3638 44.6473 80.7242 44.5199C80.0846 44.3925 79.4971 44.0783 79.0361 43.617C78.5751 43.1556 78.2612 42.5679 78.1342 41.9282C78.0073 41.2885 78.0729 40.6255 78.3228 40.023C78.5727 39.4206 78.9956 38.9058 79.5381 38.5438C80.0806 38.1818 80.7183 37.9888 81.3705 37.9893C81.8034 37.9893 82.232 38.0746 82.6319 38.2403C83.0318 38.406 83.3951 38.6489 83.7011 38.9551C84.0071 39.2613 84.2498 39.6248 84.4152 40.0248C84.5807 40.4248 84.6657 40.8535 84.6654 41.2864ZM81.3705 39.0265C80.9236 39.0265 80.4867 39.1591 80.115 39.4074C79.7434 39.6557 79.4538 40.0086 79.2827 40.4216C79.1117 40.8345 79.0669 41.2889 79.1541 41.7272C79.2413 42.1656 79.4565 42.5683 79.7726 42.8843C80.0886 43.2003 80.4913 43.4156 80.9297 43.5028C81.368 43.59 81.8224 43.5452 82.2353 43.3742C82.6483 43.2031 83.0012 42.9135 83.2495 42.5419C83.4978 42.1702 83.6304 41.7333 83.6304 41.2864C83.6315 40.9888 83.574 40.694 83.4609 40.4188C83.3479 40.1436 83.1816 39.8934 82.9717 39.6826C82.7617 39.4718 82.5122 39.3045 82.2374 39.1904C81.9627 39.0762 81.6681 39.0175 81.3705 39.0175V39.0265Z" fill="#0D735A"/>
<path d="M81.3705 44.6264C80.7093 44.6268 80.0627 44.4311 79.5128 44.064C78.9628 43.6969 78.534 43.175 78.2808 42.5642C78.0275 41.9533 77.9612 41.2811 78.0901 40.6326C78.2189 39.984 78.5373 39.3883 79.0049 38.9207C79.4724 38.4531 80.0682 38.1348 80.7167 38.0059C81.3653 37.877 82.0375 37.9434 82.6483 38.1966C83.2591 38.4499 83.7811 38.8786 84.1482 39.4286C84.5153 39.9786 84.711 40.6251 84.7105 41.2863C84.7093 42.1718 84.3571 43.0206 83.7309 43.6468C83.1048 44.2729 82.256 44.6252 81.3705 44.6264V44.6264ZM81.3705 38.0344C80.7273 38.0344 80.0986 38.2251 79.5638 38.5825C79.0291 38.9398 78.6123 39.4477 78.3661 40.0419C78.12 40.6361 78.0556 41.2899 78.1811 41.9207C78.3066 42.5516 78.6163 43.131 79.0711 43.5858C79.5258 44.0406 80.1053 44.3503 80.7361 44.4757C81.3669 44.6012 82.0207 44.5368 82.6149 44.2907C83.2092 44.0446 83.717 43.6278 84.0744 43.093C84.4317 42.5582 84.6224 41.9295 84.6224 41.2863C84.6212 40.4242 84.2782 39.5978 83.6686 38.9882C83.059 38.3786 82.2326 38.0356 81.3705 38.0344V38.0344ZM81.3705 43.5981C80.9133 43.5981 80.4663 43.4626 80.0861 43.2085C79.7059 42.9545 79.4096 42.5934 79.2347 42.171C79.0597 41.7486 79.0139 41.2838 79.1031 40.8353C79.1923 40.3869 79.4125 39.9749 79.7358 39.6516C80.0591 39.3283 80.471 39.1081 80.9195 39.0189C81.3679 38.9297 81.8328 38.9755 82.2552 39.1505C82.6776 39.3255 83.0387 39.6218 83.2927 40.002C83.5467 40.3821 83.6823 40.8291 83.6823 41.2863C83.6811 41.8989 83.4371 42.486 83.0037 42.9189C82.5704 43.3518 81.983 43.5953 81.3705 43.5959V43.5981ZM81.3705 39.0627C80.9306 39.0622 80.5005 39.1922 80.1345 39.4363C79.7685 39.6804 79.4831 40.0275 79.3145 40.4338C79.1458 40.8401 79.1015 41.2873 79.187 41.7188C79.2726 42.1503 79.4842 42.5467 79.7951 42.8579C80.106 43.1691 80.5022 43.3811 80.9336 43.4671C81.365 43.5531 81.8122 43.5092 82.2187 43.341C82.6251 43.1727 82.9726 42.8877 83.217 42.522C83.4614 42.1562 83.5919 41.7262 83.5919 41.2863C83.5919 40.697 83.3579 40.1317 82.9414 39.7148C82.5249 39.2978 81.9599 39.0633 81.3705 39.0627V39.0627Z" fill="black"/>
<path d="M81.3705 44.6264C80.7093 44.6268 80.0627 44.4311 79.5128 44.064C78.9628 43.6969 78.534 43.175 78.2808 42.5642C78.0275 41.9533 77.9612 41.2811 78.0901 40.6326C78.2189 39.984 78.5373 39.3883 79.0049 38.9207C79.4724 38.4531 80.0682 38.1348 80.7167 38.0059C81.3653 37.877 82.0375 37.9434 82.6483 38.1966C83.2591 38.4499 83.7811 38.8786 84.1482 39.4286C84.5153 39.9786 84.711 40.6251 84.7105 41.2863C84.7093 42.1718 84.3571 43.0206 83.7309 43.6468C83.1048 44.2729 82.256 44.6252 81.3705 44.6264V44.6264ZM81.3705 38.0344C80.7273 38.0344 80.0986 38.2251 79.5638 38.5825C79.0291 38.9398 78.6123 39.4477 78.3661 40.0419C78.12 40.6361 78.0556 41.2899 78.1811 41.9207C78.3066 42.5516 78.6163 43.131 79.0711 43.5858C79.5258 44.0406 80.1053 44.3503 80.7361 44.4757C81.3669 44.6012 82.0207 44.5368 82.6149 44.2907C83.2092 44.0446 83.717 43.6278 84.0744 43.093C84.4317 42.5582 84.6224 41.9295 84.6224 41.2863C84.6212 40.4242 84.2782 39.5978 83.6686 38.9882C83.059 38.3786 82.2326 38.0356 81.3705 38.0344V38.0344ZM81.3705 43.5981C80.9133 43.5981 80.4663 43.4626 80.0861 43.2085C79.7059 42.9545 79.4096 42.5934 79.2347 42.171C79.0597 41.7486 79.0139 41.2838 79.1031 40.8353C79.1923 40.3869 79.4125 39.9749 79.7358 39.6516C80.0591 39.3283 80.471 39.1081 80.9195 39.0189C81.3679 38.9297 81.8328 38.9755 82.2552 39.1505C82.6776 39.3255 83.0387 39.6218 83.2927 40.002C83.5467 40.3821 83.6823 40.8291 83.6823 41.2863C83.6811 41.8989 83.4371 42.486 83.0037 42.9189C82.5704 43.3518 81.983 43.5953 81.3705 43.5959V43.5981ZM81.3705 39.0627C80.9306 39.0622 80.5005 39.1922 80.1345 39.4363C79.7685 39.6804 79.4831 40.0275 79.3145 40.4338C79.1458 40.8401 79.1015 41.2873 79.187 41.7188C79.2726 42.1503 79.4842 42.5467 79.7951 42.8579C80.106 43.1691 80.5022 43.3811 80.9336 43.4671C81.365 43.5531 81.8122 43.5092 82.2187 43.341C82.6251 43.1727 82.9726 42.8877 83.217 42.522C83.4614 42.1562 83.5919 41.7262 83.5919 41.2863C83.5919 40.697 83.3579 40.1317 82.9414 39.7148C82.5249 39.2978 81.9599 39.0633 81.3705 39.0627V39.0627Z" fill="#0D735A"/>
<path d="M94.4188 38.1497H95.4831L92.8821 44.4207H91.7996L89.2076 38.1497H90.2855C90.974 39.8159 91.661 41.4807 92.3465 43.1439L94.4188 38.1497Z" fill="black"/>
<path d="M94.4188 38.1497H95.4831L92.8821 44.4207H91.7996L89.2076 38.1497H90.2855C90.974 39.8159 91.661 41.4807 92.3465 43.1439L94.4188 38.1497Z" fill="#0D735A"/>
<path d="M92.8911 44.4659H91.7996C91.7909 44.4658 91.7825 44.4632 91.7753 44.4583C91.7681 44.4535 91.7624 44.4468 91.7589 44.4388L89.1669 38.1723C89.1631 38.1658 89.1611 38.1584 89.1611 38.1508C89.1611 38.1433 89.1631 38.1359 89.1669 38.1294C89.1708 38.1235 89.1762 38.1187 89.1826 38.1155C89.1889 38.1123 89.196 38.1109 89.203 38.1113H90.2855C90.2943 38.1108 90.303 38.1132 90.3104 38.118C90.3177 38.1229 90.3233 38.1301 90.3262 38.1384C90.7781 39.2141 91.2226 40.2898 91.6595 41.3654L92.3374 43.0332L94.3713 38.1384C94.3746 38.1299 94.3806 38.1227 94.3883 38.1178C94.396 38.1129 94.4051 38.1106 94.4142 38.1113H95.4831C95.4907 38.1106 95.4983 38.1118 95.5052 38.115C95.512 38.1182 95.518 38.1231 95.5223 38.1293C95.5267 38.1355 95.5293 38.1427 95.53 38.1503C95.5306 38.1578 95.5293 38.1654 95.5261 38.1723L92.925 44.4433C92.9215 44.4495 92.9166 44.4547 92.9107 44.4587C92.9048 44.4626 92.8981 44.4651 92.8911 44.4659V44.4659ZM91.829 44.3755H92.8617L95.4266 38.1949H94.4481L92.3871 43.1665C92.3833 43.1747 92.3772 43.1815 92.3696 43.1863C92.362 43.1911 92.3532 43.1937 92.3442 43.1936V43.1936C92.3355 43.1935 92.3271 43.1909 92.3199 43.1861C92.3127 43.1813 92.307 43.1745 92.3035 43.1665L91.5736 41.3993C91.1352 40.3327 90.6945 39.2661 90.2516 38.1994H89.2754L91.829 44.3755Z" fill="black"/>
<path d="M92.8911 44.4659H91.7996C91.7909 44.4658 91.7825 44.4632 91.7753 44.4583C91.7681 44.4535 91.7624 44.4468 91.7589 44.4388L89.1669 38.1723C89.1631 38.1658 89.1611 38.1584 89.1611 38.1508C89.1611 38.1433 89.1631 38.1359 89.1669 38.1294C89.1708 38.1235 89.1762 38.1187 89.1826 38.1155C89.1889 38.1123 89.196 38.1109 89.203 38.1113H90.2855C90.2943 38.1108 90.303 38.1132 90.3104 38.118C90.3177 38.1229 90.3233 38.1301 90.3262 38.1384C90.7781 39.2141 91.2226 40.2898 91.6595 41.3654L92.3374 43.0332L94.3713 38.1384C94.3746 38.1299 94.3806 38.1227 94.3883 38.1178C94.396 38.1129 94.4051 38.1106 94.4142 38.1113H95.4831C95.4907 38.1106 95.4983 38.1118 95.5052 38.115C95.512 38.1182 95.518 38.1231 95.5223 38.1293C95.5267 38.1355 95.5293 38.1427 95.53 38.1503C95.5306 38.1578 95.5293 38.1654 95.5261 38.1723L92.925 44.4433C92.9215 44.4495 92.9166 44.4547 92.9107 44.4587C92.9048 44.4626 92.8981 44.4651 92.8911 44.4659V44.4659ZM91.829 44.3755H92.8617L95.4266 38.1949H94.4481L92.3871 43.1665C92.3833 43.1747 92.3772 43.1815 92.3696 43.1863C92.362 43.1911 92.3532 43.1937 92.3442 43.1936V43.1936C92.3355 43.1935 92.3271 43.1909 92.3199 43.1861C92.3127 43.1813 92.307 43.1745 92.3035 43.1665L91.5736 41.3993C91.1352 40.3327 90.6945 39.2661 90.2516 38.1994H89.2754L91.829 44.3755Z" fill="#0D735A"/>
<path d="M101.501 44.4207H96.6605V38.1497H101.501V39.144H97.6594V40.7892H101.501V41.788H97.6594V43.4309H101.501V44.4207Z" fill="black"/>
<path d="M101.501 44.4207H96.6605V38.1497H101.501V39.144H97.6594V40.7892H101.501V41.788H97.6594V43.4309H101.501V44.4207Z" fill="#0D735A"/>
<path d="M103.655 41.788V44.4253H102.66V38.1497H105.808C106.272 38.1524 106.716 38.3315 107.052 38.6506C107.388 38.9696 107.59 39.4047 107.616 39.8672V39.8785C107.635 40.3135 107.498 40.7411 107.23 41.0838C106.961 41.4266 106.579 41.662 106.152 41.7473L107.815 44.4207H106.644L105.011 41.788H103.655ZM103.655 40.7937H105.817C106.036 40.7937 106.245 40.707 106.399 40.5528C106.553 40.3985 106.64 40.1893 106.64 39.9711C106.64 39.753 106.553 39.5437 106.399 39.3895C106.245 39.2352 106.036 39.1485 105.817 39.1485H103.655V40.7937Z" fill="black"/>
<path d="M103.655 41.788V44.4253H102.66V38.1497H105.808C106.272 38.1524 106.716 38.3315 107.052 38.6506C107.388 38.9696 107.59 39.4047 107.616 39.8672V39.8785C107.635 40.3135 107.498 40.7411 107.23 41.0838C106.961 41.4266 106.579 41.662 106.152 41.7473L107.815 44.4207H106.644L105.011 41.788H103.655ZM103.655 40.7937H105.817C106.036 40.7937 106.245 40.707 106.399 40.5528C106.553 40.3985 106.64 40.1893 106.64 39.9711C106.64 39.753 106.553 39.5437 106.399 39.3895C106.245 39.2352 106.036 39.1485 105.817 39.1485H103.655V40.7937Z" fill="#0D735A"/>
<path d="M110.717 42.9179L110.077 44.4207H108.983C109.874 42.3311 110.763 40.2408 111.652 38.1497H112.746L115.415 44.4207H114.321L113.682 42.9179H110.717ZM111.151 41.8988H113.248L112.206 39.431C111.852 40.2491 111.5 41.0717 111.151 41.8988V41.8988Z" fill="black"/>
<path d="M110.717 42.9179L110.077 44.4207H108.983C109.874 42.3311 110.763 40.2408 111.652 38.1497H112.746L115.415 44.4207H114.321L113.682 42.9179H110.717ZM111.151 41.8988H113.248L112.206 39.431C111.852 40.2491 111.5 41.0717 111.151 41.8988V41.8988Z" fill="#0D735A"/>
<path d="M0.737985 50.3999V48.0263H1.01604L2.08079 49.8201H1.93159L2.98277 48.0263H3.26082L3.26421 50.3999H2.93869L2.93529 48.5383H3.01329L2.07739 50.1117H1.92141L0.978739 48.5383H1.06351V50.3999H0.737985ZM3.92231 50.3999L4.99723 48.0263H5.33293L6.41124 50.3999H6.0552L5.09557 48.2162H5.23121L4.27158 50.3999H3.92231ZM4.38009 49.8065L4.47164 49.5353H5.80766L5.906 49.8065H4.38009ZM7.07051 50.3999V48.0263H7.99623C8.2042 48.0263 8.38166 48.0591 8.5286 48.1246C8.67554 48.1902 8.78857 48.2851 8.86769 48.4095C8.94681 48.5338 8.98637 48.6819 8.98637 48.8537C8.98637 49.0255 8.94681 49.1736 8.86769 49.2979C8.78857 49.42 8.67554 49.5138 8.5286 49.5793C8.38166 49.6449 8.2042 49.6777 7.99623 49.6777H7.25701L7.4096 49.5217V50.3999H7.07051ZM8.65746 50.3999L8.05387 49.5386H8.4167L9.02707 50.3999H8.65746ZM7.4096 49.5556L7.25701 49.3894H7.98606C8.20307 49.3894 8.36697 49.3431 8.47774 49.2504C8.59077 49.1555 8.64728 49.0232 8.64728 48.8537C8.64728 48.6841 8.59077 48.553 8.47774 48.4603C8.36697 48.3676 8.20307 48.3213 7.98606 48.3213H7.25701L7.4096 48.1518V49.5556ZM10.2776 50.3999V48.3213H9.4638V48.0263H11.4271V48.3213H10.6133V50.3999H10.2776ZM12.1016 50.3999V48.0263H12.4407V50.3999H12.1016ZM13.4565 50.3999V48.0263H13.7956V50.1049H15.0808V50.3999H13.4565ZM15.7751 50.3999V48.0263H16.1142V50.1049H17.3993V50.3999H15.7751ZM18.4022 49.0504H19.6229V49.3386H18.4022V49.0504ZM18.4327 50.1049H19.8162V50.3999H18.0936V48.0263H19.7687V48.3213H18.4327V50.1049ZM20.6704 50.3999V48.0263H21.5962C21.8041 48.0263 21.9816 48.0591 22.1285 48.1246C22.2755 48.1902 22.3885 48.2851 22.4676 48.4095C22.5467 48.5338 22.5863 48.6819 22.5863 48.8537C22.5863 49.0255 22.5467 49.1736 22.4676 49.2979C22.3885 49.42 22.2755 49.5138 22.1285 49.5793C21.9816 49.6449 21.8041 49.6777 21.5962 49.6777H20.8569L21.0095 49.5217V50.3999H20.6704ZM22.2574 50.3999L21.6538 49.5386H22.0166L22.627 50.3999H22.2574ZM21.0095 49.5556L20.8569 49.3894H21.586C21.803 49.3894 21.9669 49.3431 22.0777 49.2504C22.1907 49.1555 22.2472 49.0232 22.2472 48.8537C22.2472 48.6841 22.1907 48.553 22.0777 48.4603C21.9669 48.3676 21.803 48.3213 21.586 48.3213H20.8569L21.0095 48.1518V49.5556ZM24.5109 50.4271C24.33 50.4271 24.1616 50.3965 24.0056 50.3355C23.8519 50.2745 23.7185 50.1897 23.6055 50.0812C23.4925 49.9704 23.4043 49.8416 23.341 49.6946C23.2777 49.5477 23.2461 49.3872 23.2461 49.2131C23.2461 49.039 23.2777 48.8785 23.341 48.7316C23.4043 48.5847 23.4925 48.4569 23.6055 48.3484C23.7185 48.2377 23.8519 48.1518 24.0056 48.0907C24.1593 48.0297 24.3278 47.9992 24.5109 47.9992C24.6917 47.9992 24.8579 48.0297 25.0093 48.0907C25.163 48.1495 25.2964 48.2343 25.4095 48.345C25.5247 48.4536 25.6129 48.5813 25.6739 48.7282C25.7372 48.8752 25.7689 49.0368 25.7689 49.2131C25.7689 49.3894 25.7372 49.5511 25.6739 49.698C25.6129 49.845 25.5247 49.9738 25.4095 50.0846C25.2964 50.1931 25.163 50.2779 25.0093 50.3389C24.8579 50.3977 24.6917 50.4271 24.5109 50.4271ZM24.5109 50.1253C24.642 50.1253 24.7629 50.1027 24.8737 50.0575C24.9867 50.0122 25.0839 49.9489 25.1653 49.8676C25.249 49.7839 25.3134 49.6867 25.3586 49.5759C25.4061 49.4652 25.4298 49.3442 25.4298 49.2131C25.4298 49.082 25.4061 48.9611 25.3586 48.8503C25.3134 48.7395 25.249 48.6434 25.1653 48.5621C25.0839 48.4784 24.9867 48.414 24.8737 48.3688C24.7629 48.3236 24.642 48.301 24.5109 48.301C24.3775 48.301 24.2543 48.3236 24.1413 48.3688C24.0305 48.414 23.9333 48.4784 23.8496 48.5621C23.766 48.6434 23.7004 48.7395 23.653 48.8503C23.6078 48.9611 23.5851 49.082 23.5851 49.2131C23.5851 49.3442 23.6078 49.4652 23.653 49.5759C23.7004 49.6867 23.766 49.7839 23.8496 49.8676C23.9333 49.9489 24.0305 50.0122 24.1413 50.0575C24.2543 50.1027 24.3775 50.1253 24.5109 50.1253ZM28.3812 50.3999V49.4912L28.4592 49.7014L27.4386 48.0263H27.8014L28.6593 49.4403H28.4626L29.3239 48.0263H29.6596L28.6423 49.7014L28.7169 49.4912V50.3999H28.3812ZM32.586 50.4271C32.4052 50.4271 32.2379 50.3977 32.0842 50.3389C31.9327 50.2779 31.8005 50.1931 31.6874 50.0846C31.5767 49.9738 31.4896 49.845 31.4263 49.698C31.363 49.5511 31.3314 49.3894 31.3314 49.2131C31.3314 49.0368 31.363 48.8752 31.4263 48.7282C31.4896 48.5813 31.5778 48.4536 31.6908 48.345C31.8039 48.2343 31.9361 48.1495 32.0876 48.0907C32.2413 48.0297 32.4086 47.9992 32.5894 47.9992C32.7725 47.9992 32.9409 48.0308 33.0947 48.0941C33.2506 48.1551 33.3829 48.2467 33.4914 48.3688L33.271 48.5824C33.1806 48.4875 33.0788 48.4174 32.9658 48.3722C32.8528 48.3247 32.7318 48.301 32.603 48.301C32.4696 48.301 32.3453 48.3236 32.23 48.3688C32.1169 48.414 32.0186 48.4773 31.935 48.5587C31.8513 48.6401 31.7858 48.7373 31.7383 48.8503C31.6931 48.9611 31.6705 49.082 31.6705 49.2131C31.6705 49.3442 31.6931 49.4663 31.7383 49.5793C31.7858 49.6901 31.8513 49.7862 31.935 49.8676C32.0186 49.9489 32.1169 50.0122 32.23 50.0575C32.3453 50.1027 32.4696 50.1253 32.603 50.1253C32.7318 50.1253 32.8528 50.1027 32.9658 50.0575C33.0788 50.01 33.1806 49.9376 33.271 49.8404L33.4914 50.0541C33.3829 50.1761 33.2506 50.2688 33.0947 50.3321C32.9409 50.3954 32.7714 50.4271 32.586 50.4271ZM35.3022 50.4271C35.1213 50.4271 34.9529 50.3965 34.7969 50.3355C34.6432 50.2745 34.5098 50.1897 34.3968 50.0812C34.2838 49.9704 34.1956 49.8416 34.1323 49.6946C34.069 49.5477 34.0374 49.3872 34.0374 49.2131C34.0374 49.039 34.069 48.8785 34.1323 48.7316C34.1956 48.5847 34.2838 48.4569 34.3968 48.3484C34.5098 48.2377 34.6432 48.1518 34.7969 48.0907C34.9506 48.0297 35.1191 47.9992 35.3022 47.9992C35.483 47.9992 35.6492 48.0297 35.8006 48.0907C35.9544 48.1495 36.0877 48.2343 36.2008 48.345C36.3161 48.4536 36.4042 48.5813 36.4653 48.7282C36.5286 48.8752 36.5602 49.0368 36.5602 49.2131C36.5602 49.3894 36.5286 49.5511 36.4653 49.698C36.4042 49.845 36.3161 49.9738 36.2008 50.0846C36.0877 50.1931 35.9544 50.2779 35.8006 50.3389C35.6492 50.3977 35.483 50.4271 35.3022 50.4271ZM35.3022 50.1253C35.4333 50.1253 35.5542 50.1027 35.665 50.0575C35.778 50.0122 35.8752 49.9489 35.9566 49.8676C36.0403 49.7839 36.1047 49.6867 36.1499 49.5759C36.1974 49.4652 36.2211 49.3442 36.2211 49.2131C36.2211 49.082 36.1974 48.9611 36.1499 48.8503C36.1047 48.7395 36.0403 48.6434 35.9566 48.5621C35.8752 48.4784 35.778 48.414 35.665 48.3688C35.5542 48.3236 35.4333 48.301 35.3022 48.301C35.1688 48.301 35.0456 48.3236 34.9326 48.3688C34.8218 48.414 34.7246 48.4784 34.6409 48.5621C34.5573 48.6434 34.4917 48.7395 34.4443 48.8503C34.3991 48.9611 34.3765 49.082 34.3765 49.2131C34.3765 49.3442 34.3991 49.4652 34.4443 49.5759C34.4917 49.6867 34.5573 49.7839 34.6409 49.8676C34.7246 49.9489 34.8218 50.0122 34.9326 50.0575C35.0456 50.1027 35.1688 50.1253 35.3022 50.1253ZM37.3837 50.3999V48.0263H38.3094C38.5174 48.0263 38.6948 48.0591 38.8418 48.1246C38.9887 48.1902 39.1017 48.2851 39.1808 48.4095C39.26 48.5338 39.2995 48.6819 39.2995 48.8537C39.2995 49.0255 39.26 49.1736 39.1808 49.2979C39.1017 49.42 38.9887 49.5138 38.8418 49.5793C38.6948 49.6449 38.5174 49.6777 38.3094 49.6777H37.5702L37.7228 49.5217V50.3999H37.3837ZM38.9706 50.3999L38.367 49.5386H38.7299L39.3402 50.3999H38.9706ZM37.7228 49.5556L37.5702 49.3894H38.2992C38.5162 49.3894 38.6801 49.3431 38.7909 49.2504C38.9039 49.1555 38.9604 49.0232 38.9604 48.8537C38.9604 48.6841 38.9039 48.553 38.7909 48.4603C38.6801 48.3676 38.5162 48.3213 38.2992 48.3213H37.5702L37.7228 48.1518V49.5556ZM40.1526 50.3999V48.0263H41.0783C41.2862 48.0263 41.4637 48.0591 41.6106 48.1246C41.7576 48.1902 41.8706 48.2851 41.9497 48.4095C42.0289 48.5338 42.0684 48.6819 42.0684 48.8537C42.0684 49.0255 42.0289 49.1736 41.9497 49.2979C41.8706 49.42 41.7576 49.5138 41.6106 49.5793C41.4637 49.6449 41.2862 49.6777 41.0783 49.6777H40.3391L40.4916 49.5217V50.3999H40.1526ZM41.7395 50.3999L41.1359 49.5386H41.4987L42.1091 50.3999H41.7395ZM40.4916 49.5556L40.3391 49.3894H41.0681C41.2851 49.3894 41.449 49.3431 41.5598 49.2504C41.6728 49.1555 41.7293 49.0232 41.7293 48.8537C41.7293 48.6841 41.6728 48.553 41.5598 48.4603C41.449 48.3676 41.2851 48.3213 41.0681 48.3213H40.3391L40.4916 48.1518V49.5556ZM43.23 49.0504H44.4507V49.3386H43.23V49.0504ZM43.2605 50.1049H44.644V50.3999H42.9214V48.0263H44.5966V48.3213H43.2605V50.1049ZM45.4983 50.3999V48.0263H46.4986C46.7518 48.0263 46.9744 48.076 47.1666 48.1755C47.361 48.275 47.5113 48.414 47.6176 48.5926C47.7261 48.7712 47.7804 48.978 47.7804 49.2131C47.7804 49.4482 47.7261 49.6551 47.6176 49.8337C47.5113 50.0122 47.361 50.1513 47.1666 50.2507C46.9744 50.3502 46.7518 50.3999 46.4986 50.3999H45.4983ZM45.8374 50.1049H46.4782C46.6749 50.1049 46.8445 50.0676 46.9869 49.993C47.1316 49.9184 47.2435 49.8144 47.3226 49.6811C47.4017 49.5454 47.4413 49.3894 47.4413 49.2131C47.4413 49.0345 47.4017 48.8785 47.3226 48.7452C47.2435 48.6118 47.1316 48.5078 46.9869 48.4332C46.8445 48.3586 46.6749 48.3213 46.4782 48.3213H45.8374V50.1049ZM49.6765 50.4271C49.4956 50.4271 49.3272 50.3965 49.1712 50.3355C49.0175 50.2745 48.8841 50.1897 48.7711 50.0812C48.6581 49.9704 48.5699 49.8416 48.5066 49.6946C48.4433 49.5477 48.4116 49.3872 48.4116 49.2131C48.4116 49.039 48.4433 48.8785 48.5066 48.7316C48.5699 48.5847 48.6581 48.4569 48.7711 48.3484C48.8841 48.2377 49.0175 48.1518 49.1712 48.0907C49.3249 48.0297 49.4933 47.9992 49.6765 47.9992C49.8573 47.9992 50.0235 48.0297 50.1749 48.0907C50.3286 48.1495 50.462 48.2343 50.575 48.345C50.6903 48.4536 50.7785 48.5813 50.8395 48.7282C50.9028 48.8752 50.9345 49.0368 50.9345 49.2131C50.9345 49.3894 50.9028 49.5511 50.8395 49.698C50.7785 49.845 50.6903 49.9738 50.575 50.0846C50.462 50.1931 50.3286 50.2779 50.1749 50.3389C50.0235 50.3977 49.8573 50.4271 49.6765 50.4271ZM49.6765 50.1253C49.8076 50.1253 49.9285 50.1027 50.0393 50.0575C50.1523 50.0122 50.2495 49.9489 50.3309 49.8676C50.4145 49.7839 50.479 49.6867 50.5242 49.5759C50.5717 49.4652 50.5954 49.3442 50.5954 49.2131C50.5954 49.082 50.5717 48.9611 50.5242 48.8503C50.479 48.7395 50.4145 48.6434 50.3309 48.5621C50.2495 48.4784 50.1523 48.414 50.0393 48.3688C49.9285 48.3236 49.8076 48.301 49.6765 48.301C49.5431 48.301 49.4199 48.3236 49.3068 48.3688C49.1961 48.414 49.0989 48.4784 49.0152 48.5621C48.9316 48.6434 48.866 48.7395 48.8186 48.8503C48.7733 48.9611 48.7507 49.082 48.7507 49.2131C48.7507 49.3442 48.7733 49.4652 48.8186 49.5759C48.866 49.6867 48.9316 49.7839 49.0152 49.8676C49.0989 49.9489 49.1961 50.0122 49.3068 50.0575C49.4199 50.1027 49.5431 50.1253 49.6765 50.1253ZM51.7579 50.3999V48.0263H52.6837C52.8916 48.0263 53.0691 48.0591 53.216 48.1246C53.363 48.1902 53.476 48.2851 53.5551 48.4095C53.6342 48.5338 53.6738 48.6819 53.6738 48.8537C53.6738 49.0255 53.6342 49.1736 53.5551 49.2979C53.476 49.42 53.363 49.5138 53.216 49.5793C53.0691 49.6449 52.8916 49.6777 52.6837 49.6777H51.9444L52.097 49.5217V50.3999H51.7579ZM53.3449 50.3999L52.7413 49.5386H53.1041L53.7145 50.3999H53.3449ZM52.097 49.5556L51.9444 49.3894H52.6735C52.8905 49.3894 53.0544 49.3431 53.1652 49.2504C53.2782 49.1555 53.3347 49.0232 53.3347 48.8537C53.3347 48.6841 53.2782 48.553 53.1652 48.4603C53.0544 48.3676 52.8905 48.3213 52.6735 48.3213H51.9444L52.097 48.1518V49.5556ZM55.7427 50.3999V48.0263H56.6684C56.8764 48.0263 57.0538 48.0591 57.2008 48.1246C57.3477 48.1902 57.4607 48.2851 57.5398 48.4095C57.619 48.5338 57.6585 48.6819 57.6585 48.8537C57.6585 49.0255 57.619 49.1736 57.5398 49.2979C57.4607 49.42 57.3477 49.5149 57.2008 49.5827C57.0538 49.6483 56.8764 49.6811 56.6684 49.6811H55.9292L56.0818 49.5217V50.3999H55.7427ZM56.0818 49.5556L55.9292 49.3861H56.6582C56.8752 49.3861 57.0391 49.3397 57.1499 49.247C57.2629 49.1543 57.3194 49.0232 57.3194 48.8537C57.3194 48.6841 57.2629 48.553 57.1499 48.4603C57.0391 48.3676 56.8752 48.3213 56.6582 48.3213H55.9292L56.0818 48.1518V49.5556ZM59.4519 50.4271C59.1399 50.4271 58.8946 50.3378 58.716 50.1592C58.5375 49.9806 58.4482 49.7195 58.4482 49.3759V48.0263H58.7872V49.3623C58.7872 49.6268 58.8449 49.8201 58.9602 49.9422C59.0777 50.0642 59.2428 50.1253 59.4553 50.1253C59.67 50.1253 59.835 50.0642 59.9503 49.9422C60.0679 49.8201 60.1267 49.6268 60.1267 49.3623V48.0263H60.4556V49.3759C60.4556 49.7195 60.3663 49.9806 60.1877 50.1592C60.0114 50.3378 59.7661 50.4271 59.4519 50.4271ZM59.2009 47.833L59.6621 47.3922H60.0758L59.5061 47.833H59.2009ZM61.4559 50.3999V48.0263H62.5207C62.7942 48.0263 63.0045 48.0817 63.1514 48.1924C63.2983 48.301 63.3718 48.4502 63.3718 48.6401C63.3718 48.7689 63.3424 48.8774 63.2836 48.9656C63.2271 49.0537 63.1503 49.1216 63.0531 49.169C62.9559 49.2165 62.8507 49.2402 62.7377 49.2402L62.7987 49.1385C62.9344 49.1385 63.0542 49.1623 63.1582 49.2097C63.2622 49.2572 63.3447 49.3273 63.4057 49.42C63.4668 49.5104 63.4973 49.6234 63.4973 49.7591C63.4973 49.9625 63.4204 50.1207 63.2667 50.2338C63.1152 50.3445 62.8892 50.3999 62.5885 50.3999H61.4559ZM61.795 50.1253H62.5749C62.7626 50.1253 62.9061 50.0936 63.0056 50.0303C63.1051 49.967 63.1548 49.8676 63.1548 49.7319C63.1548 49.594 63.1051 49.4934 63.0056 49.4301C62.9061 49.3668 62.7626 49.3352 62.5749 49.3352H61.7645V49.0605H62.4902C62.662 49.0605 62.7954 49.0289 62.8903 48.9656C62.9852 48.9023 63.0327 48.8073 63.0327 48.6807C63.0327 48.5541 62.9852 48.4592 62.8903 48.3959C62.7954 48.3326 62.662 48.301 62.4902 48.301H61.795V50.1253ZM64.3275 50.3999V48.0263H64.6666V50.1049H65.9517V50.3999H64.3275ZM66.646 50.3999V48.0263H66.9851V50.3999H66.646ZM69.0623 50.4271C68.8814 50.4271 68.7141 50.3977 68.5604 50.3389C68.409 50.2779 68.2767 50.1931 68.1637 50.0846C68.0529 49.9738 67.9659 49.845 67.9026 49.698C67.8393 49.5511 67.8076 49.3894 67.8076 49.2131C67.8076 49.0368 67.8393 48.8752 67.9026 48.7282C67.9659 48.5813 68.0541 48.4536 68.1671 48.345C68.2801 48.2343 68.4124 48.1495 68.5638 48.0907C68.7175 48.0297 68.8848 47.9992 69.0657 47.9992C69.2488 47.9992 69.4172 48.0308 69.5709 48.0941C69.7269 48.1551 69.8591 48.2467 69.9677 48.3688L69.7472 48.5824C69.6568 48.4875 69.5551 48.4174 69.4421 48.3722C69.329 48.3247 69.2081 48.301 69.0792 48.301C68.9459 48.301 68.8215 48.3236 68.7062 48.3688C68.5932 48.414 68.4949 48.4773 68.4112 48.5587C68.3276 48.6401 68.262 48.7373 68.2146 48.8503C68.1693 48.9611 68.1467 49.082 68.1467 49.2131C68.1467 49.3442 68.1693 49.4663 68.2146 49.5793C68.262 49.6901 68.3276 49.7862 68.4112 49.8676C68.4949 49.9489 68.5932 50.0122 68.7062 50.0575C68.8215 50.1027 68.9459 50.1253 69.0792 50.1253C69.2081 50.1253 69.329 50.1027 69.4421 50.0575C69.5551 50.01 69.6568 49.9376 69.7472 49.8404L69.9677 50.0541C69.8591 50.1761 69.7269 50.2688 69.5709 50.3321C69.4172 50.3954 69.2477 50.4271 69.0623 50.4271ZM71.7784 50.4271C71.5976 50.4271 71.4292 50.3965 71.2732 50.3355C71.1195 50.2745 70.9861 50.1897 70.8731 50.0812C70.76 49.9704 70.6719 49.8416 70.6086 49.6946C70.5453 49.5477 70.5136 49.3872 70.5136 49.2131C70.5136 49.039 70.5453 48.8785 70.6086 48.7316C70.6719 48.5847 70.76 48.4569 70.8731 48.3484C70.9861 48.2377 71.1195 48.1518 71.2732 48.0907C71.4269 48.0297 71.5953 47.9992 71.7784 47.9992C71.9593 47.9992 72.1254 48.0297 72.2769 48.0907C72.4306 48.1495 72.564 48.2343 72.677 48.345C72.7923 48.4536 72.8805 48.5813 72.9415 48.7282C73.0048 48.8752 73.0365 49.0368 73.0365 49.2131C73.0365 49.3894 73.0048 49.5511 72.9415 49.698C72.8805 49.845 72.7923 49.9738 72.677 50.0846C72.564 50.1931 72.4306 50.2779 72.2769 50.3389C72.1254 50.3977 71.9593 50.4271 71.7784 50.4271ZM71.7784 50.1253C71.9095 50.1253 72.0305 50.1027 72.1413 50.0575C72.2543 50.0122 72.3515 49.9489 72.4329 49.8676C72.5165 49.7839 72.5809 49.6867 72.6262 49.5759C72.6736 49.4652 72.6974 49.3442 72.6974 49.2131C72.6974 49.082 72.6736 48.9611 72.6262 48.8503C72.5809 48.7395 72.5165 48.6434 72.4329 48.5621C72.3515 48.4784 72.2543 48.414 72.1413 48.3688C72.0305 48.3236 71.9095 48.301 71.7784 48.301C71.6451 48.301 71.5219 48.3236 71.4088 48.3688C71.2981 48.414 71.2008 48.4784 71.1172 48.5621C71.0336 48.6434 70.968 48.7395 70.9205 48.8503C70.8753 48.9611 70.8527 49.082 70.8527 49.2131C70.8527 49.3442 70.8753 49.4652 70.9205 49.5759C70.968 49.6867 71.0336 49.7839 71.1172 49.8676C71.2008 49.9489 71.2981 50.0122 71.4088 50.0575C71.5219 50.1027 71.6451 50.1253 71.7784 50.1253ZM75.0758 51.0578V47.8839H75.3775V51.0578H75.0758ZM78.6714 50.4271C78.4906 50.4271 78.3233 50.3977 78.1696 50.3389C78.0181 50.2779 77.8859 50.1931 77.7728 50.0846C77.6621 49.9738 77.575 49.845 77.5117 49.698C77.4484 49.5511 77.4168 49.3894 77.4168 49.2131C77.4168 49.0368 77.4484 48.8752 77.5117 48.7282C77.575 48.5813 77.6632 48.4536 77.7762 48.345C77.8892 48.2343 78.0215 48.1495 78.1729 48.0907C78.3267 48.0297 78.494 47.9992 78.6748 47.9992C78.8579 47.9992 79.0263 48.0308 79.1801 48.0941C79.336 48.1551 79.4683 48.2467 79.5768 48.3688L79.3564 48.5824C79.266 48.4875 79.1642 48.4174 79.0512 48.3722C78.9382 48.3247 78.8172 48.301 78.6884 48.301C78.555 48.301 78.4307 48.3236 78.3154 48.3688C78.2023 48.414 78.104 48.4773 78.0204 48.5587C77.9367 48.6401 77.8712 48.7373 77.8237 48.8503C77.7785 48.9611 77.7559 49.082 77.7559 49.2131C77.7559 49.3442 77.7785 49.4663 77.8237 49.5793C77.8712 49.6901 77.9367 49.7862 78.0204 49.8676C78.104 49.9489 78.2023 50.0122 78.3154 50.0575C78.4307 50.1027 78.555 50.1253 78.6884 50.1253C78.8172 50.1253 78.9382 50.1027 79.0512 50.0575C79.1642 50.01 79.266 49.9376 79.3564 49.8404L79.5768 50.0541C79.4683 50.1761 79.336 50.2688 79.1801 50.3321C79.0263 50.3954 78.8568 50.4271 78.6714 50.4271ZM81.3876 50.4271C81.2067 50.4271 81.0383 50.3965 80.8823 50.3355C80.7286 50.2745 80.5952 50.1897 80.4822 50.0812C80.3692 49.9704 80.281 49.8416 80.2177 49.6946C80.1544 49.5477 80.1228 49.3872 80.1228 49.2131C80.1228 49.039 80.1544 48.8785 80.2177 48.7316C80.281 48.5847 80.3692 48.4569 80.4822 48.3484C80.5952 48.2377 80.7286 48.1518 80.8823 48.0907C81.036 48.0297 81.2045 47.9992 81.3876 47.9992C81.5684 47.9992 81.7346 48.0297 81.886 48.0907C82.0398 48.1495 82.1731 48.2343 82.2862 48.345C82.4014 48.4536 82.4896 48.5813 82.5506 48.7282C82.6139 48.8752 82.6456 49.0368 82.6456 49.2131C82.6456 49.3894 82.6139 49.5511 82.5506 49.698C82.4896 49.845 82.4014 49.9738 82.2862 50.0846C82.1731 50.1931 82.0398 50.2779 81.886 50.3389C81.7346 50.3977 81.5684 50.4271 81.3876 50.4271ZM81.3876 50.1253C81.5187 50.1253 81.6396 50.1027 81.7504 50.0575C81.8634 50.0122 81.9606 49.9489 82.042 49.8676C82.1257 49.7839 82.1901 49.6867 82.2353 49.5759C82.2828 49.4652 82.3065 49.3442 82.3065 49.2131C82.3065 49.082 82.2828 48.9611 82.2353 48.8503C82.1901 48.7395 82.1257 48.6434 82.042 48.5621C81.9606 48.4784 81.8634 48.414 81.7504 48.3688C81.6396 48.3236 81.5187 48.301 81.3876 48.301C81.2542 48.301 81.131 48.3236 81.018 48.3688C80.9072 48.414 80.81 48.4784 80.7263 48.5621C80.6427 48.6434 80.5771 48.7395 80.5297 48.8503C80.4845 48.9611 80.4618 49.082 80.4618 49.2131C80.4618 49.3442 80.4845 49.4652 80.5297 49.5759C80.5771 49.6867 80.6427 49.7839 80.7263 49.8676C80.81 49.9489 80.9072 50.0122 81.018 50.0575C81.131 50.1027 81.2542 50.1253 81.3876 50.1253ZM83.4691 50.3999V48.0263H83.8081V50.1049H85.0933V50.3999H83.4691ZM85.9208 50.4203C85.8575 50.4203 85.8032 50.3988 85.758 50.3559C85.7128 50.3106 85.6902 50.2541 85.6902 50.1863C85.6902 50.1185 85.7128 50.0631 85.758 50.0202C85.8032 49.9772 85.8575 49.9557 85.9208 49.9557C85.9818 49.9557 86.0338 49.9772 86.0767 50.0202C86.122 50.0631 86.1446 50.1185 86.1446 50.1863C86.1446 50.2541 86.122 50.3106 86.0767 50.3559C86.0338 50.3988 85.9818 50.4203 85.9208 50.4203ZM87.9489 50.3999V50.1694L88.9153 49.2369C89.0012 49.1555 89.0645 49.0843 89.1052 49.0232C89.1482 48.9599 89.1764 48.9023 89.19 48.8503C89.2058 48.796 89.2137 48.744 89.2137 48.6943C89.2137 48.5722 89.1708 48.4762 89.0849 48.4061C88.999 48.336 88.8735 48.301 88.7085 48.301C88.5819 48.301 88.4677 48.3224 88.366 48.3654C88.2643 48.4061 88.1761 48.4705 88.1015 48.5587L87.8709 48.3586C87.9614 48.2433 88.0823 48.1551 88.2338 48.0941C88.3875 48.0308 88.5559 47.9992 88.739 47.9992C88.904 47.9992 89.0476 48.0263 89.1696 48.0805C89.2917 48.1325 89.3855 48.2083 89.4511 48.3077C89.5189 48.4072 89.5528 48.5248 89.5528 48.6604C89.5528 48.7373 89.5426 48.813 89.5223 48.8876C89.502 48.9622 89.4635 49.0413 89.407 49.125C89.3505 49.2086 89.2691 49.3024 89.1629 49.4064L88.3016 50.2372L88.2202 50.1049H89.6545V50.3999H87.9489ZM90.2012 50.3999V50.1694L91.1676 49.2369C91.2535 49.1555 91.3168 49.0843 91.3575 49.0232C91.4005 48.9599 91.4287 48.9023 91.4423 48.8503C91.4581 48.796 91.466 48.744 91.466 48.6943C91.466 48.5722 91.4231 48.4762 91.3372 48.4061C91.2513 48.336 91.1258 48.301 90.9608 48.301C90.8342 48.301 90.72 48.3224 90.6183 48.3654C90.5166 48.4061 90.4284 48.4705 90.3538 48.5587L90.1232 48.3586C90.2137 48.2433 90.3346 48.1551 90.4861 48.0941C90.6398 48.0308 90.8082 47.9992 90.9913 47.9992C91.1563 47.9992 91.2999 48.0263 91.422 48.0805C91.544 48.1325 91.6378 48.2083 91.7034 48.3077C91.7712 48.4072 91.8051 48.5248 91.8051 48.6604C91.8051 48.7373 91.795 48.813 91.7746 48.8876C91.7543 48.9622 91.7158 49.0413 91.6593 49.125C91.6028 49.2086 91.5214 49.3024 91.4152 49.4064L90.5539 50.2372L90.4725 50.1049H91.9069V50.3999H90.2012ZM93.2572 50.4271C93.0899 50.4271 92.9271 50.4011 92.7689 50.3491C92.6129 50.2971 92.4852 50.227 92.3857 50.1388L92.5417 49.871C92.6208 49.9456 92.7237 50.0066 92.8503 50.0541C92.9769 50.1015 93.1114 50.1253 93.2538 50.1253C93.4346 50.1253 93.5737 50.0868 93.6709 50.01C93.7681 49.9331 93.8167 49.8303 93.8167 49.7014C93.8167 49.6132 93.7952 49.5364 93.7522 49.4708C93.7093 49.4053 93.6347 49.3555 93.5284 49.3216C93.4245 49.2855 93.2809 49.2674 93.0978 49.2674H92.5586L92.6841 48.0263H94.0235V48.3213H92.8096L92.9859 48.1551L92.8876 49.1351L92.7112 48.9724H93.169C93.4064 48.9724 93.5974 49.0029 93.7421 49.0639C93.8868 49.125 93.9919 49.2097 94.0574 49.3182C94.123 49.4245 94.1558 49.5477 94.1558 49.6878C94.1558 49.8235 94.123 49.9478 94.0574 50.0608C93.9919 50.1716 93.8924 50.2609 93.759 50.3287C93.6279 50.3943 93.4606 50.4271 93.2572 50.4271ZM95.9895 49.6099V49.3284H96.9016V49.6099H95.9895ZM97.7555 50.3999V48.0263H98.0946V50.1049H99.3798V50.3999H97.7555ZM100.207 50.4203C100.144 50.4203 100.09 50.3988 100.044 50.3559C99.9993 50.3106 99.9766 50.2541 99.9766 50.1863C99.9766 50.1185 99.9993 50.0631 100.044 50.0202C100.09 49.9772 100.144 49.9557 100.207 49.9557C100.268 49.9557 100.32 49.9772 100.363 50.0202C100.408 50.0631 100.431 50.1185 100.431 50.1863C100.431 50.2541 100.408 50.3106 100.363 50.3559C100.32 50.3988 100.268 50.4203 100.207 50.4203ZM102.673 50.3999V48.1619L102.819 48.3213H102.137V48.0263H103.009V50.3999H102.673ZM105.079 49.6099V49.3284H105.991V49.6099H105.079ZM108.366 49.1487H109.59V49.4403H108.366V49.1487ZM108.4 50.3999H108.061V48.0263H109.736V48.3213H108.4V50.3999ZM111.952 50.3999L112.959 48.1687L113.047 48.3213H111.636L111.806 48.1551V48.7452H111.48V48.0263H113.271V48.2569L112.311 50.3999H111.952ZM113.617 49.8167V49.5793L114.831 48.0263H115.197L113.994 49.5793L113.821 49.5251H115.716V49.8167H113.617ZM114.936 50.3999V49.8167L114.947 49.5251V49.0097H115.265V50.3999H114.936Z" fill="black"/>
<path d="M0.737985 50.3999V48.0263H1.01604L2.08079 49.8201H1.93159L2.98277 48.0263H3.26082L3.26421 50.3999H2.93869L2.93529 48.5383H3.01329L2.07739 50.1117H1.92141L0.978739 48.5383H1.06351V50.3999H0.737985ZM3.92231 50.3999L4.99723 48.0263H5.33293L6.41124 50.3999H6.0552L5.09557 48.2162H5.23121L4.27158 50.3999H3.92231ZM4.38009 49.8065L4.47164 49.5353H5.80766L5.906 49.8065H4.38009ZM7.07051 50.3999V48.0263H7.99623C8.2042 48.0263 8.38166 48.0591 8.5286 48.1246C8.67554 48.1902 8.78857 48.2851 8.86769 48.4095C8.94681 48.5338 8.98637 48.6819 8.98637 48.8537C8.98637 49.0255 8.94681 49.1736 8.86769 49.2979C8.78857 49.42 8.67554 49.5138 8.5286 49.5793C8.38166 49.6449 8.2042 49.6777 7.99623 49.6777H7.25701L7.4096 49.5217V50.3999H7.07051ZM8.65746 50.3999L8.05387 49.5386H8.4167L9.02707 50.3999H8.65746ZM7.4096 49.5556L7.25701 49.3894H7.98606C8.20307 49.3894 8.36697 49.3431 8.47774 49.2504C8.59077 49.1555 8.64728 49.0232 8.64728 48.8537C8.64728 48.6841 8.59077 48.553 8.47774 48.4603C8.36697 48.3676 8.20307 48.3213 7.98606 48.3213H7.25701L7.4096 48.1518V49.5556ZM10.2776 50.3999V48.3213H9.4638V48.0263H11.4271V48.3213H10.6133V50.3999H10.2776ZM12.1016 50.3999V48.0263H12.4407V50.3999H12.1016ZM13.4565 50.3999V48.0263H13.7956V50.1049H15.0808V50.3999H13.4565ZM15.7751 50.3999V48.0263H16.1142V50.1049H17.3993V50.3999H15.7751ZM18.4022 49.0504H19.6229V49.3386H18.4022V49.0504ZM18.4327 50.1049H19.8162V50.3999H18.0936V48.0263H19.7687V48.3213H18.4327V50.1049ZM20.6704 50.3999V48.0263H21.5962C21.8041 48.0263 21.9816 48.0591 22.1285 48.1246C22.2755 48.1902 22.3885 48.2851 22.4676 48.4095C22.5467 48.5338 22.5863 48.6819 22.5863 48.8537C22.5863 49.0255 22.5467 49.1736 22.4676 49.2979C22.3885 49.42 22.2755 49.5138 22.1285 49.5793C21.9816 49.6449 21.8041 49.6777 21.5962 49.6777H20.8569L21.0095 49.5217V50.3999H20.6704ZM22.2574 50.3999L21.6538 49.5386H22.0166L22.627 50.3999H22.2574ZM21.0095 49.5556L20.8569 49.3894H21.586C21.803 49.3894 21.9669 49.3431 22.0777 49.2504C22.1907 49.1555 22.2472 49.0232 22.2472 48.8537C22.2472 48.6841 22.1907 48.553 22.0777 48.4603C21.9669 48.3676 21.803 48.3213 21.586 48.3213H20.8569L21.0095 48.1518V49.5556ZM24.5109 50.4271C24.33 50.4271 24.1616 50.3965 24.0056 50.3355C23.8519 50.2745 23.7185 50.1897 23.6055 50.0812C23.4925 49.9704 23.4043 49.8416 23.341 49.6946C23.2777 49.5477 23.2461 49.3872 23.2461 49.2131C23.2461 49.039 23.2777 48.8785 23.341 48.7316C23.4043 48.5847 23.4925 48.4569 23.6055 48.3484C23.7185 48.2377 23.8519 48.1518 24.0056 48.0907C24.1593 48.0297 24.3278 47.9992 24.5109 47.9992C24.6917 47.9992 24.8579 48.0297 25.0093 48.0907C25.163 48.1495 25.2964 48.2343 25.4095 48.345C25.5247 48.4536 25.6129 48.5813 25.6739 48.7282C25.7372 48.8752 25.7689 49.0368 25.7689 49.2131C25.7689 49.3894 25.7372 49.5511 25.6739 49.698C25.6129 49.845 25.5247 49.9738 25.4095 50.0846C25.2964 50.1931 25.163 50.2779 25.0093 50.3389C24.8579 50.3977 24.6917 50.4271 24.5109 50.4271ZM24.5109 50.1253C24.642 50.1253 24.7629 50.1027 24.8737 50.0575C24.9867 50.0122 25.0839 49.9489 25.1653 49.8676C25.249 49.7839 25.3134 49.6867 25.3586 49.5759C25.4061 49.4652 25.4298 49.3442 25.4298 49.2131C25.4298 49.082 25.4061 48.9611 25.3586 48.8503C25.3134 48.7395 25.249 48.6434 25.1653 48.5621C25.0839 48.4784 24.9867 48.414 24.8737 48.3688C24.7629 48.3236 24.642 48.301 24.5109 48.301C24.3775 48.301 24.2543 48.3236 24.1413 48.3688C24.0305 48.414 23.9333 48.4784 23.8496 48.5621C23.766 48.6434 23.7004 48.7395 23.653 48.8503C23.6078 48.9611 23.5851 49.082 23.5851 49.2131C23.5851 49.3442 23.6078 49.4652 23.653 49.5759C23.7004 49.6867 23.766 49.7839 23.8496 49.8676C23.9333 49.9489 24.0305 50.0122 24.1413 50.0575C24.2543 50.1027 24.3775 50.1253 24.5109 50.1253ZM28.3812 50.3999V49.4912L28.4592 49.7014L27.4386 48.0263H27.8014L28.6593 49.4403H28.4626L29.3239 48.0263H29.6596L28.6423 49.7014L28.7169 49.4912V50.3999H28.3812ZM32.586 50.4271C32.4052 50.4271 32.2379 50.3977 32.0842 50.3389C31.9327 50.2779 31.8005 50.1931 31.6874 50.0846C31.5767 49.9738 31.4896 49.845 31.4263 49.698C31.363 49.5511 31.3314 49.3894 31.3314 49.2131C31.3314 49.0368 31.363 48.8752 31.4263 48.7282C31.4896 48.5813 31.5778 48.4536 31.6908 48.345C31.8039 48.2343 31.9361 48.1495 32.0876 48.0907C32.2413 48.0297 32.4086 47.9992 32.5894 47.9992C32.7725 47.9992 32.9409 48.0308 33.0947 48.0941C33.2506 48.1551 33.3829 48.2467 33.4914 48.3688L33.271 48.5824C33.1806 48.4875 33.0788 48.4174 32.9658 48.3722C32.8528 48.3247 32.7318 48.301 32.603 48.301C32.4696 48.301 32.3453 48.3236 32.23 48.3688C32.1169 48.414 32.0186 48.4773 31.935 48.5587C31.8513 48.6401 31.7858 48.7373 31.7383 48.8503C31.6931 48.9611 31.6705 49.082 31.6705 49.2131C31.6705 49.3442 31.6931 49.4663 31.7383 49.5793C31.7858 49.6901 31.8513 49.7862 31.935 49.8676C32.0186 49.9489 32.1169 50.0122 32.23 50.0575C32.3453 50.1027 32.4696 50.1253 32.603 50.1253C32.7318 50.1253 32.8528 50.1027 32.9658 50.0575C33.0788 50.01 33.1806 49.9376 33.271 49.8404L33.4914 50.0541C33.3829 50.1761 33.2506 50.2688 33.0947 50.3321C32.9409 50.3954 32.7714 50.4271 32.586 50.4271ZM35.3022 50.4271C35.1213 50.4271 34.9529 50.3965 34.7969 50.3355C34.6432 50.2745 34.5098 50.1897 34.3968 50.0812C34.2838 49.9704 34.1956 49.8416 34.1323 49.6946C34.069 49.5477 34.0374 49.3872 34.0374 49.2131C34.0374 49.039 34.069 48.8785 34.1323 48.7316C34.1956 48.5847 34.2838 48.4569 34.3968 48.3484C34.5098 48.2377 34.6432 48.1518 34.7969 48.0907C34.9506 48.0297 35.1191 47.9992 35.3022 47.9992C35.483 47.9992 35.6492 48.0297 35.8006 48.0907C35.9544 48.1495 36.0877 48.2343 36.2008 48.345C36.3161 48.4536 36.4042 48.5813 36.4653 48.7282C36.5286 48.8752 36.5602 49.0368 36.5602 49.2131C36.5602 49.3894 36.5286 49.5511 36.4653 49.698C36.4042 49.845 36.3161 49.9738 36.2008 50.0846C36.0877 50.1931 35.9544 50.2779 35.8006 50.3389C35.6492 50.3977 35.483 50.4271 35.3022 50.4271ZM35.3022 50.1253C35.4333 50.1253 35.5542 50.1027 35.665 50.0575C35.778 50.0122 35.8752 49.9489 35.9566 49.8676C36.0403 49.7839 36.1047 49.6867 36.1499 49.5759C36.1974 49.4652 36.2211 49.3442 36.2211 49.2131C36.2211 49.082 36.1974 48.9611 36.1499 48.8503C36.1047 48.7395 36.0403 48.6434 35.9566 48.5621C35.8752 48.4784 35.778 48.414 35.665 48.3688C35.5542 48.3236 35.4333 48.301 35.3022 48.301C35.1688 48.301 35.0456 48.3236 34.9326 48.3688C34.8218 48.414 34.7246 48.4784 34.6409 48.5621C34.5573 48.6434 34.4917 48.7395 34.4443 48.8503C34.3991 48.9611 34.3765 49.082 34.3765 49.2131C34.3765 49.3442 34.3991 49.4652 34.4443 49.5759C34.4917 49.6867 34.5573 49.7839 34.6409 49.8676C34.7246 49.9489 34.8218 50.0122 34.9326 50.0575C35.0456 50.1027 35.1688 50.1253 35.3022 50.1253ZM37.3837 50.3999V48.0263H38.3094C38.5174 48.0263 38.6948 48.0591 38.8418 48.1246C38.9887 48.1902 39.1017 48.2851 39.1808 48.4095C39.26 48.5338 39.2995 48.6819 39.2995 48.8537C39.2995 49.0255 39.26 49.1736 39.1808 49.2979C39.1017 49.42 38.9887 49.5138 38.8418 49.5793C38.6948 49.6449 38.5174 49.6777 38.3094 49.6777H37.5702L37.7228 49.5217V50.3999H37.3837ZM38.9706 50.3999L38.367 49.5386H38.7299L39.3402 50.3999H38.9706ZM37.7228 49.5556L37.5702 49.3894H38.2992C38.5162 49.3894 38.6801 49.3431 38.7909 49.2504C38.9039 49.1555 38.9604 49.0232 38.9604 48.8537C38.9604 48.6841 38.9039 48.553 38.7909 48.4603C38.6801 48.3676 38.5162 48.3213 38.2992 48.3213H37.5702L37.7228 48.1518V49.5556ZM40.1526 50.3999V48.0263H41.0783C41.2862 48.0263 41.4637 48.0591 41.6106 48.1246C41.7576 48.1902 41.8706 48.2851 41.9497 48.4095C42.0289 48.5338 42.0684 48.6819 42.0684 48.8537C42.0684 49.0255 42.0289 49.1736 41.9497 49.2979C41.8706 49.42 41.7576 49.5138 41.6106 49.5793C41.4637 49.6449 41.2862 49.6777 41.0783 49.6777H40.3391L40.4916 49.5217V50.3999H40.1526ZM41.7395 50.3999L41.1359 49.5386H41.4987L42.1091 50.3999H41.7395ZM40.4916 49.5556L40.3391 49.3894H41.0681C41.2851 49.3894 41.449 49.3431 41.5598 49.2504C41.6728 49.1555 41.7293 49.0232 41.7293 48.8537C41.7293 48.6841 41.6728 48.553 41.5598 48.4603C41.449 48.3676 41.2851 48.3213 41.0681 48.3213H40.3391L40.4916 48.1518V49.5556ZM43.23 49.0504H44.4507V49.3386H43.23V49.0504ZM43.2605 50.1049H44.644V50.3999H42.9214V48.0263H44.5966V48.3213H43.2605V50.1049ZM45.4983 50.3999V48.0263H46.4986C46.7518 48.0263 46.9744 48.076 47.1666 48.1755C47.361 48.275 47.5113 48.414 47.6176 48.5926C47.7261 48.7712 47.7804 48.978 47.7804 49.2131C47.7804 49.4482 47.7261 49.6551 47.6176 49.8337C47.5113 50.0122 47.361 50.1513 47.1666 50.2507C46.9744 50.3502 46.7518 50.3999 46.4986 50.3999H45.4983ZM45.8374 50.1049H46.4782C46.6749 50.1049 46.8445 50.0676 46.9869 49.993C47.1316 49.9184 47.2435 49.8144 47.3226 49.6811C47.4017 49.5454 47.4413 49.3894 47.4413 49.2131C47.4413 49.0345 47.4017 48.8785 47.3226 48.7452C47.2435 48.6118 47.1316 48.5078 46.9869 48.4332C46.8445 48.3586 46.6749 48.3213 46.4782 48.3213H45.8374V50.1049ZM49.6765 50.4271C49.4956 50.4271 49.3272 50.3965 49.1712 50.3355C49.0175 50.2745 48.8841 50.1897 48.7711 50.0812C48.6581 49.9704 48.5699 49.8416 48.5066 49.6946C48.4433 49.5477 48.4116 49.3872 48.4116 49.2131C48.4116 49.039 48.4433 48.8785 48.5066 48.7316C48.5699 48.5847 48.6581 48.4569 48.7711 48.3484C48.8841 48.2377 49.0175 48.1518 49.1712 48.0907C49.3249 48.0297 49.4933 47.9992 49.6765 47.9992C49.8573 47.9992 50.0235 48.0297 50.1749 48.0907C50.3286 48.1495 50.462 48.2343 50.575 48.345C50.6903 48.4536 50.7785 48.5813 50.8395 48.7282C50.9028 48.8752 50.9345 49.0368 50.9345 49.2131C50.9345 49.3894 50.9028 49.5511 50.8395 49.698C50.7785 49.845 50.6903 49.9738 50.575 50.0846C50.462 50.1931 50.3286 50.2779 50.1749 50.3389C50.0235 50.3977 49.8573 50.4271 49.6765 50.4271ZM49.6765 50.1253C49.8076 50.1253 49.9285 50.1027 50.0393 50.0575C50.1523 50.0122 50.2495 49.9489 50.3309 49.8676C50.4145 49.7839 50.479 49.6867 50.5242 49.5759C50.5717 49.4652 50.5954 49.3442 50.5954 49.2131C50.5954 49.082 50.5717 48.9611 50.5242 48.8503C50.479 48.7395 50.4145 48.6434 50.3309 48.5621C50.2495 48.4784 50.1523 48.414 50.0393 48.3688C49.9285 48.3236 49.8076 48.301 49.6765 48.301C49.5431 48.301 49.4199 48.3236 49.3068 48.3688C49.1961 48.414 49.0989 48.4784 49.0152 48.5621C48.9316 48.6434 48.866 48.7395 48.8186 48.8503C48.7733 48.9611 48.7507 49.082 48.7507 49.2131C48.7507 49.3442 48.7733 49.4652 48.8186 49.5759C48.866 49.6867 48.9316 49.7839 49.0152 49.8676C49.0989 49.9489 49.1961 50.0122 49.3068 50.0575C49.4199 50.1027 49.5431 50.1253 49.6765 50.1253ZM51.7579 50.3999V48.0263H52.6837C52.8916 48.0263 53.0691 48.0591 53.216 48.1246C53.363 48.1902 53.476 48.2851 53.5551 48.4095C53.6342 48.5338 53.6738 48.6819 53.6738 48.8537C53.6738 49.0255 53.6342 49.1736 53.5551 49.2979C53.476 49.42 53.363 49.5138 53.216 49.5793C53.0691 49.6449 52.8916 49.6777 52.6837 49.6777H51.9444L52.097 49.5217V50.3999H51.7579ZM53.3449 50.3999L52.7413 49.5386H53.1041L53.7145 50.3999H53.3449ZM52.097 49.5556L51.9444 49.3894H52.6735C52.8905 49.3894 53.0544 49.3431 53.1652 49.2504C53.2782 49.1555 53.3347 49.0232 53.3347 48.8537C53.3347 48.6841 53.2782 48.553 53.1652 48.4603C53.0544 48.3676 52.8905 48.3213 52.6735 48.3213H51.9444L52.097 48.1518V49.5556ZM55.7427 50.3999V48.0263H56.6684C56.8764 48.0263 57.0538 48.0591 57.2008 48.1246C57.3477 48.1902 57.4607 48.2851 57.5398 48.4095C57.619 48.5338 57.6585 48.6819 57.6585 48.8537C57.6585 49.0255 57.619 49.1736 57.5398 49.2979C57.4607 49.42 57.3477 49.5149 57.2008 49.5827C57.0538 49.6483 56.8764 49.6811 56.6684 49.6811H55.9292L56.0818 49.5217V50.3999H55.7427ZM56.0818 49.5556L55.9292 49.3861H56.6582C56.8752 49.3861 57.0391 49.3397 57.1499 49.247C57.2629 49.1543 57.3194 49.0232 57.3194 48.8537C57.3194 48.6841 57.2629 48.553 57.1499 48.4603C57.0391 48.3676 56.8752 48.3213 56.6582 48.3213H55.9292L56.0818 48.1518V49.5556ZM59.4519 50.4271C59.1399 50.4271 58.8946 50.3378 58.716 50.1592C58.5375 49.9806 58.4482 49.7195 58.4482 49.3759V48.0263H58.7872V49.3623C58.7872 49.6268 58.8449 49.8201 58.9602 49.9422C59.0777 50.0642 59.2428 50.1253 59.4553 50.1253C59.67 50.1253 59.835 50.0642 59.9503 49.9422C60.0679 49.8201 60.1267 49.6268 60.1267 49.3623V48.0263H60.4556V49.3759C60.4556 49.7195 60.3663 49.9806 60.1877 50.1592C60.0114 50.3378 59.7661 50.4271 59.4519 50.4271ZM59.2009 47.833L59.6621 47.3922H60.0758L59.5061 47.833H59.2009ZM61.4559 50.3999V48.0263H62.5207C62.7942 48.0263 63.0045 48.0817 63.1514 48.1924C63.2983 48.301 63.3718 48.4502 63.3718 48.6401C63.3718 48.7689 63.3424 48.8774 63.2836 48.9656C63.2271 49.0537 63.1503 49.1216 63.0531 49.169C62.9559 49.2165 62.8507 49.2402 62.7377 49.2402L62.7987 49.1385C62.9344 49.1385 63.0542 49.1623 63.1582 49.2097C63.2622 49.2572 63.3447 49.3273 63.4057 49.42C63.4668 49.5104 63.4973 49.6234 63.4973 49.7591C63.4973 49.9625 63.4204 50.1207 63.2667 50.2338C63.1152 50.3445 62.8892 50.3999 62.5885 50.3999H61.4559ZM61.795 50.1253H62.5749C62.7626 50.1253 62.9061 50.0936 63.0056 50.0303C63.1051 49.967 63.1548 49.8676 63.1548 49.7319C63.1548 49.594 63.1051 49.4934 63.0056 49.4301C62.9061 49.3668 62.7626 49.3352 62.5749 49.3352H61.7645V49.0605H62.4902C62.662 49.0605 62.7954 49.0289 62.8903 48.9656C62.9852 48.9023 63.0327 48.8073 63.0327 48.6807C63.0327 48.5541 62.9852 48.4592 62.8903 48.3959C62.7954 48.3326 62.662 48.301 62.4902 48.301H61.795V50.1253ZM64.3275 50.3999V48.0263H64.6666V50.1049H65.9517V50.3999H64.3275ZM66.646 50.3999V48.0263H66.9851V50.3999H66.646ZM69.0623 50.4271C68.8814 50.4271 68.7141 50.3977 68.5604 50.3389C68.409 50.2779 68.2767 50.1931 68.1637 50.0846C68.0529 49.9738 67.9659 49.845 67.9026 49.698C67.8393 49.5511 67.8076 49.3894 67.8076 49.2131C67.8076 49.0368 67.8393 48.8752 67.9026 48.7282C67.9659 48.5813 68.0541 48.4536 68.1671 48.345C68.2801 48.2343 68.4124 48.1495 68.5638 48.0907C68.7175 48.0297 68.8848 47.9992 69.0657 47.9992C69.2488 47.9992 69.4172 48.0308 69.5709 48.0941C69.7269 48.1551 69.8591 48.2467 69.9677 48.3688L69.7472 48.5824C69.6568 48.4875 69.5551 48.4174 69.4421 48.3722C69.329 48.3247 69.2081 48.301 69.0792 48.301C68.9459 48.301 68.8215 48.3236 68.7062 48.3688C68.5932 48.414 68.4949 48.4773 68.4112 48.5587C68.3276 48.6401 68.262 48.7373 68.2146 48.8503C68.1693 48.9611 68.1467 49.082 68.1467 49.2131C68.1467 49.3442 68.1693 49.4663 68.2146 49.5793C68.262 49.6901 68.3276 49.7862 68.4112 49.8676C68.4949 49.9489 68.5932 50.0122 68.7062 50.0575C68.8215 50.1027 68.9459 50.1253 69.0792 50.1253C69.2081 50.1253 69.329 50.1027 69.4421 50.0575C69.5551 50.01 69.6568 49.9376 69.7472 49.8404L69.9677 50.0541C69.8591 50.1761 69.7269 50.2688 69.5709 50.3321C69.4172 50.3954 69.2477 50.4271 69.0623 50.4271ZM71.7784 50.4271C71.5976 50.4271 71.4292 50.3965 71.2732 50.3355C71.1195 50.2745 70.9861 50.1897 70.8731 50.0812C70.76 49.9704 70.6719 49.8416 70.6086 49.6946C70.5453 49.5477 70.5136 49.3872 70.5136 49.2131C70.5136 49.039 70.5453 48.8785 70.6086 48.7316C70.6719 48.5847 70.76 48.4569 70.8731 48.3484C70.9861 48.2377 71.1195 48.1518 71.2732 48.0907C71.4269 48.0297 71.5953 47.9992 71.7784 47.9992C71.9593 47.9992 72.1254 48.0297 72.2769 48.0907C72.4306 48.1495 72.564 48.2343 72.677 48.345C72.7923 48.4536 72.8805 48.5813 72.9415 48.7282C73.0048 48.8752 73.0365 49.0368 73.0365 49.2131C73.0365 49.3894 73.0048 49.5511 72.9415 49.698C72.8805 49.845 72.7923 49.9738 72.677 50.0846C72.564 50.1931 72.4306 50.2779 72.2769 50.3389C72.1254 50.3977 71.9593 50.4271 71.7784 50.4271ZM71.7784 50.1253C71.9095 50.1253 72.0305 50.1027 72.1413 50.0575C72.2543 50.0122 72.3515 49.9489 72.4329 49.8676C72.5165 49.7839 72.5809 49.6867 72.6262 49.5759C72.6736 49.4652 72.6974 49.3442 72.6974 49.2131C72.6974 49.082 72.6736 48.9611 72.6262 48.8503C72.5809 48.7395 72.5165 48.6434 72.4329 48.5621C72.3515 48.4784 72.2543 48.414 72.1413 48.3688C72.0305 48.3236 71.9095 48.301 71.7784 48.301C71.6451 48.301 71.5219 48.3236 71.4088 48.3688C71.2981 48.414 71.2008 48.4784 71.1172 48.5621C71.0336 48.6434 70.968 48.7395 70.9205 48.8503C70.8753 48.9611 70.8527 49.082 70.8527 49.2131C70.8527 49.3442 70.8753 49.4652 70.9205 49.5759C70.968 49.6867 71.0336 49.7839 71.1172 49.8676C71.2008 49.9489 71.2981 50.0122 71.4088 50.0575C71.5219 50.1027 71.6451 50.1253 71.7784 50.1253ZM75.0758 51.0578V47.8839H75.3775V51.0578H75.0758ZM78.6714 50.4271C78.4906 50.4271 78.3233 50.3977 78.1696 50.3389C78.0181 50.2779 77.8859 50.1931 77.7728 50.0846C77.6621 49.9738 77.575 49.845 77.5117 49.698C77.4484 49.5511 77.4168 49.3894 77.4168 49.2131C77.4168 49.0368 77.4484 48.8752 77.5117 48.7282C77.575 48.5813 77.6632 48.4536 77.7762 48.345C77.8892 48.2343 78.0215 48.1495 78.1729 48.0907C78.3267 48.0297 78.494 47.9992 78.6748 47.9992C78.8579 47.9992 79.0263 48.0308 79.1801 48.0941C79.336 48.1551 79.4683 48.2467 79.5768 48.3688L79.3564 48.5824C79.266 48.4875 79.1642 48.4174 79.0512 48.3722C78.9382 48.3247 78.8172 48.301 78.6884 48.301C78.555 48.301 78.4307 48.3236 78.3154 48.3688C78.2023 48.414 78.104 48.4773 78.0204 48.5587C77.9367 48.6401 77.8712 48.7373 77.8237 48.8503C77.7785 48.9611 77.7559 49.082 77.7559 49.2131C77.7559 49.3442 77.7785 49.4663 77.8237 49.5793C77.8712 49.6901 77.9367 49.7862 78.0204 49.8676C78.104 49.9489 78.2023 50.0122 78.3154 50.0575C78.4307 50.1027 78.555 50.1253 78.6884 50.1253C78.8172 50.1253 78.9382 50.1027 79.0512 50.0575C79.1642 50.01 79.266 49.9376 79.3564 49.8404L79.5768 50.0541C79.4683 50.1761 79.336 50.2688 79.1801 50.3321C79.0263 50.3954 78.8568 50.4271 78.6714 50.4271ZM81.3876 50.4271C81.2067 50.4271 81.0383 50.3965 80.8823 50.3355C80.7286 50.2745 80.5952 50.1897 80.4822 50.0812C80.3692 49.9704 80.281 49.8416 80.2177 49.6946C80.1544 49.5477 80.1228 49.3872 80.1228 49.2131C80.1228 49.039 80.1544 48.8785 80.2177 48.7316C80.281 48.5847 80.3692 48.4569 80.4822 48.3484C80.5952 48.2377 80.7286 48.1518 80.8823 48.0907C81.036 48.0297 81.2045 47.9992 81.3876 47.9992C81.5684 47.9992 81.7346 48.0297 81.886 48.0907C82.0398 48.1495 82.1731 48.2343 82.2862 48.345C82.4014 48.4536 82.4896 48.5813 82.5506 48.7282C82.6139 48.8752 82.6456 49.0368 82.6456 49.2131C82.6456 49.3894 82.6139 49.5511 82.5506 49.698C82.4896 49.845 82.4014 49.9738 82.2862 50.0846C82.1731 50.1931 82.0398 50.2779 81.886 50.3389C81.7346 50.3977 81.5684 50.4271 81.3876 50.4271ZM81.3876 50.1253C81.5187 50.1253 81.6396 50.1027 81.7504 50.0575C81.8634 50.0122 81.9606 49.9489 82.042 49.8676C82.1257 49.7839 82.1901 49.6867 82.2353 49.5759C82.2828 49.4652 82.3065 49.3442 82.3065 49.2131C82.3065 49.082 82.2828 48.9611 82.2353 48.8503C82.1901 48.7395 82.1257 48.6434 82.042 48.5621C81.9606 48.4784 81.8634 48.414 81.7504 48.3688C81.6396 48.3236 81.5187 48.301 81.3876 48.301C81.2542 48.301 81.131 48.3236 81.018 48.3688C80.9072 48.414 80.81 48.4784 80.7263 48.5621C80.6427 48.6434 80.5771 48.7395 80.5297 48.8503C80.4845 48.9611 80.4618 49.082 80.4618 49.2131C80.4618 49.3442 80.4845 49.4652 80.5297 49.5759C80.5771 49.6867 80.6427 49.7839 80.7263 49.8676C80.81 49.9489 80.9072 50.0122 81.018 50.0575C81.131 50.1027 81.2542 50.1253 81.3876 50.1253ZM83.4691 50.3999V48.0263H83.8081V50.1049H85.0933V50.3999H83.4691ZM85.9208 50.4203C85.8575 50.4203 85.8032 50.3988 85.758 50.3559C85.7128 50.3106 85.6902 50.2541 85.6902 50.1863C85.6902 50.1185 85.7128 50.0631 85.758 50.0202C85.8032 49.9772 85.8575 49.9557 85.9208 49.9557C85.9818 49.9557 86.0338 49.9772 86.0767 50.0202C86.122 50.0631 86.1446 50.1185 86.1446 50.1863C86.1446 50.2541 86.122 50.3106 86.0767 50.3559C86.0338 50.3988 85.9818 50.4203 85.9208 50.4203ZM87.9489 50.3999V50.1694L88.9153 49.2369C89.0012 49.1555 89.0645 49.0843 89.1052 49.0232C89.1482 48.9599 89.1764 48.9023 89.19 48.8503C89.2058 48.796 89.2137 48.744 89.2137 48.6943C89.2137 48.5722 89.1708 48.4762 89.0849 48.4061C88.999 48.336 88.8735 48.301 88.7085 48.301C88.5819 48.301 88.4677 48.3224 88.366 48.3654C88.2643 48.4061 88.1761 48.4705 88.1015 48.5587L87.8709 48.3586C87.9614 48.2433 88.0823 48.1551 88.2338 48.0941C88.3875 48.0308 88.5559 47.9992 88.739 47.9992C88.904 47.9992 89.0476 48.0263 89.1696 48.0805C89.2917 48.1325 89.3855 48.2083 89.4511 48.3077C89.5189 48.4072 89.5528 48.5248 89.5528 48.6604C89.5528 48.7373 89.5426 48.813 89.5223 48.8876C89.502 48.9622 89.4635 49.0413 89.407 49.125C89.3505 49.2086 89.2691 49.3024 89.1629 49.4064L88.3016 50.2372L88.2202 50.1049H89.6545V50.3999H87.9489ZM90.2012 50.3999V50.1694L91.1676 49.2369C91.2535 49.1555 91.3168 49.0843 91.3575 49.0232C91.4005 48.9599 91.4287 48.9023 91.4423 48.8503C91.4581 48.796 91.466 48.744 91.466 48.6943C91.466 48.5722 91.4231 48.4762 91.3372 48.4061C91.2513 48.336 91.1258 48.301 90.9608 48.301C90.8342 48.301 90.72 48.3224 90.6183 48.3654C90.5166 48.4061 90.4284 48.4705 90.3538 48.5587L90.1232 48.3586C90.2137 48.2433 90.3346 48.1551 90.4861 48.0941C90.6398 48.0308 90.8082 47.9992 90.9913 47.9992C91.1563 47.9992 91.2999 48.0263 91.422 48.0805C91.544 48.1325 91.6378 48.2083 91.7034 48.3077C91.7712 48.4072 91.8051 48.5248 91.8051 48.6604C91.8051 48.7373 91.795 48.813 91.7746 48.8876C91.7543 48.9622 91.7158 49.0413 91.6593 49.125C91.6028 49.2086 91.5214 49.3024 91.4152 49.4064L90.5539 50.2372L90.4725 50.1049H91.9069V50.3999H90.2012ZM93.2572 50.4271C93.0899 50.4271 92.9271 50.4011 92.7689 50.3491C92.6129 50.2971 92.4852 50.227 92.3857 50.1388L92.5417 49.871C92.6208 49.9456 92.7237 50.0066 92.8503 50.0541C92.9769 50.1015 93.1114 50.1253 93.2538 50.1253C93.4346 50.1253 93.5737 50.0868 93.6709 50.01C93.7681 49.9331 93.8167 49.8303 93.8167 49.7014C93.8167 49.6132 93.7952 49.5364 93.7522 49.4708C93.7093 49.4053 93.6347 49.3555 93.5284 49.3216C93.4245 49.2855 93.2809 49.2674 93.0978 49.2674H92.5586L92.6841 48.0263H94.0235V48.3213H92.8096L92.9859 48.1551L92.8876 49.1351L92.7112 48.9724H93.169C93.4064 48.9724 93.5974 49.0029 93.7421 49.0639C93.8868 49.125 93.9919 49.2097 94.0574 49.3182C94.123 49.4245 94.1558 49.5477 94.1558 49.6878C94.1558 49.8235 94.123 49.9478 94.0574 50.0608C93.9919 50.1716 93.8924 50.2609 93.759 50.3287C93.6279 50.3943 93.4606 50.4271 93.2572 50.4271ZM95.9895 49.6099V49.3284H96.9016V49.6099H95.9895ZM97.7555 50.3999V48.0263H98.0946V50.1049H99.3798V50.3999H97.7555ZM100.207 50.4203C100.144 50.4203 100.09 50.3988 100.044 50.3559C99.9993 50.3106 99.9766 50.2541 99.9766 50.1863C99.9766 50.1185 99.9993 50.0631 100.044 50.0202C100.09 49.9772 100.144 49.9557 100.207 49.9557C100.268 49.9557 100.32 49.9772 100.363 50.0202C100.408 50.0631 100.431 50.1185 100.431 50.1863C100.431 50.2541 100.408 50.3106 100.363 50.3559C100.32 50.3988 100.268 50.4203 100.207 50.4203ZM102.673 50.3999V48.1619L102.819 48.3213H102.137V48.0263H103.009V50.3999H102.673ZM105.079 49.6099V49.3284H105.991V49.6099H105.079ZM108.366 49.1487H109.59V49.4403H108.366V49.1487ZM108.4 50.3999H108.061V48.0263H109.736V48.3213H108.4V50.3999ZM111.952 50.3999L112.959 48.1687L113.047 48.3213H111.636L111.806 48.1551V48.7452H111.48V48.0263H113.271V48.2569L112.311 50.3999H111.952ZM113.617 49.8167V49.5793L114.831 48.0263H115.197L113.994 49.5793L113.821 49.5251H115.716V49.8167H113.617ZM114.936 50.3999V49.8167L114.947 49.5251V49.0097H115.265V50.3999H114.936Z" fill="#0D735A"/>
<defs>
<linearGradient id="paint0_linear_596_17499" x1="82.797" y1="7.30767" x2="71.6999" y2="34.9753" gradientUnits="userSpaceOnUse">
<stop offset="0.65" stop-color="#0D735A"/>
<stop offset="1" stop-color="#252720"/>
</linearGradient>
<linearGradient id="paint1_linear_596_17499" x1="51.5173" y1="-3.24571" x2="33.62" y2="37.5957" gradientUnits="userSpaceOnUse">
<stop offset="0.65" stop-color="#0D735A"/>
<stop offset="1" stop-color="#252720"/>
</linearGradient>
<linearGradient id="paint2_linear_596_17499" x1="63.8695" y1="-1.92138" x2="46.8348" y2="37.2821" gradientUnits="userSpaceOnUse">
<stop offset="0.65" stop-color="#0D735A"/>
<stop offset="1" stop-color="#252720"/>
</linearGradient>
</defs>
</svg>
