<svg width="169" height="64" viewBox="0 0 169 64" fill="none" xmlns="http://www.w3.org/2000/svg">
<path d="M33.1776 48.2444L32.5681 49.6767H31.5256C32.3742 47.6851 33.2221 45.6929 34.0692 43.7H35.1117L37.6553 49.6767H36.6128L36.0033 48.2444H33.1776ZM33.5911 47.2731H35.5898L34.5883 44.9211C34.2566 45.7008 33.9242 46.4848 33.5911 47.2731Z" fill="black"/>
<path d="M33.1776 48.2444L32.5681 49.6767H31.5256C32.3742 47.6851 33.2221 45.6929 34.0692 43.7H35.1117L37.6553 49.6767H36.6128L36.0033 48.2444H33.1776ZM33.5911 47.2731H35.5898L34.5883 44.9211C34.2566 45.7008 33.9242 46.4848 33.5911 47.2731Z" fill="#0D735A"/>
<path d="M37.6552 49.7198H36.6128C36.6045 49.7197 36.5965 49.7172 36.5896 49.7126C36.5827 49.708 36.5773 49.7015 36.574 49.694L35.9752 48.2876H33.2055L32.6068 49.694C32.6034 49.7015 32.598 49.708 32.5912 49.7126C32.5843 49.7172 32.5762 49.7197 32.568 49.7198H31.5256C31.5186 49.7198 31.5119 49.718 31.5058 49.7146C31.4998 49.7112 31.4947 49.7063 31.4911 49.7004C31.4879 49.6941 31.4862 49.6871 31.4862 49.68C31.4862 49.6729 31.4879 49.6659 31.4911 49.6595L32.4 47.5273L34.0347 43.685C34.0375 43.677 34.0428 43.6702 34.0498 43.6656C34.0568 43.6609 34.0651 43.6586 34.0735 43.6591H35.1159C35.1243 43.6586 35.1326 43.6609 35.1396 43.6656C35.1466 43.6702 35.1519 43.677 35.1547 43.685L37.6983 49.6595C37.7015 49.6659 37.7032 49.6729 37.7032 49.68C37.7032 49.6871 37.7015 49.6941 37.6983 49.7004C37.694 49.7077 37.6875 49.7135 37.6798 49.717C37.6721 49.7204 37.6635 49.7214 37.6552 49.7198ZM36.6408 49.6337H37.5906L35.0836 43.7431H34.0972L32.4754 47.5596L31.5988 49.6337H32.5486L33.1452 48.2273C33.1491 48.2197 33.1549 48.2133 33.1621 48.2087C33.1693 48.2042 33.1776 48.2016 33.1861 48.2014H36.0119C36.0204 48.2016 36.0287 48.2042 36.0359 48.2087C36.0431 48.2133 36.0489 48.2197 36.0528 48.2273L36.6408 49.6337ZM35.5897 47.3162H33.591C33.5839 47.316 33.5768 47.3141 33.5705 47.3107C33.5641 47.3074 33.5586 47.3026 33.5544 47.2968C33.5508 47.2906 33.5489 47.2836 33.5489 47.2764C33.5489 47.2692 33.5508 47.2621 33.5544 47.2559L34.3621 45.3541L34.5516 44.904C34.5555 44.8968 34.5612 44.8908 34.5682 44.8866C34.5753 44.8824 34.5833 44.8802 34.5915 44.8802C34.5996 44.8802 34.6076 44.8824 34.6147 44.8866C34.6217 44.8908 34.6274 44.8968 34.6313 44.904L35.6328 47.2559C35.636 47.2623 35.6377 47.2693 35.6377 47.2764C35.6377 47.2835 35.636 47.2905 35.6328 47.2968C35.6279 47.3036 35.6214 47.3089 35.6138 47.3123C35.6063 47.3157 35.598 47.317 35.5897 47.3162ZM33.6513 47.2301H35.5208L34.5839 45.0289L34.4331 45.3864L33.6513 47.2301Z" fill="black"/>
<path d="M37.6552 49.7198H36.6128C36.6045 49.7197 36.5965 49.7172 36.5896 49.7126C36.5827 49.708 36.5773 49.7015 36.574 49.694L35.9752 48.2876H33.2055L32.6068 49.694C32.6034 49.7015 32.598 49.708 32.5912 49.7126C32.5843 49.7172 32.5762 49.7197 32.568 49.7198H31.5256C31.5186 49.7198 31.5119 49.718 31.5058 49.7146C31.4998 49.7112 31.4947 49.7063 31.4911 49.7004C31.4879 49.6941 31.4862 49.6871 31.4862 49.68C31.4862 49.6729 31.4879 49.6659 31.4911 49.6595L32.4 47.5273L34.0347 43.685C34.0375 43.677 34.0428 43.6702 34.0498 43.6656C34.0568 43.6609 34.0651 43.6586 34.0735 43.6591H35.1159C35.1243 43.6586 35.1326 43.6609 35.1396 43.6656C35.1466 43.6702 35.1519 43.677 35.1547 43.685L37.6983 49.6595C37.7015 49.6659 37.7032 49.6729 37.7032 49.68C37.7032 49.6871 37.7015 49.6941 37.6983 49.7004C37.694 49.7077 37.6875 49.7135 37.6798 49.717C37.6721 49.7204 37.6635 49.7214 37.6552 49.7198ZM36.6408 49.6337H37.5906L35.0836 43.7431H34.0972L32.4754 47.5596L31.5988 49.6337H32.5486L33.1452 48.2273C33.1491 48.2197 33.1549 48.2133 33.1621 48.2087C33.1693 48.2042 33.1776 48.2016 33.1861 48.2014H36.0119C36.0204 48.2016 36.0287 48.2042 36.0359 48.2087C36.0431 48.2133 36.0489 48.2197 36.0528 48.2273L36.6408 49.6337ZM35.5897 47.3162H33.591C33.5839 47.316 33.5768 47.3141 33.5705 47.3107C33.5641 47.3074 33.5586 47.3026 33.5544 47.2968C33.5508 47.2906 33.5489 47.2836 33.5489 47.2764C33.5489 47.2692 33.5508 47.2621 33.5544 47.2559L34.3621 45.3541L34.5516 44.904C34.5555 44.8968 34.5612 44.8908 34.5682 44.8866C34.5753 44.8824 34.5833 44.8802 34.5915 44.8802C34.5996 44.8802 34.6076 44.8824 34.6147 44.8866C34.6217 44.8908 34.6274 44.8968 34.6313 44.904L35.6328 47.2559C35.636 47.2623 35.6377 47.2693 35.6377 47.2764C35.6377 47.2835 35.636 47.2905 35.6328 47.2968C35.6279 47.3036 35.6214 47.3089 35.6138 47.3123C35.6063 47.3157 35.598 47.317 35.5897 47.3162ZM33.6513 47.2301H35.5208L34.5839 45.0289L34.4331 45.3864L33.6513 47.2301Z" fill="#0D735A"/>
<path d="M38.7644 43.7H40.2893L42.7489 48.701V43.7H43.6944V49.6767H42.1738L39.7121 44.6735V49.6745H38.7644V43.7Z" fill="black"/>
<path d="M38.7644 43.7H40.2893L42.7489 48.701V43.7H43.6944V49.6767H42.1738L39.7121 44.6735V49.6745H38.7644V43.7Z" fill="#0D735A"/>
<path d="M43.6943 49.7198H42.1738C42.1657 49.7201 42.1577 49.7181 42.1508 49.7139C42.1439 49.7096 42.1384 49.7035 42.135 49.6961L39.7658 44.8566V49.6767C39.7658 49.6882 39.7613 49.6991 39.7532 49.7072C39.7452 49.7153 39.7342 49.7198 39.7228 49.7198H38.7751C38.7696 49.7198 38.7641 49.7187 38.7589 49.7165C38.7538 49.7143 38.7492 49.7111 38.7454 49.7071C38.7416 49.7031 38.7386 49.6983 38.7367 49.6931C38.7347 49.6879 38.7339 49.6823 38.7342 49.6767V43.7C38.7339 43.6946 38.7347 43.6891 38.7367 43.684C38.7386 43.6789 38.7416 43.6743 38.7455 43.6704C38.7493 43.6665 38.754 43.6635 38.7591 43.6616C38.7642 43.6597 38.7697 43.6588 38.7751 43.6591H40.3C40.308 43.6593 40.3158 43.6616 40.3226 43.6657C40.3294 43.6699 40.335 43.6758 40.3388 43.6828L42.7079 48.518V43.7C42.7079 43.6945 42.709 43.689 42.7112 43.6839C42.7134 43.6788 42.7166 43.6741 42.7206 43.6703C42.7247 43.6665 42.7294 43.6635 42.7346 43.6616C42.7399 43.6597 42.7454 43.6588 42.751 43.6591H43.6965C43.702 43.6588 43.7076 43.6597 43.7128 43.6616C43.718 43.6635 43.7228 43.6665 43.7268 43.6703C43.7308 43.6741 43.7341 43.6788 43.7362 43.6839C43.7384 43.689 43.7396 43.6945 43.7395 43.7V49.6767C43.7396 49.6826 43.7384 49.6884 43.7361 49.6937C43.7338 49.6991 43.7304 49.704 43.7262 49.708C43.722 49.712 43.7169 49.7151 43.7115 49.7172C43.706 49.7192 43.7002 49.7201 43.6943 49.7198ZM42.1996 49.6337H43.6599V43.7431H42.7984V48.6968C42.7981 48.7065 42.7945 48.7158 42.7882 48.7232C42.782 48.7307 42.7734 48.7358 42.7639 48.7377C42.7547 48.7406 42.7448 48.7401 42.7361 48.7361C42.7273 48.7321 42.7203 48.725 42.7165 48.7162L40.2612 43.7431H38.8074V49.6337H39.6689V44.68C39.6687 44.6699 39.6721 44.6601 39.6784 44.6522C39.6847 44.6444 39.6935 44.6389 39.7034 44.6369C39.7126 44.6349 39.7221 44.6358 39.7307 44.6397C39.7393 44.6436 39.7463 44.6502 39.7508 44.6585L42.1996 49.6337Z" fill="black"/>
<path d="M43.6943 49.7198H42.1738C42.1657 49.7201 42.1577 49.7181 42.1508 49.7139C42.1439 49.7096 42.1384 49.7035 42.135 49.6961L39.7658 44.8566V49.6767C39.7658 49.6882 39.7613 49.6991 39.7532 49.7072C39.7452 49.7153 39.7342 49.7198 39.7228 49.7198H38.7751C38.7696 49.7198 38.7641 49.7187 38.7589 49.7165C38.7538 49.7143 38.7492 49.7111 38.7454 49.7071C38.7416 49.7031 38.7386 49.6983 38.7367 49.6931C38.7347 49.6879 38.7339 49.6823 38.7342 49.6767V43.7C38.7339 43.6946 38.7347 43.6891 38.7367 43.684C38.7386 43.6789 38.7416 43.6743 38.7455 43.6704C38.7493 43.6665 38.754 43.6635 38.7591 43.6616C38.7642 43.6597 38.7697 43.6588 38.7751 43.6591H40.3C40.308 43.6593 40.3158 43.6616 40.3226 43.6657C40.3294 43.6699 40.335 43.6758 40.3388 43.6828L42.7079 48.518V43.7C42.7079 43.6945 42.709 43.689 42.7112 43.6839C42.7134 43.6788 42.7166 43.6741 42.7206 43.6703C42.7247 43.6665 42.7294 43.6635 42.7346 43.6616C42.7399 43.6597 42.7454 43.6588 42.751 43.6591H43.6965C43.702 43.6588 43.7076 43.6597 43.7128 43.6616C43.718 43.6635 43.7228 43.6665 43.7268 43.6703C43.7308 43.6741 43.7341 43.6788 43.7362 43.6839C43.7384 43.689 43.7396 43.6945 43.7395 43.7V49.6767C43.7396 49.6826 43.7384 49.6884 43.7361 49.6937C43.7338 49.6991 43.7304 49.704 43.7262 49.708C43.722 49.712 43.7169 49.7151 43.7115 49.7172C43.706 49.7192 43.7002 49.7201 43.6943 49.7198ZM42.1996 49.6337H43.6599V43.7431H42.7984V48.6968C42.7981 48.7065 42.7945 48.7158 42.7882 48.7232C42.782 48.7307 42.7734 48.7358 42.7639 48.7377C42.7547 48.7406 42.7448 48.7401 42.7361 48.7361C42.7273 48.7321 42.7203 48.725 42.7165 48.7162L40.2612 43.7431H38.8074V49.6337H39.6689V44.68C39.6687 44.6699 39.6721 44.6601 39.6784 44.6522C39.6847 44.6444 39.6935 44.6389 39.7034 44.6369C39.7126 44.6349 39.7221 44.6358 39.7307 44.6397C39.7393 44.6436 39.7463 44.6502 39.7508 44.6585L42.1996 49.6337Z" fill="#0D735A"/>
<path d="M44.8014 49.6767V43.7H45.7469V49.6767H44.8014Z" fill="black"/>
<path d="M44.8014 49.6767V43.7H45.7469V49.6767H44.8014Z" fill="#0D735A"/>
<path d="M45.7469 49.7198H44.8014C44.79 49.7198 44.779 49.7153 44.7709 49.7072C44.7628 49.6991 44.7583 49.6882 44.7583 49.6767V43.7C44.7583 43.6945 44.7594 43.689 44.7616 43.6839C44.7638 43.6788 44.767 43.6741 44.771 43.6703C44.7751 43.6665 44.7798 43.6635 44.7851 43.6616C44.7903 43.6597 44.7958 43.6588 44.8014 43.6591H45.7469C45.7524 43.6588 45.758 43.6597 45.7632 43.6616C45.7684 43.6635 45.7732 43.6665 45.7772 43.6703C45.7812 43.6741 45.7845 43.6788 45.7866 43.6839C45.7888 43.689 45.79 43.6945 45.79 43.7V49.6767C45.79 49.6882 45.7854 49.6991 45.7773 49.7072C45.7693 49.7153 45.7583 49.7198 45.7469 49.7198ZM44.8445 49.6337H45.706V43.7431H44.8445V49.6337Z" fill="black"/>
<path d="M45.7469 49.7198H44.8014C44.79 49.7198 44.779 49.7153 44.7709 49.7072C44.7628 49.6991 44.7583 49.6882 44.7583 49.6767V43.7C44.7583 43.6945 44.7594 43.689 44.7616 43.6839C44.7638 43.6788 44.767 43.6741 44.771 43.6703C44.7751 43.6665 44.7798 43.6635 44.7851 43.6616C44.7903 43.6597 44.7958 43.6588 44.8014 43.6591H45.7469C45.7524 43.6588 45.758 43.6597 45.7632 43.6616C45.7684 43.6635 45.7732 43.6665 45.7772 43.6703C45.7812 43.6741 45.7845 43.6788 45.7866 43.6839C45.7888 43.689 45.79 43.6945 45.79 43.7V49.6767C45.79 49.6882 45.7854 49.6991 45.7773 49.7072C45.7693 49.7153 45.7583 49.7198 45.7469 49.7198ZM44.8445 49.6337H45.706V43.7431H44.8445V49.6337Z" fill="#0D735A"/>
<path d="M46.8583 43.6999H49.8563C50.2046 43.6962 50.5458 43.7981 50.835 43.9922C51.1242 44.1862 51.3478 44.4634 51.4763 44.7871C51.6048 45.1108 51.6322 45.4659 51.5548 45.8055C51.4775 46.145 51.2991 46.4532 51.043 46.6894C51.2151 46.8506 51.3522 47.0454 51.446 47.2617C51.5397 47.4781 51.588 47.7114 51.5879 47.9472C51.5846 48.4031 51.402 48.8394 51.0796 49.1618C50.7572 49.4842 50.3209 49.6668 49.8649 49.6702H46.8583V43.6999ZM47.8059 46.2155H49.8671C50.075 46.2155 50.2744 46.1329 50.4214 45.9859C50.5685 45.8389 50.6511 45.6395 50.6511 45.4316C50.6511 45.2236 50.5685 45.0242 50.4214 44.8772C50.2744 44.7302 50.075 44.6476 49.8671 44.6476H47.8059V46.2155ZM49.8671 48.729C50.0676 48.7185 50.2565 48.6314 50.3947 48.4857C50.5329 48.3401 50.61 48.1469 50.61 47.9461C50.61 47.7453 50.5329 47.5521 50.3947 47.4065C50.2565 47.2608 50.0676 47.1737 49.8671 47.1632H47.8059V48.729H49.8671Z" fill="black"/>
<path d="M46.8583 43.6999H49.8563C50.2046 43.6962 50.5458 43.7981 50.835 43.9922C51.1242 44.1862 51.3478 44.4634 51.4763 44.7871C51.6048 45.1108 51.6322 45.4659 51.5548 45.8055C51.4775 46.145 51.2991 46.4532 51.043 46.6894C51.2151 46.8506 51.3522 47.0454 51.446 47.2617C51.5397 47.4781 51.588 47.7114 51.5879 47.9472C51.5846 48.4031 51.402 48.8394 51.0796 49.1618C50.7572 49.4842 50.3209 49.6668 49.8649 49.6702H46.8583V43.6999ZM47.8059 46.2155H49.8671C50.075 46.2155 50.2744 46.1329 50.4214 45.9859C50.5685 45.8389 50.6511 45.6395 50.6511 45.4316C50.6511 45.2236 50.5685 45.0242 50.4214 44.8772C50.2744 44.7302 50.075 44.6476 49.8671 44.6476H47.8059V46.2155ZM49.8671 48.729C50.0676 48.7185 50.2565 48.6314 50.3947 48.4857C50.5329 48.3401 50.61 48.1469 50.61 47.9461C50.61 47.7453 50.5329 47.5521 50.3947 47.4065C50.2565 47.2608 50.0676 47.1737 49.8671 47.1632H47.8059V48.729H49.8671Z" fill="#0D735A"/>
<path d="M49.8563 49.7198H46.8583C46.8468 49.7198 46.8359 49.7153 46.8278 49.7072C46.8197 49.6991 46.8152 49.6882 46.8152 49.6767V43.7C46.8152 43.6945 46.8163 43.689 46.8185 43.6839C46.8207 43.6788 46.8239 43.6741 46.8279 43.6703C46.832 43.6665 46.8367 43.6635 46.8419 43.6616C46.8472 43.6597 46.8527 43.6588 46.8583 43.6591H49.8563C50.2079 43.658 50.5519 43.7616 50.8443 43.9568C51.1368 44.1519 51.3646 44.4297 51.4986 44.7548C51.6326 45.0798 51.6667 45.4374 51.5967 45.782C51.5267 46.1266 51.3557 46.4425 51.1055 46.6895C51.3557 46.9365 51.5267 47.2524 51.5967 47.5969C51.6667 47.9415 51.6326 48.2991 51.4986 48.6241C51.3646 48.9492 51.1368 49.227 50.8443 49.4221C50.5519 49.6173 50.2079 49.7209 49.8563 49.7198ZM46.9013 49.6337H49.8563C50.1944 49.6342 50.5248 49.5331 50.8047 49.3435C51.0845 49.1539 51.301 48.8845 51.4259 48.5704C51.5508 48.2563 51.5784 47.9118 51.5051 47.5818C51.4319 47.2518 51.2611 46.9514 51.015 46.7196C51.0063 46.7119 51.0009 46.7011 51 46.6895C51.0002 46.6833 51.0016 46.6773 51.0042 46.6718C51.0068 46.6662 51.0105 46.6612 51.015 46.6572C51.2611 46.4254 51.4319 46.125 51.5051 45.795C51.5784 45.4649 51.5508 45.1205 51.4259 44.8064C51.301 44.4923 51.0845 44.2229 50.8047 44.0333C50.5248 43.8437 50.1944 43.7426 49.8563 43.7431H46.9013V49.6337ZM49.8671 48.7722H47.8059C47.7945 48.7722 47.7835 48.7676 47.7755 48.7595C47.7674 48.7515 47.7628 48.7405 47.7628 48.7291V47.1676C47.7628 47.1562 47.7674 47.1452 47.7755 47.1371C47.7835 47.1291 47.7945 47.1245 47.8059 47.1245H49.8671C50.0788 47.1353 50.2784 47.2271 50.4244 47.3808C50.5705 47.5345 50.6519 47.7385 50.6519 47.9505C50.6519 48.1625 50.5705 48.3665 50.4244 48.5202C50.2784 48.6739 50.0788 48.7656 49.8671 48.7765V48.7722ZM47.8468 48.6882H49.8671C50.0569 48.6779 50.2357 48.5953 50.3665 48.4573C50.4972 48.3192 50.5701 48.1363 50.5701 47.9462C50.5701 47.756 50.4972 47.5731 50.3665 47.4351C50.2357 47.2971 50.0569 47.2144 49.8671 47.2042H47.8468V48.6882ZM49.8671 46.2587H47.8059C47.7945 46.2587 47.7835 46.2542 47.7755 46.2461C47.7674 46.238 47.7628 46.2271 47.7628 46.2156V44.6477C47.7628 44.6363 47.7674 44.6253 47.7755 44.6172C47.7835 44.6092 47.7945 44.6046 47.8059 44.6046H49.8671C50.0864 44.6046 50.2968 44.6918 50.4519 44.8469C50.607 45.002 50.6941 45.2123 50.6941 45.4317C50.6941 45.651 50.607 45.8614 50.4519 46.0165C50.2968 46.1716 50.0864 46.2587 49.8671 46.2587ZM47.8468 46.1726H49.8671C50.0636 46.1726 50.252 46.0945 50.391 45.9556C50.5299 45.8166 50.608 45.6282 50.608 45.4317C50.608 45.2352 50.5299 45.0467 50.391 44.9078C50.252 44.7688 50.0636 44.6908 49.8671 44.6908H47.8468V46.1726Z" fill="black"/>
<path d="M49.8563 49.7198H46.8583C46.8468 49.7198 46.8359 49.7153 46.8278 49.7072C46.8197 49.6991 46.8152 49.6882 46.8152 49.6767V43.7C46.8152 43.6945 46.8163 43.689 46.8185 43.6839C46.8207 43.6788 46.8239 43.6741 46.8279 43.6703C46.832 43.6665 46.8367 43.6635 46.8419 43.6616C46.8472 43.6597 46.8527 43.6588 46.8583 43.6591H49.8563C50.2079 43.658 50.5519 43.7616 50.8443 43.9568C51.1368 44.1519 51.3646 44.4297 51.4986 44.7548C51.6326 45.0798 51.6667 45.4374 51.5967 45.782C51.5267 46.1266 51.3557 46.4425 51.1055 46.6895C51.3557 46.9365 51.5267 47.2524 51.5967 47.5969C51.6667 47.9415 51.6326 48.2991 51.4986 48.6241C51.3646 48.9492 51.1368 49.227 50.8443 49.4221C50.5519 49.6173 50.2079 49.7209 49.8563 49.7198ZM46.9013 49.6337H49.8563C50.1944 49.6342 50.5248 49.5331 50.8047 49.3435C51.0845 49.1539 51.301 48.8845 51.4259 48.5704C51.5508 48.2563 51.5784 47.9118 51.5051 47.5818C51.4319 47.2518 51.2611 46.9514 51.015 46.7196C51.0063 46.7119 51.0009 46.7011 51 46.6895C51.0002 46.6833 51.0016 46.6773 51.0042 46.6718C51.0068 46.6662 51.0105 46.6612 51.015 46.6572C51.2611 46.4254 51.4319 46.125 51.5051 45.795C51.5784 45.4649 51.5508 45.1205 51.4259 44.8064C51.301 44.4923 51.0845 44.2229 50.8047 44.0333C50.5248 43.8437 50.1944 43.7426 49.8563 43.7431H46.9013V49.6337ZM49.8671 48.7722H47.8059C47.7945 48.7722 47.7835 48.7676 47.7755 48.7595C47.7674 48.7515 47.7628 48.7405 47.7628 48.7291V47.1676C47.7628 47.1562 47.7674 47.1452 47.7755 47.1371C47.7835 47.1291 47.7945 47.1245 47.8059 47.1245H49.8671C50.0788 47.1353 50.2784 47.2271 50.4244 47.3808C50.5705 47.5345 50.6519 47.7385 50.6519 47.9505C50.6519 48.1625 50.5705 48.3665 50.4244 48.5202C50.2784 48.6739 50.0788 48.7656 49.8671 48.7765V48.7722ZM47.8468 48.6882H49.8671C50.0569 48.6779 50.2357 48.5953 50.3665 48.4573C50.4972 48.3192 50.5701 48.1363 50.5701 47.9462C50.5701 47.756 50.4972 47.5731 50.3665 47.4351C50.2357 47.2971 50.0569 47.2144 49.8671 47.2042H47.8468V48.6882ZM49.8671 46.2587H47.8059C47.7945 46.2587 47.7835 46.2542 47.7755 46.2461C47.7674 46.238 47.7628 46.2271 47.7628 46.2156V44.6477C47.7628 44.6363 47.7674 44.6253 47.7755 44.6172C47.7835 44.6092 47.7945 44.6046 47.8059 44.6046H49.8671C50.0864 44.6046 50.2968 44.6918 50.4519 44.8469C50.607 45.002 50.6941 45.2123 50.6941 45.4317C50.6941 45.651 50.607 45.8614 50.4519 46.0165C50.2968 46.1716 50.0864 46.2587 49.8671 46.2587ZM47.8468 46.1726H49.8671C50.0636 46.1726 50.252 46.0945 50.391 45.9556C50.5299 45.8166 50.608 45.6282 50.608 45.4317C50.608 45.2352 50.5299 45.0467 50.391 44.9078C50.252 44.7688 50.0636 44.6908 49.8671 44.6908H47.8468V46.1726Z" fill="#0D735A"/>
<path d="M53.9722 48.2444L53.3627 49.6767H52.3224C53.1681 47.6851 54.016 45.6929 54.866 43.7H55.9063L58.4499 49.6767H57.4074L56.7979 48.2444H53.9722ZM54.3857 47.2731H56.3844L55.385 44.9211L54.3857 47.2731Z" fill="black"/>
<path d="M53.9722 48.2444L53.3627 49.6767H52.3224C53.1681 47.6851 54.016 45.6929 54.866 43.7H55.9063L58.4499 49.6767H57.4074L56.7979 48.2444H53.9722ZM54.3857 47.2731H56.3844L55.385 44.9211L54.3857 47.2731Z" fill="#0D735A"/>
<path d="M58.4498 49.7198H57.4074C57.3992 49.7194 57.3913 49.7168 57.3844 49.7123C57.3776 49.7077 57.3721 49.7014 57.3686 49.694L56.7699 48.2876H53.998L53.3992 49.694C53.3959 49.7015 53.3905 49.708 53.3836 49.7126C53.3768 49.7172 53.3687 49.7197 53.3605 49.7198H52.3202C52.313 49.7199 52.3058 49.7182 52.2994 49.7148C52.293 49.7114 52.2876 49.7065 52.2836 49.7004C52.2804 49.6941 52.2787 49.6871 52.2787 49.68C52.2787 49.6729 52.2804 49.6659 52.2836 49.6595L53.1925 47.5273C53.7367 46.2465 54.2816 44.9657 54.8272 43.685C54.8306 43.6771 54.8364 43.6704 54.8437 43.6658C54.851 43.6611 54.8595 43.6588 54.8681 43.6591H55.9084C55.9168 43.6586 55.9251 43.6609 55.9321 43.6656C55.9391 43.6702 55.9443 43.677 55.9471 43.685L58.4907 49.6595C58.4943 49.6657 58.4962 49.6728 58.4962 49.68C58.4962 49.6872 58.4943 49.6942 58.4907 49.7004C58.4868 49.7076 58.4807 49.7132 58.4734 49.7167C58.4661 49.7202 58.4578 49.7213 58.4498 49.7198ZM57.4375 49.6337H58.3852L55.8782 43.7431H54.8939C54.3526 45.0153 53.8113 46.2874 53.27 47.5596L52.387 49.6337H53.3346L53.9334 48.2273C53.9367 48.2197 53.9421 48.2132 53.949 48.2086C53.9558 48.2041 53.9639 48.2016 53.9721 48.2014H56.7979C56.8064 48.2014 56.8148 48.2038 56.8221 48.2084C56.8293 48.213 56.8351 48.2195 56.8388 48.2273L57.4375 49.6337ZM56.3844 47.3162H54.3857C54.3785 47.316 54.3715 47.3141 54.3651 47.3107C54.3588 47.3074 54.3533 47.3026 54.349 47.2968C54.3458 47.2905 54.3441 47.2835 54.3441 47.2764C54.3441 47.2693 54.3458 47.2623 54.349 47.2559L55.1567 45.3541L55.3462 44.904C55.3501 44.8968 55.3559 44.8908 55.3629 44.8866C55.3699 44.8824 55.3779 44.8802 55.3861 44.8802C55.3943 44.8802 55.4023 44.8824 55.4093 44.8866C55.4163 44.8908 55.4221 44.8968 55.4259 44.904L56.4274 47.2559C56.4306 47.2623 56.4323 47.2693 56.4323 47.2764C56.4323 47.2835 56.4306 47.2905 56.4274 47.2968C56.4226 47.3036 56.416 47.3089 56.4085 47.3123C56.4009 47.3157 56.3926 47.317 56.3844 47.3162ZM54.446 47.2301H56.3176L55.3807 45.0289L55.2278 45.3864L54.446 47.2301Z" fill="black"/>
<path d="M58.4498 49.7198H57.4074C57.3992 49.7194 57.3913 49.7168 57.3844 49.7123C57.3776 49.7077 57.3721 49.7014 57.3686 49.694L56.7699 48.2876H53.998L53.3992 49.694C53.3959 49.7015 53.3905 49.708 53.3836 49.7126C53.3768 49.7172 53.3687 49.7197 53.3605 49.7198H52.3202C52.313 49.7199 52.3058 49.7182 52.2994 49.7148C52.293 49.7114 52.2876 49.7065 52.2836 49.7004C52.2804 49.6941 52.2787 49.6871 52.2787 49.68C52.2787 49.6729 52.2804 49.6659 52.2836 49.6595L53.1925 47.5273C53.7367 46.2465 54.2816 44.9657 54.8272 43.685C54.8306 43.6771 54.8364 43.6704 54.8437 43.6658C54.851 43.6611 54.8595 43.6588 54.8681 43.6591H55.9084C55.9168 43.6586 55.9251 43.6609 55.9321 43.6656C55.9391 43.6702 55.9443 43.677 55.9471 43.685L58.4907 49.6595C58.4943 49.6657 58.4962 49.6728 58.4962 49.68C58.4962 49.6872 58.4943 49.6942 58.4907 49.7004C58.4868 49.7076 58.4807 49.7132 58.4734 49.7167C58.4661 49.7202 58.4578 49.7213 58.4498 49.7198ZM57.4375 49.6337H58.3852L55.8782 43.7431H54.8939C54.3526 45.0153 53.8113 46.2874 53.27 47.5596L52.387 49.6337H53.3346L53.9334 48.2273C53.9367 48.2197 53.9421 48.2132 53.949 48.2086C53.9558 48.2041 53.9639 48.2016 53.9721 48.2014H56.7979C56.8064 48.2014 56.8148 48.2038 56.8221 48.2084C56.8293 48.213 56.8351 48.2195 56.8388 48.2273L57.4375 49.6337ZM56.3844 47.3162H54.3857C54.3785 47.316 54.3715 47.3141 54.3651 47.3107C54.3588 47.3074 54.3533 47.3026 54.349 47.2968C54.3458 47.2905 54.3441 47.2835 54.3441 47.2764C54.3441 47.2693 54.3458 47.2623 54.349 47.2559L55.1567 45.3541L55.3462 44.904C55.3501 44.8968 55.3559 44.8908 55.3629 44.8866C55.3699 44.8824 55.3779 44.8802 55.3861 44.8802C55.3943 44.8802 55.4023 44.8824 55.4093 44.8866C55.4163 44.8908 55.4221 44.8968 55.4259 44.904L56.4274 47.2559C56.4306 47.2623 56.4323 47.2693 56.4323 47.2764C56.4323 47.2835 56.4306 47.2905 56.4274 47.2968C56.4226 47.3036 56.416 47.3089 56.4085 47.3123C56.4009 47.3157 56.3926 47.317 56.3844 47.3162ZM54.446 47.2301H56.3176L55.3807 45.0289L55.2278 45.3864L54.446 47.2301Z" fill="#0D735A"/>
<path d="M59.5612 49.6767V43.7H60.5067V48.729H63.9053V49.6767H59.5612Z" fill="black"/>
<path d="M59.5612 49.6767V43.7H60.5067V48.729H63.9053V49.6767H59.5612Z" fill="#0D735A"/>
<path d="M63.9053 49.7198H59.5547C59.5432 49.7198 59.5323 49.7153 59.5242 49.7072C59.5161 49.6991 59.5116 49.6882 59.5116 49.6767V43.7C59.5116 43.6945 59.5127 43.689 59.5149 43.6839C59.5171 43.6788 59.5203 43.6741 59.5243 43.6703C59.5284 43.6665 59.5331 43.6635 59.5383 43.6616C59.5436 43.6597 59.5491 43.6588 59.5547 43.6591H60.5002C60.5057 43.6588 60.5113 43.6597 60.5165 43.6616C60.5217 43.6635 60.5265 43.6665 60.5305 43.6703C60.5345 43.6741 60.5378 43.6788 60.5399 43.6839C60.5421 43.689 60.5433 43.6945 60.5433 43.7V48.6882H63.9053C63.9108 48.6879 63.9164 48.6887 63.9216 48.6906C63.9268 48.6926 63.9316 48.6955 63.9356 48.6994C63.9397 48.7032 63.9429 48.7078 63.945 48.7129C63.9472 48.718 63.9484 48.7235 63.9484 48.7291V49.6767C63.9484 49.6882 63.9438 49.6991 63.9357 49.7072C63.9277 49.7153 63.9167 49.7198 63.9053 49.7198ZM59.5977 49.6337H63.8644V48.7722H60.5066C60.5011 48.7722 60.4956 48.771 60.4905 48.7689C60.4854 48.7667 60.4807 48.7635 60.4769 48.7594C60.4731 48.7554 60.4701 48.7506 60.4682 48.7454C60.4663 48.7402 60.4654 48.7346 60.4657 48.7291V43.7431H59.6042L59.5977 49.6337Z" fill="black"/>
<path d="M63.9053 49.7198H59.5547C59.5432 49.7198 59.5323 49.7153 59.5242 49.7072C59.5161 49.6991 59.5116 49.6882 59.5116 49.6767V43.7C59.5116 43.6945 59.5127 43.689 59.5149 43.6839C59.5171 43.6788 59.5203 43.6741 59.5243 43.6703C59.5284 43.6665 59.5331 43.6635 59.5383 43.6616C59.5436 43.6597 59.5491 43.6588 59.5547 43.6591H60.5002C60.5057 43.6588 60.5113 43.6597 60.5165 43.6616C60.5217 43.6635 60.5265 43.6665 60.5305 43.6703C60.5345 43.6741 60.5378 43.6788 60.5399 43.6839C60.5421 43.689 60.5433 43.6945 60.5433 43.7V48.6882H63.9053C63.9108 48.6879 63.9164 48.6887 63.9216 48.6906C63.9268 48.6926 63.9316 48.6955 63.9356 48.6994C63.9397 48.7032 63.9429 48.7078 63.945 48.7129C63.9472 48.718 63.9484 48.7235 63.9484 48.7291V49.6767C63.9484 49.6882 63.9438 49.6991 63.9357 49.7072C63.9277 49.7153 63.9167 49.7198 63.9053 49.7198ZM59.5977 49.6337H63.8644V48.7722H60.5066C60.5011 48.7722 60.4956 48.771 60.4905 48.7689C60.4854 48.7667 60.4807 48.7635 60.4769 48.7594C60.4731 48.7554 60.4701 48.7506 60.4682 48.7454C60.4663 48.7402 60.4654 48.7346 60.4657 48.7291V43.7431H59.6042L59.5977 49.6337Z" fill="#0D735A"/>
<path d="M69.1885 49.6767H68.2408V43.7H69.7959L71.3315 47.2106L72.8693 43.7H74.4157V49.6767H73.4702V44.6885L71.3315 49.5711L69.1777 44.6756L69.1885 49.6767Z" fill="black"/>
<path d="M69.1885 49.6767H68.2408V43.7H69.7959L71.3315 47.2106L72.8693 43.7H74.4157V49.6767H73.4702V44.6885L71.3315 49.5711L69.1777 44.6756L69.1885 49.6767Z" fill="#0D735A"/>
<path d="M74.4157 49.7198H73.4702C73.4587 49.7198 73.4478 49.7153 73.4397 49.7072C73.4316 49.6991 73.4271 49.6882 73.4271 49.6767V44.8932L71.3702 49.5884C71.3662 49.5951 71.3605 49.6007 71.3537 49.6045C71.3469 49.6084 71.3393 49.6104 71.3315 49.6104C71.3237 49.6104 71.316 49.6084 71.3092 49.6045C71.3024 49.6007 71.2967 49.5951 71.2927 49.5884L69.2315 44.8782V49.6767C69.2315 49.6882 69.227 49.6991 69.2189 49.7072C69.2109 49.7153 69.1999 49.7198 69.1885 49.7198H68.2408C68.2353 49.7198 68.2297 49.7187 68.2246 49.7165C68.2195 49.7143 68.2149 49.7111 68.2111 49.7071C68.2073 49.7031 68.2043 49.6983 68.2024 49.6931C68.2004 49.6879 68.1996 49.6823 68.1999 49.6767V43.7C68.1996 43.6946 68.2004 43.6891 68.2024 43.684C68.2043 43.6789 68.2073 43.6743 68.2112 43.6704C68.215 43.6665 68.2197 43.6635 68.2248 43.6616C68.2299 43.6597 68.2354 43.6588 68.2408 43.6591H69.7958C69.8039 43.6588 69.8119 43.6609 69.8188 43.6651C69.8257 43.6693 69.8312 43.6755 69.8346 43.6828L71.3422 47.1052L72.8499 43.6828C72.8533 43.6755 72.8588 43.6693 72.8657 43.6651C72.8726 43.6609 72.8806 43.6588 72.8886 43.6591H74.4351C74.4406 43.6588 74.4462 43.6597 74.4514 43.6616C74.4566 43.6635 74.4614 43.6665 74.4654 43.6703C74.4694 43.6741 74.4726 43.6788 74.4748 43.6839C74.477 43.689 74.4781 43.6945 74.4781 43.7V49.6767C74.479 49.6845 74.4777 49.6923 74.4745 49.6994C74.4713 49.7065 74.4662 49.7125 74.4598 49.7169C74.4534 49.7214 74.4459 49.724 74.4381 49.7245C74.4304 49.725 74.4226 49.7234 74.4157 49.7198ZM73.5132 49.6337H74.3747V43.7431H72.8994L71.3745 47.2279C71.3703 47.2346 71.3644 47.2401 71.3574 47.2439C71.3504 47.2477 71.3426 47.2497 71.3347 47.2497C71.3268 47.2497 71.319 47.2477 71.312 47.2439C71.305 47.2401 71.2991 47.2346 71.2949 47.2279L69.77 43.7431H68.286V49.6337H69.1475V44.68C69.1473 44.6699 69.1507 44.6601 69.157 44.6522C69.1633 44.6444 69.1721 44.6389 69.182 44.6369C69.1917 44.6352 69.2016 44.6368 69.2103 44.6415C69.2189 44.6462 69.2256 44.6537 69.2294 44.6628L71.3336 49.47L73.4335 44.6757C73.4377 44.667 73.4446 44.66 73.4532 44.6557C73.4618 44.6514 73.4715 44.6501 73.4809 44.652C73.4904 44.6539 73.499 44.659 73.5053 44.6665C73.5115 44.6739 73.5151 44.6832 73.5154 44.6929L73.5132 49.6337Z" fill="black"/>
<path d="M74.4157 49.7198H73.4702C73.4587 49.7198 73.4478 49.7153 73.4397 49.7072C73.4316 49.6991 73.4271 49.6882 73.4271 49.6767V44.8932L71.3702 49.5884C71.3662 49.5951 71.3605 49.6007 71.3537 49.6045C71.3469 49.6084 71.3393 49.6104 71.3315 49.6104C71.3237 49.6104 71.316 49.6084 71.3092 49.6045C71.3024 49.6007 71.2967 49.5951 71.2927 49.5884L69.2315 44.8782V49.6767C69.2315 49.6882 69.227 49.6991 69.2189 49.7072C69.2109 49.7153 69.1999 49.7198 69.1885 49.7198H68.2408C68.2353 49.7198 68.2297 49.7187 68.2246 49.7165C68.2195 49.7143 68.2149 49.7111 68.2111 49.7071C68.2073 49.7031 68.2043 49.6983 68.2024 49.6931C68.2004 49.6879 68.1996 49.6823 68.1999 49.6767V43.7C68.1996 43.6946 68.2004 43.6891 68.2024 43.684C68.2043 43.6789 68.2073 43.6743 68.2112 43.6704C68.215 43.6665 68.2197 43.6635 68.2248 43.6616C68.2299 43.6597 68.2354 43.6588 68.2408 43.6591H69.7958C69.8039 43.6588 69.8119 43.6609 69.8188 43.6651C69.8257 43.6693 69.8312 43.6755 69.8346 43.6828L71.3422 47.1052L72.8499 43.6828C72.8533 43.6755 72.8588 43.6693 72.8657 43.6651C72.8726 43.6609 72.8806 43.6588 72.8886 43.6591H74.4351C74.4406 43.6588 74.4462 43.6597 74.4514 43.6616C74.4566 43.6635 74.4614 43.6665 74.4654 43.6703C74.4694 43.6741 74.4726 43.6788 74.4748 43.6839C74.477 43.689 74.4781 43.6945 74.4781 43.7V49.6767C74.479 49.6845 74.4777 49.6923 74.4745 49.6994C74.4713 49.7065 74.4662 49.7125 74.4598 49.7169C74.4534 49.7214 74.4459 49.724 74.4381 49.7245C74.4304 49.725 74.4226 49.7234 74.4157 49.7198ZM73.5132 49.6337H74.3747V43.7431H72.8994L71.3745 47.2279C71.3703 47.2346 71.3644 47.2401 71.3574 47.2439C71.3504 47.2477 71.3426 47.2497 71.3347 47.2497C71.3268 47.2497 71.319 47.2477 71.312 47.2439C71.305 47.2401 71.2991 47.2346 71.2949 47.2279L69.77 43.7431H68.286V49.6337H69.1475V44.68C69.1473 44.6699 69.1507 44.6601 69.157 44.6522C69.1633 44.6444 69.1721 44.6389 69.182 44.6369C69.1917 44.6352 69.2016 44.6368 69.2103 44.6415C69.2189 44.6462 69.2256 44.6537 69.2294 44.6628L71.3336 49.47L73.4335 44.6757C73.4377 44.667 73.4446 44.66 73.4532 44.6557C73.4618 44.6514 73.4715 44.6501 73.4809 44.652C73.4904 44.6539 73.499 44.659 73.5053 44.6665C73.5115 44.6739 73.5151 44.6832 73.5154 44.6929L73.5132 49.6337Z" fill="#0D735A"/>
<path d="M77.1746 48.2444L76.5651 49.6767H75.5227C76.3713 47.6851 77.2192 45.6929 78.0663 43.7H79.1087L81.6502 49.6767H80.6099L80.0004 48.2444H77.1746ZM77.5882 47.2731H79.5869L78.5854 44.9211C78.2537 45.7008 77.9213 46.4848 77.5882 47.2731Z" fill="black"/>
<path d="M77.1746 48.2444L76.5651 49.6767H75.5227C76.3713 47.6851 77.2192 45.6929 78.0663 43.7H79.1087L81.6502 49.6767H80.6099L80.0004 48.2444H77.1746ZM77.5882 47.2731H79.5869L78.5854 44.9211C78.2537 45.7008 77.9213 46.4848 77.5882 47.2731Z" fill="#0D735A"/>
<path d="M81.6503 49.7198H80.61C80.6017 49.7197 80.5937 49.7172 80.5868 49.7126C80.5799 49.708 80.5745 49.7015 80.5712 49.694L79.9725 48.2876H77.2027L76.6126 49.694C76.6091 49.7014 76.6036 49.7077 76.5968 49.7123C76.59 49.7168 76.582 49.7194 76.5738 49.7198H75.5314C75.5244 49.72 75.5176 49.7183 75.5115 49.7149C75.5054 49.7114 75.5004 49.7065 75.4969 49.7004C75.4933 49.6942 75.4915 49.6872 75.4915 49.68C75.4915 49.6728 75.4933 49.6657 75.4969 49.6595L76.4058 47.5273L78.0405 43.685C78.0433 43.677 78.0486 43.6702 78.0556 43.6656C78.0626 43.6609 78.0709 43.6586 78.0793 43.6591H79.1217C79.13 43.659 79.1382 43.6614 79.1452 43.666C79.1521 43.6706 79.1574 43.6772 79.1605 43.685L81.7041 49.6595C81.7073 49.6659 81.709 49.6729 81.709 49.68C81.709 49.6871 81.7073 49.6941 81.7041 49.7004C81.6991 49.7097 81.6908 49.7168 81.6809 49.7204C81.6709 49.7239 81.66 49.7237 81.6503 49.7198ZM80.638 49.6337H81.5856L79.0787 43.7431H78.0944C77.5545 45.0153 77.0132 46.2874 76.4704 47.5596L75.5874 49.6337H76.5351L77.1338 48.2273C77.1375 48.2195 77.1433 48.213 77.1505 48.2084C77.1578 48.2038 77.1661 48.2014 77.1747 48.2014H80.0005C80.0087 48.2016 80.0168 48.2041 80.0236 48.2086C80.0305 48.2132 80.0359 48.2197 80.0392 48.2273L80.638 49.6337ZM79.5869 47.3162H77.5882C77.5811 47.316 77.574 47.3141 77.5677 47.3107C77.5614 47.3074 77.5559 47.3026 77.5516 47.2968C77.5484 47.2905 77.5467 47.2835 77.5467 47.2764C77.5467 47.2693 77.5484 47.2623 77.5516 47.2559C77.823 46.6227 78.0901 45.9873 78.3593 45.3541L78.551 44.904C78.5545 44.8967 78.56 44.8906 78.5669 44.8863C78.5737 44.882 78.5817 44.8797 78.5897 44.8797C78.5978 44.8797 78.6058 44.882 78.6126 44.8863C78.6195 44.8906 78.625 44.8967 78.6285 44.904L79.6279 47.2559C79.6311 47.2623 79.6328 47.2693 79.6328 47.2764C79.6328 47.2835 79.6311 47.2905 79.6279 47.2968C79.6232 47.3032 79.617 47.3083 79.6099 47.3117C79.6027 47.3151 79.5948 47.3167 79.5869 47.3162ZM77.6485 47.2301H79.518L78.5811 45.0289L78.4304 45.3864L77.6485 47.2301Z" fill="black"/>
<path d="M81.6503 49.7198H80.61C80.6017 49.7197 80.5937 49.7172 80.5868 49.7126C80.5799 49.708 80.5745 49.7015 80.5712 49.694L79.9725 48.2876H77.2027L76.6126 49.694C76.6091 49.7014 76.6036 49.7077 76.5968 49.7123C76.59 49.7168 76.582 49.7194 76.5738 49.7198H75.5314C75.5244 49.72 75.5176 49.7183 75.5115 49.7149C75.5054 49.7114 75.5004 49.7065 75.4969 49.7004C75.4933 49.6942 75.4915 49.6872 75.4915 49.68C75.4915 49.6728 75.4933 49.6657 75.4969 49.6595L76.4058 47.5273L78.0405 43.685C78.0433 43.677 78.0486 43.6702 78.0556 43.6656C78.0626 43.6609 78.0709 43.6586 78.0793 43.6591H79.1217C79.13 43.659 79.1382 43.6614 79.1452 43.666C79.1521 43.6706 79.1574 43.6772 79.1605 43.685L81.7041 49.6595C81.7073 49.6659 81.709 49.6729 81.709 49.68C81.709 49.6871 81.7073 49.6941 81.7041 49.7004C81.6991 49.7097 81.6908 49.7168 81.6809 49.7204C81.6709 49.7239 81.66 49.7237 81.6503 49.7198ZM80.638 49.6337H81.5856L79.0787 43.7431H78.0944C77.5545 45.0153 77.0132 46.2874 76.4704 47.5596L75.5874 49.6337H76.5351L77.1338 48.2273C77.1375 48.2195 77.1433 48.213 77.1505 48.2084C77.1578 48.2038 77.1661 48.2014 77.1747 48.2014H80.0005C80.0087 48.2016 80.0168 48.2041 80.0236 48.2086C80.0305 48.2132 80.0359 48.2197 80.0392 48.2273L80.638 49.6337ZM79.5869 47.3162H77.5882C77.5811 47.316 77.574 47.3141 77.5677 47.3107C77.5614 47.3074 77.5559 47.3026 77.5516 47.2968C77.5484 47.2905 77.5467 47.2835 77.5467 47.2764C77.5467 47.2693 77.5484 47.2623 77.5516 47.2559C77.823 46.6227 78.0901 45.9873 78.3593 45.3541L78.551 44.904C78.5545 44.8967 78.56 44.8906 78.5669 44.8863C78.5737 44.882 78.5817 44.8797 78.5897 44.8797C78.5978 44.8797 78.6058 44.882 78.6126 44.8863C78.6195 44.8906 78.625 44.8967 78.6285 44.904L79.6279 47.2559C79.6311 47.2623 79.6328 47.2693 79.6328 47.2764C79.6328 47.2835 79.6311 47.2905 79.6279 47.2968C79.6232 47.3032 79.617 47.3083 79.6099 47.3117C79.6027 47.3151 79.5948 47.3167 79.5869 47.3162ZM77.6485 47.2301H79.518L78.5811 45.0289L78.4304 45.3864L77.6485 47.2301Z" fill="#0D735A"/>
<path d="M83.72 47.1675V49.681H82.7723V43.7H85.7725C86.2142 43.702 86.6384 43.8725 86.9586 44.1767C87.2788 44.4809 87.4709 44.8958 87.4956 45.3368V45.3476C87.5143 45.7623 87.3839 46.17 87.1278 46.4968C86.8718 46.8236 86.5071 47.0478 86.0999 47.1288L87.6851 49.6767H86.5694L85.0123 47.1675H83.72ZM83.72 46.2199H85.7812C85.9891 46.2199 86.1885 46.1373 86.3355 45.9902C86.4825 45.8432 86.5651 45.6438 86.5651 45.4359C86.5651 45.228 86.4825 45.0286 86.3355 44.8815C86.1885 44.7345 85.9891 44.6519 85.7812 44.6519H83.72V46.2199Z" fill="black"/>
<path d="M83.72 47.1675V49.681H82.7723V43.7H85.7725C86.2142 43.702 86.6384 43.8725 86.9586 44.1767C87.2788 44.4809 87.4709 44.8958 87.4956 45.3368V45.3476C87.5143 45.7623 87.3839 46.17 87.1278 46.4968C86.8718 46.8236 86.5071 47.0478 86.0999 47.1288L87.6851 49.6767H86.5694L85.0123 47.1675H83.72ZM83.72 46.2199H85.7812C85.9891 46.2199 86.1885 46.1373 86.3355 45.9902C86.4825 45.8432 86.5651 45.6438 86.5651 45.4359C86.5651 45.228 86.4825 45.0286 86.3355 44.8815C86.1885 44.7345 85.9891 44.6519 85.7812 44.6519H83.72V46.2199Z" fill="#0D735A"/>
<path d="M87.6808 49.7198H86.5651C86.5582 49.7197 86.5514 49.7179 86.5454 49.7145C86.5394 49.7111 86.5343 49.7063 86.5307 49.7004L84.9778 47.2042H83.7523V49.6767C83.7523 49.6881 83.7478 49.6991 83.7397 49.7072C83.7316 49.7152 83.7207 49.7198 83.7092 49.7198H82.7616C82.7502 49.7198 82.7392 49.7152 82.7311 49.7072C82.723 49.6991 82.7185 49.6881 82.7185 49.6767V43.7C82.7185 43.6944 82.7196 43.6889 82.7218 43.6838C82.724 43.6787 82.7272 43.6741 82.7312 43.6703C82.7353 43.6664 82.74 43.6635 82.7453 43.6616C82.7505 43.6596 82.756 43.6588 82.7616 43.6591H85.7618C86.2049 43.6472 86.6364 43.8018 86.9712 44.0924C87.3059 44.383 87.5196 44.7885 87.5702 45.2288C87.6208 45.6692 87.5045 46.1126 87.2443 46.4715C86.984 46.8304 86.5988 47.0787 86.1645 47.1676L87.7174 49.6638C87.7217 49.6702 87.7239 49.6777 87.7239 49.6853C87.7239 49.693 87.7217 49.7005 87.7174 49.7069C87.7128 49.7119 87.7071 49.7157 87.7007 49.7179C87.6943 49.7202 87.6875 49.7208 87.6808 49.7198ZM86.5888 49.6336H87.5968L86.0525 47.1525C86.0493 47.1465 86.0477 47.1399 86.0477 47.1331C86.0477 47.1263 86.0493 47.1197 86.0525 47.1137C86.0553 47.1074 86.0594 47.1018 86.0646 47.0973C86.0699 47.0928 86.076 47.0896 86.0827 47.0879C86.4936 47.0063 86.8596 46.7749 87.1094 46.4386C87.3592 46.1024 87.4752 45.6852 87.4346 45.2682C87.3941 44.8512 87.2 44.4642 86.89 44.1824C86.5801 43.9005 86.1764 43.7439 85.7575 43.7431H82.8047V49.6336H83.6662V47.1676C83.6662 47.1561 83.6707 47.1452 83.6788 47.1371C83.6869 47.129 83.6978 47.1245 83.7092 47.1245H85.0015C85.0087 47.1244 85.0159 47.1261 85.0223 47.1295C85.0287 47.1329 85.0341 47.1378 85.0381 47.1439L86.5888 49.6336ZM85.7704 46.2587H83.72C83.7086 46.2587 83.6976 46.2541 83.6895 46.2461C83.6815 46.238 83.6769 46.227 83.6769 46.2156V44.6477C83.6769 44.6362 83.6815 44.6253 83.6895 44.6172C83.6976 44.6091 83.7086 44.6046 83.72 44.6046H85.7812C86.0005 44.6046 86.2109 44.6917 86.366 44.8468C86.5211 45.0019 86.6082 45.2123 86.6082 45.4316C86.6082 45.651 86.5211 45.8613 86.366 46.0164C86.2109 46.1715 86.0005 46.2587 85.7812 46.2587H85.7704ZM83.7523 46.1725H85.7704C85.9669 46.1725 86.1553 46.0945 86.2943 45.9555C86.4332 45.8166 86.5113 45.6281 86.5113 45.4316C86.5113 45.2351 86.4332 45.0467 86.2943 44.9077C86.1553 44.7688 85.9669 44.6907 85.7704 44.6907H83.7523V46.1725Z" fill="black"/>
<path d="M87.6808 49.7198H86.5651C86.5582 49.7197 86.5514 49.7179 86.5454 49.7145C86.5394 49.7111 86.5343 49.7063 86.5307 49.7004L84.9778 47.2042H83.7523V49.6767C83.7523 49.6881 83.7478 49.6991 83.7397 49.7072C83.7316 49.7152 83.7207 49.7198 83.7092 49.7198H82.7616C82.7502 49.7198 82.7392 49.7152 82.7311 49.7072C82.723 49.6991 82.7185 49.6881 82.7185 49.6767V43.7C82.7185 43.6944 82.7196 43.6889 82.7218 43.6838C82.724 43.6787 82.7272 43.6741 82.7312 43.6703C82.7353 43.6664 82.74 43.6635 82.7453 43.6616C82.7505 43.6596 82.756 43.6588 82.7616 43.6591H85.7618C86.2049 43.6472 86.6364 43.8018 86.9712 44.0924C87.3059 44.383 87.5196 44.7885 87.5702 45.2288C87.6208 45.6692 87.5045 46.1126 87.2443 46.4715C86.984 46.8304 86.5988 47.0787 86.1645 47.1676L87.7174 49.6638C87.7217 49.6702 87.7239 49.6777 87.7239 49.6853C87.7239 49.693 87.7217 49.7005 87.7174 49.7069C87.7128 49.7119 87.7071 49.7157 87.7007 49.7179C87.6943 49.7202 87.6875 49.7208 87.6808 49.7198ZM86.5888 49.6336H87.5968L86.0525 47.1525C86.0493 47.1465 86.0477 47.1399 86.0477 47.1331C86.0477 47.1263 86.0493 47.1197 86.0525 47.1137C86.0553 47.1074 86.0594 47.1018 86.0646 47.0973C86.0699 47.0928 86.076 47.0896 86.0827 47.0879C86.4936 47.0063 86.8596 46.7749 87.1094 46.4386C87.3592 46.1024 87.4752 45.6852 87.4346 45.2682C87.3941 44.8512 87.2 44.4642 86.89 44.1824C86.5801 43.9005 86.1764 43.7439 85.7575 43.7431H82.8047V49.6336H83.6662V47.1676C83.6662 47.1561 83.6707 47.1452 83.6788 47.1371C83.6869 47.129 83.6978 47.1245 83.7092 47.1245H85.0015C85.0087 47.1244 85.0159 47.1261 85.0223 47.1295C85.0287 47.1329 85.0341 47.1378 85.0381 47.1439L86.5888 49.6336ZM85.7704 46.2587H83.72C83.7086 46.2587 83.6976 46.2541 83.6895 46.2461C83.6815 46.238 83.6769 46.227 83.6769 46.2156V44.6477C83.6769 44.6362 83.6815 44.6253 83.6895 44.6172C83.6976 44.6091 83.7086 44.6046 83.72 44.6046H85.7812C86.0005 44.6046 86.2109 44.6917 86.366 44.8468C86.5211 45.0019 86.6082 45.2123 86.6082 45.4316C86.6082 45.651 86.5211 45.8613 86.366 46.0164C86.2109 46.1715 86.0005 46.2587 85.7812 46.2587H85.7704ZM83.7523 46.1725H85.7704C85.9669 46.1725 86.1553 46.0945 86.2943 45.9555C86.4332 45.8166 86.5113 45.6281 86.5113 45.4316C86.5113 45.2351 86.4332 45.0467 86.2943 44.9077C86.1553 44.7688 85.9669 44.6907 85.7704 44.6907H83.7523V46.1725Z" fill="#0D735A"/>
<path d="M91.5511 43.5513C92.0168 43.5507 92.4767 43.654 92.8974 43.8537C93.318 44.0534 93.6888 44.3445 93.9827 44.7057L93.2913 45.3971C93.0196 45.0314 92.6396 44.7606 92.2052 44.6234C91.7708 44.4861 91.3041 44.4892 90.8716 44.6323C90.4391 44.7754 90.0627 45.0512 89.7959 45.4205C89.5291 45.7897 89.3855 46.2337 89.3855 46.6893C89.3855 47.1449 89.5291 47.5889 89.7959 47.9582C90.0627 48.3274 90.4391 48.6032 90.8716 48.7463C91.3041 48.8894 91.7708 48.8926 92.2052 48.7553C92.6396 48.618 93.0196 48.3473 93.2913 47.9816L93.9827 48.6751C93.648 49.0854 93.2149 49.4043 92.7238 49.6022C92.2327 49.8 91.6995 49.8704 91.1739 49.8067C90.6482 49.7431 90.1472 49.5475 89.7175 49.2381C89.2879 48.9287 88.9434 48.5156 88.7164 48.0373C88.4893 47.559 88.3869 47.031 88.4188 46.5025C88.4507 45.974 88.6158 45.4621 88.8987 45.0146C89.1816 44.567 89.5732 44.1984 90.037 43.9429C90.5007 43.6874 91.0216 43.5534 91.5511 43.5534V43.5513Z" fill="black"/>
<path d="M91.5511 43.5513C92.0168 43.5507 92.4767 43.654 92.8974 43.8537C93.318 44.0534 93.6888 44.3445 93.9827 44.7057L93.2913 45.3971C93.0196 45.0314 92.6396 44.7606 92.2052 44.6234C91.7708 44.4861 91.3041 44.4892 90.8716 44.6323C90.4391 44.7754 90.0627 45.0512 89.7959 45.4205C89.5291 45.7897 89.3855 46.2337 89.3855 46.6893C89.3855 47.1449 89.5291 47.5889 89.7959 47.9582C90.0627 48.3274 90.4391 48.6032 90.8716 48.7463C91.3041 48.8894 91.7708 48.8926 92.2052 48.7553C92.6396 48.618 93.0196 48.3473 93.2913 47.9816L93.9827 48.6751C93.648 49.0854 93.2149 49.4043 92.7238 49.6022C92.2327 49.8 91.6995 49.8704 91.1739 49.8067C90.6482 49.7431 90.1472 49.5475 89.7175 49.2381C89.2879 48.9287 88.9434 48.5156 88.7164 48.0373C88.4893 47.559 88.3869 47.031 88.4188 46.5025C88.4507 45.974 88.6158 45.4621 88.8987 45.0146C89.1816 44.567 89.5732 44.1984 90.037 43.9429C90.5007 43.6874 91.0216 43.5534 91.5511 43.5534V43.5513Z" fill="#0D735A"/>
<path d="M91.5511 49.8705C91.0144 49.8702 90.4866 49.7342 90.0167 49.4751C89.5468 49.2159 89.15 48.8421 88.8634 48.3884C88.5768 47.9348 88.4096 47.4159 88.3774 46.8803C88.3452 46.3446 88.4491 45.8095 88.6793 45.3248C88.9095 44.84 89.2586 44.4214 89.6941 44.1078C90.1296 43.7943 90.6373 43.596 91.1701 43.5314C91.7028 43.4668 92.2432 43.5381 92.741 43.7385C93.2388 43.939 93.6778 44.2621 94.0171 44.6778C94.024 44.6859 94.0277 44.6962 94.0277 44.7069C94.0277 44.7175 94.024 44.7278 94.0171 44.736L93.3236 45.4273C93.3197 45.4325 93.3144 45.4365 93.3083 45.4388C93.3022 45.441 93.2955 45.4416 93.2892 45.4402C93.2831 45.4401 93.2772 45.4384 93.2719 45.4354C93.2667 45.4324 93.2622 45.4281 93.259 45.423C92.9929 45.0643 92.6204 44.7986 92.1946 44.6638C91.7688 44.529 91.3113 44.5318 90.8872 44.672C90.4631 44.8121 90.094 45.0824 89.8324 45.4444C89.5708 45.8064 89.4299 46.2417 89.4299 46.6883C89.4299 47.135 89.5708 47.5703 89.8324 47.9323C90.094 48.2943 90.4631 48.5646 90.8872 48.7047C91.3113 48.8449 91.7688 48.8477 92.1946 48.7129C92.6204 48.578 92.9929 48.3124 93.259 47.9537C93.2669 47.9448 93.2775 47.9387 93.2892 47.9365C93.2955 47.9361 93.3018 47.937 93.3078 47.9392C93.3137 47.9415 93.3191 47.9449 93.3236 47.9494L94.0171 48.6429C94.0238 48.6507 94.0275 48.6606 94.0275 48.6709C94.0275 48.6812 94.0238 48.6911 94.0171 48.6989C93.7194 49.0657 93.3435 49.3613 92.9168 49.564C92.4901 49.7667 92.0235 49.8714 91.5511 49.8705ZM91.5511 43.5923C91.0297 43.591 90.5165 43.7214 90.0589 43.9713C89.6014 44.2212 89.2143 44.5826 88.9336 45.0219C88.6529 45.4613 88.4876 45.9643 88.4532 46.4846C88.4187 47.0048 88.5161 47.5253 88.7363 47.9978C88.9566 48.4704 89.2926 48.8797 89.7131 49.1878C90.1337 49.4959 90.6253 49.6929 91.1422 49.7604C91.6592 49.828 92.1848 49.7639 92.6705 49.5742C93.1561 49.3845 93.5859 49.0753 93.9202 48.6752L93.2892 48.0441C93.0066 48.4078 92.6174 48.6741 92.1761 48.8058C91.7347 48.9375 91.2633 48.928 90.8276 48.7787C90.3919 48.6293 90.0138 48.3475 89.7461 47.9728C89.4784 47.598 89.3344 47.1489 89.3344 46.6883C89.3344 46.2278 89.4784 45.7787 89.7461 45.4039C90.0138 45.0291 90.3919 44.7474 90.8276 44.598C91.2633 44.4486 91.7347 44.4391 92.1761 44.5708C92.6174 44.7025 93.0066 44.9688 93.2892 45.3325L93.9202 44.7036C93.6309 44.356 93.2688 44.0763 92.8594 43.8842C92.4499 43.6922 92.0033 43.5925 91.5511 43.5923Z" fill="black"/>
<path d="M91.5511 49.8705C91.0144 49.8702 90.4866 49.7342 90.0167 49.4751C89.5468 49.2159 89.15 48.8421 88.8634 48.3884C88.5768 47.9348 88.4096 47.4159 88.3774 46.8803C88.3452 46.3446 88.4491 45.8095 88.6793 45.3248C88.9095 44.84 89.2586 44.4214 89.6941 44.1078C90.1296 43.7943 90.6373 43.596 91.1701 43.5314C91.7028 43.4668 92.2432 43.5381 92.741 43.7385C93.2388 43.939 93.6778 44.2621 94.0171 44.6778C94.024 44.6859 94.0277 44.6962 94.0277 44.7069C94.0277 44.7175 94.024 44.7278 94.0171 44.736L93.3236 45.4273C93.3197 45.4325 93.3144 45.4365 93.3083 45.4388C93.3022 45.441 93.2955 45.4416 93.2892 45.4402C93.2831 45.4401 93.2772 45.4384 93.2719 45.4354C93.2667 45.4324 93.2622 45.4281 93.259 45.423C92.9929 45.0643 92.6204 44.7986 92.1946 44.6638C91.7688 44.529 91.3113 44.5318 90.8872 44.672C90.4631 44.8121 90.094 45.0824 89.8324 45.4444C89.5708 45.8064 89.4299 46.2417 89.4299 46.6883C89.4299 47.135 89.5708 47.5703 89.8324 47.9323C90.094 48.2943 90.4631 48.5646 90.8872 48.7047C91.3113 48.8449 91.7688 48.8477 92.1946 48.7129C92.6204 48.578 92.9929 48.3124 93.259 47.9537C93.2669 47.9448 93.2775 47.9387 93.2892 47.9365C93.2955 47.9361 93.3018 47.937 93.3078 47.9392C93.3137 47.9415 93.3191 47.9449 93.3236 47.9494L94.0171 48.6429C94.0238 48.6507 94.0275 48.6606 94.0275 48.6709C94.0275 48.6812 94.0238 48.6911 94.0171 48.6989C93.7194 49.0657 93.3435 49.3613 92.9168 49.564C92.4901 49.7667 92.0235 49.8714 91.5511 49.8705ZM91.5511 43.5923C91.0297 43.591 90.5165 43.7214 90.0589 43.9713C89.6014 44.2212 89.2143 44.5826 88.9336 45.0219C88.6529 45.4613 88.4876 45.9643 88.4532 46.4846C88.4187 47.0048 88.5161 47.5253 88.7363 47.9978C88.9566 48.4704 89.2926 48.8797 89.7131 49.1878C90.1337 49.4959 90.6253 49.6929 91.1422 49.7604C91.6592 49.828 92.1848 49.7639 92.6705 49.5742C93.1561 49.3845 93.5859 49.0753 93.9202 48.6752L93.2892 48.0441C93.0066 48.4078 92.6174 48.6741 92.1761 48.8058C91.7347 48.9375 91.2633 48.928 90.8276 48.7787C90.3919 48.6293 90.0138 48.3475 89.7461 47.9728C89.4784 47.598 89.3344 47.1489 89.3344 46.6883C89.3344 46.2278 89.4784 45.7787 89.7461 45.4039C90.0138 45.0291 90.3919 44.7474 90.8276 44.598C91.2633 44.4486 91.7347 44.4391 92.1761 44.5708C92.6174 44.7025 93.0066 44.9688 93.2892 45.3325L93.9202 44.7036C93.6309 44.356 93.2688 44.0763 92.8594 43.8842C92.4499 43.6922 92.0033 43.5925 91.5511 43.5923Z" fill="#0D735A"/>
<path d="M99.7031 49.6767H95.0897V43.7H99.7031V44.6476H96.0417V46.2156H99.7031V47.1675H96.0417V48.7333H99.7031V49.6767Z" fill="black"/>
<path d="M99.7031 49.6767H95.0897V43.7H99.7031V44.6476H96.0417V46.2156H99.7031V47.1675H96.0417V48.7333H99.7031V49.6767Z" fill="#0D735A"/>
<path d="M99.7031 49.7198H95.0897C95.0783 49.7198 95.0673 49.7153 95.0593 49.7072C95.0512 49.6991 95.0466 49.6882 95.0466 49.6767V43.7C95.0466 43.6945 95.0477 43.689 95.0499 43.6839C95.0521 43.6788 95.0553 43.6741 95.0594 43.6703C95.0634 43.6665 95.0682 43.6635 95.0734 43.6616C95.0786 43.6597 95.0842 43.6588 95.0897 43.6591H99.7031C99.7086 43.6588 99.7142 43.6597 99.7194 43.6616C99.7246 43.6635 99.7294 43.6665 99.7334 43.6703C99.7374 43.6741 99.7407 43.6788 99.7428 43.6839C99.745 43.689 99.7462 43.6945 99.7462 43.7V44.6477C99.7462 44.6591 99.7416 44.6701 99.7335 44.6782C99.7255 44.6862 99.7145 44.6908 99.7031 44.6908H96.0783V46.1726H99.7031C99.7145 46.1726 99.7255 46.1771 99.7335 46.1852C99.7416 46.1933 99.7462 46.2042 99.7462 46.2156V47.1676C99.7462 47.1732 99.745 47.1787 99.7428 47.1838C99.7407 47.1889 99.7374 47.1935 99.7334 47.1973C99.7294 47.2012 99.7246 47.2041 99.7194 47.206C99.7142 47.208 99.7086 47.2088 99.7031 47.2085H96.0783V48.6925H99.7031C99.7086 48.6922 99.7142 48.693 99.7194 48.6949C99.7246 48.6969 99.7294 48.6998 99.7334 48.7037C99.7374 48.7075 99.7407 48.7121 99.7428 48.7172C99.745 48.7223 99.7462 48.7278 99.7462 48.7334V49.681C99.7451 49.6917 99.7401 49.7016 99.7321 49.7088C99.7241 49.7159 99.7138 49.7199 99.7031 49.7198ZM95.1306 49.6337H99.6535V48.7722H96.0352C96.0296 48.7722 96.0241 48.771 96.019 48.7689C96.0139 48.7667 96.0093 48.7635 96.0055 48.7594C96.0017 48.7554 95.9987 48.7506 95.9968 48.7454C95.9948 48.7402 95.994 48.7346 95.9943 48.7291V47.1676C95.994 47.162 95.9948 47.1565 95.9968 47.1513C95.9987 47.1461 96.0017 47.1413 96.0055 47.1373C96.0093 47.1332 96.0139 47.13 96.019 47.1278C96.0241 47.1256 96.0296 47.1245 96.0352 47.1245H99.6579V46.263H96.0352C96.0296 46.263 96.0241 46.2619 96.019 46.2597C96.0139 46.2575 96.0093 46.2543 96.0055 46.2503C96.0017 46.2463 95.9987 46.2415 95.9968 46.2363C95.9948 46.231 95.994 46.2255 95.9943 46.2199V44.6477C95.994 44.6421 95.9948 44.6366 95.9968 44.6314C95.9987 44.6262 96.0017 44.6214 96.0055 44.6174C96.0093 44.6133 96.0139 44.6101 96.019 44.6079C96.0241 44.6057 96.0296 44.6046 96.0352 44.6046H99.6579V43.7431H95.1349L95.1306 49.6337Z" fill="black"/>
<path d="M99.7031 49.7198H95.0897C95.0783 49.7198 95.0673 49.7153 95.0593 49.7072C95.0512 49.6991 95.0466 49.6882 95.0466 49.6767V43.7C95.0466 43.6945 95.0477 43.689 95.0499 43.6839C95.0521 43.6788 95.0553 43.6741 95.0594 43.6703C95.0634 43.6665 95.0682 43.6635 95.0734 43.6616C95.0786 43.6597 95.0842 43.6588 95.0897 43.6591H99.7031C99.7086 43.6588 99.7142 43.6597 99.7194 43.6616C99.7246 43.6635 99.7294 43.6665 99.7334 43.6703C99.7374 43.6741 99.7407 43.6788 99.7428 43.6839C99.745 43.689 99.7462 43.6945 99.7462 43.7V44.6477C99.7462 44.6591 99.7416 44.6701 99.7335 44.6782C99.7255 44.6862 99.7145 44.6908 99.7031 44.6908H96.0783V46.1726H99.7031C99.7145 46.1726 99.7255 46.1771 99.7335 46.1852C99.7416 46.1933 99.7462 46.2042 99.7462 46.2156V47.1676C99.7462 47.1732 99.745 47.1787 99.7428 47.1838C99.7407 47.1889 99.7374 47.1935 99.7334 47.1973C99.7294 47.2012 99.7246 47.2041 99.7194 47.206C99.7142 47.208 99.7086 47.2088 99.7031 47.2085H96.0783V48.6925H99.7031C99.7086 48.6922 99.7142 48.693 99.7194 48.6949C99.7246 48.6969 99.7294 48.6998 99.7334 48.7037C99.7374 48.7075 99.7407 48.7121 99.7428 48.7172C99.745 48.7223 99.7462 48.7278 99.7462 48.7334V49.681C99.7451 49.6917 99.7401 49.7016 99.7321 49.7088C99.7241 49.7159 99.7138 49.7199 99.7031 49.7198ZM95.1306 49.6337H99.6535V48.7722H96.0352C96.0296 48.7722 96.0241 48.771 96.019 48.7689C96.0139 48.7667 96.0093 48.7635 96.0055 48.7594C96.0017 48.7554 95.9987 48.7506 95.9968 48.7454C95.9948 48.7402 95.994 48.7346 95.9943 48.7291V47.1676C95.994 47.162 95.9948 47.1565 95.9968 47.1513C95.9987 47.1461 96.0017 47.1413 96.0055 47.1373C96.0093 47.1332 96.0139 47.13 96.019 47.1278C96.0241 47.1256 96.0296 47.1245 96.0352 47.1245H99.6579V46.263H96.0352C96.0296 46.263 96.0241 46.2619 96.019 46.2597C96.0139 46.2575 96.0093 46.2543 96.0055 46.2503C96.0017 46.2463 95.9987 46.2415 95.9968 46.2363C95.9948 46.231 95.994 46.2255 95.9943 46.2199V44.6477C95.994 44.6421 95.9948 44.6366 95.9968 44.6314C95.9987 44.6262 96.0017 44.6214 96.0055 44.6174C96.0093 44.6133 96.0139 44.6101 96.019 44.6079C96.0241 44.6057 96.0296 44.6046 96.0352 44.6046H99.6579V43.7431H95.1349L95.1306 49.6337Z" fill="#0D735A"/>
<path d="M100.808 49.6767V43.7H101.756V48.729H105.159V49.6767H100.808Z" fill="black"/>
<path d="M100.808 49.6767V43.7H101.756V48.729H105.159V49.6767H100.808Z" fill="#0D735A"/>
<path d="M105.159 49.7198H100.808C100.797 49.7198 100.786 49.7153 100.778 49.7072C100.769 49.6991 100.765 49.6882 100.765 49.6767V43.7C100.765 43.6945 100.766 43.689 100.768 43.6839C100.77 43.6788 100.774 43.6741 100.778 43.6703C100.782 43.6665 100.786 43.6635 100.792 43.6616C100.797 43.6597 100.802 43.6588 100.808 43.6591H101.756C101.761 43.6588 101.767 43.6597 101.772 43.6616C101.777 43.6635 101.782 43.6665 101.786 43.6703C101.79 43.6741 101.793 43.6788 101.795 43.6839C101.798 43.689 101.799 43.6945 101.799 43.7V48.6882H105.159C105.164 48.6879 105.17 48.6887 105.175 48.6906C105.18 48.6926 105.185 48.6955 105.189 48.6994C105.193 48.7032 105.196 48.7078 105.198 48.7129C105.201 48.718 105.202 48.7235 105.202 48.7291V49.6767C105.202 49.6882 105.197 49.6991 105.189 49.7072C105.181 49.7153 105.17 49.7198 105.159 49.7198ZM100.851 49.6337H105.118V48.7722H101.756C101.744 48.7722 101.733 48.7676 101.725 48.7595C101.717 48.7515 101.713 48.7405 101.713 48.7291V43.7431H100.851V49.6337Z" fill="black"/>
<path d="M105.159 49.7198H100.808C100.797 49.7198 100.786 49.7153 100.778 49.7072C100.769 49.6991 100.765 49.6882 100.765 49.6767V43.7C100.765 43.6945 100.766 43.689 100.768 43.6839C100.77 43.6788 100.774 43.6741 100.778 43.6703C100.782 43.6665 100.786 43.6635 100.792 43.6616C100.797 43.6597 100.802 43.6588 100.808 43.6591H101.756C101.761 43.6588 101.767 43.6597 101.772 43.6616C101.777 43.6635 101.782 43.6665 101.786 43.6703C101.79 43.6741 101.793 43.6788 101.795 43.6839C101.798 43.689 101.799 43.6945 101.799 43.7V48.6882H105.159C105.164 48.6879 105.17 48.6887 105.175 48.6906C105.18 48.6926 105.185 48.6955 105.189 48.6994C105.193 48.7032 105.196 48.7078 105.198 48.7129C105.201 48.718 105.202 48.7235 105.202 48.7291V49.6767C105.202 49.6882 105.197 49.6991 105.189 49.7072C105.181 49.7153 105.17 49.7198 105.159 49.7198ZM100.851 49.6337H105.118V48.7722H101.756C101.744 48.7722 101.733 48.7676 101.725 48.7595C101.717 48.7515 101.713 48.7405 101.713 48.7291V43.7431H100.851V49.6337Z" fill="#0D735A"/>
<path d="M112.178 46.6895C112.178 47.3111 111.993 47.9187 111.648 48.4355C111.303 48.9523 110.812 49.3551 110.237 49.5928C109.663 49.8306 109.031 49.8927 108.422 49.7713C107.812 49.6499 107.252 49.3504 106.813 48.9107C106.373 48.471 106.074 47.9109 105.953 47.3012C105.832 46.6915 105.895 46.0596 106.133 45.4854C106.371 44.9113 106.774 44.4207 107.291 44.0757C107.808 43.7306 108.416 43.5467 109.038 43.5471C109.45 43.5471 109.859 43.6284 110.24 43.7864C110.621 43.9443 110.967 44.1758 111.259 44.4676C111.55 44.7594 111.782 45.1059 111.939 45.4871C112.097 45.8683 112.178 46.2769 112.178 46.6895ZM109.038 44.5357C108.612 44.5357 108.195 44.662 107.841 44.8987C107.487 45.1353 107.211 45.4717 107.048 45.8653C106.885 46.2588 106.842 46.6919 106.925 47.1096C107.008 47.5274 107.213 47.9112 107.515 48.2124C107.816 48.5136 108.2 48.7188 108.617 48.8019C109.035 48.885 109.468 48.8423 109.862 48.6793C110.255 48.5163 110.592 48.2402 110.828 47.886C111.065 47.5319 111.191 47.1154 111.191 46.6895C111.192 46.4059 111.138 46.1249 111.03 45.8626C110.922 45.6003 110.764 45.3619 110.564 45.161C110.363 44.96 110.126 44.8006 109.864 44.6919C109.602 44.5831 109.321 44.5271 109.038 44.5271V44.5357Z" fill="black"/>
<path d="M112.178 46.6895C112.178 47.3111 111.993 47.9187 111.648 48.4355C111.303 48.9523 110.812 49.3551 110.237 49.5928C109.663 49.8306 109.031 49.8927 108.422 49.7713C107.812 49.6499 107.252 49.3504 106.813 48.9107C106.373 48.471 106.074 47.9109 105.953 47.3012C105.832 46.6915 105.895 46.0596 106.133 45.4854C106.371 44.9113 106.774 44.4207 107.291 44.0757C107.808 43.7306 108.416 43.5467 109.038 43.5471C109.45 43.5471 109.859 43.6284 110.24 43.7864C110.621 43.9443 110.967 44.1758 111.259 44.4676C111.55 44.7594 111.782 45.1059 111.939 45.4871C112.097 45.8683 112.178 46.2769 112.178 46.6895ZM109.038 44.5357C108.612 44.5357 108.195 44.662 107.841 44.8987C107.487 45.1353 107.211 45.4717 107.048 45.8653C106.885 46.2588 106.842 46.6919 106.925 47.1096C107.008 47.5274 107.213 47.9112 107.515 48.2124C107.816 48.5136 108.2 48.7188 108.617 48.8019C109.035 48.885 109.468 48.8423 109.862 48.6793C110.255 48.5163 110.592 48.2402 110.828 47.886C111.065 47.5319 111.191 47.1154 111.191 46.6895C111.192 46.4059 111.138 46.1249 111.03 45.8626C110.922 45.6003 110.764 45.3619 110.564 45.161C110.363 44.96 110.126 44.8006 109.864 44.6919C109.602 44.5831 109.321 44.5271 109.038 44.5271V44.5357Z" fill="#0D735A"/>
<path d="M109.038 49.8727C108.407 49.8731 107.791 49.6866 107.267 49.3367C106.743 48.9869 106.334 48.4894 106.093 47.9073C105.852 47.3251 105.788 46.6845 105.911 46.0663C106.034 45.4482 106.337 44.8804 106.783 44.4348C107.229 43.9892 107.796 43.6858 108.414 43.5629C109.033 43.4401 109.673 43.5034 110.255 43.7447C110.838 43.9861 111.335 44.3947 111.685 44.9189C112.035 45.443 112.221 46.0592 112.221 46.6894C112.22 47.5333 111.884 48.3423 111.287 48.9391C110.69 49.5358 109.881 49.8715 109.038 49.8727ZM109.038 43.5901C108.425 43.5901 107.825 43.7719 107.316 44.1125C106.806 44.453 106.409 44.937 106.174 45.5034C105.94 46.0697 105.878 46.6928 105.998 47.294C106.117 47.8952 106.413 48.4475 106.846 48.8809C107.279 49.3144 107.832 49.6095 108.433 49.7291C109.034 49.8487 109.657 49.7873 110.224 49.5528C110.79 49.3182 111.274 48.9209 111.615 48.4113C111.955 47.9016 112.137 47.3024 112.137 46.6894C112.136 45.8678 111.809 45.0801 111.228 44.4992C110.647 43.9182 109.859 43.5913 109.038 43.5901ZM109.038 48.8927C108.602 48.8927 108.176 48.7635 107.813 48.5214C107.451 48.2793 107.169 47.9352 107.002 47.5326C106.835 47.13 106.792 46.687 106.877 46.2596C106.962 45.8322 107.171 45.4396 107.48 45.1314C107.788 44.8233 108.18 44.6135 108.608 44.5284C109.035 44.4434 109.478 44.4871 109.881 44.6538C110.283 44.8206 110.627 45.103 110.87 45.4653C111.112 45.8276 111.241 46.2536 111.241 46.6894C111.24 47.2732 111.007 47.8327 110.594 48.2454C110.181 48.658 109.621 48.89 109.038 48.8906V48.8927ZM109.038 44.5701C108.618 44.5697 108.208 44.6936 107.86 44.9262C107.511 45.1588 107.239 45.4897 107.078 45.8769C106.917 46.2641 106.875 46.6903 106.957 47.1015C107.038 47.5128 107.24 47.8906 107.536 48.1872C107.832 48.4838 108.21 48.6859 108.621 48.7678C109.032 48.8498 109.459 48.8079 109.846 48.6476C110.233 48.4873 110.564 48.2156 110.797 47.8671C111.03 47.5185 111.155 47.1087 111.155 46.6894C111.155 46.1277 110.932 45.589 110.535 45.1916C110.138 44.7942 109.599 44.5707 109.038 44.5701Z" fill="black"/>
<path d="M109.038 49.8727C108.407 49.8731 107.791 49.6866 107.267 49.3367C106.743 48.9869 106.334 48.4894 106.093 47.9073C105.852 47.3251 105.788 46.6845 105.911 46.0663C106.034 45.4482 106.337 44.8804 106.783 44.4348C107.229 43.9892 107.796 43.6858 108.414 43.5629C109.033 43.4401 109.673 43.5034 110.255 43.7447C110.838 43.9861 111.335 44.3947 111.685 44.9189C112.035 45.443 112.221 46.0592 112.221 46.6894C112.22 47.5333 111.884 48.3423 111.287 48.9391C110.69 49.5358 109.881 49.8715 109.038 49.8727ZM109.038 43.5901C108.425 43.5901 107.825 43.7719 107.316 44.1125C106.806 44.453 106.409 44.937 106.174 45.5034C105.94 46.0697 105.878 46.6928 105.998 47.294C106.117 47.8952 106.413 48.4475 106.846 48.8809C107.279 49.3144 107.832 49.6095 108.433 49.7291C109.034 49.8487 109.657 49.7873 110.224 49.5528C110.79 49.3182 111.274 48.9209 111.615 48.4113C111.955 47.9016 112.137 47.3024 112.137 46.6894C112.136 45.8678 111.809 45.0801 111.228 44.4992C110.647 43.9182 109.859 43.5913 109.038 43.5901ZM109.038 48.8927C108.602 48.8927 108.176 48.7635 107.813 48.5214C107.451 48.2793 107.169 47.9352 107.002 47.5326C106.835 47.13 106.792 46.687 106.877 46.2596C106.962 45.8322 107.171 45.4396 107.48 45.1314C107.788 44.8233 108.18 44.6135 108.608 44.5284C109.035 44.4434 109.478 44.4871 109.881 44.6538C110.283 44.8206 110.627 45.103 110.87 45.4653C111.112 45.8276 111.241 46.2536 111.241 46.6894C111.24 47.2732 111.007 47.8327 110.594 48.2454C110.181 48.658 109.621 48.89 109.038 48.8906V48.8927ZM109.038 44.5701C108.618 44.5697 108.208 44.6936 107.86 44.9262C107.511 45.1588 107.239 45.4897 107.078 45.8769C106.917 46.2641 106.875 46.6903 106.957 47.1015C107.038 47.5128 107.24 47.8906 107.536 48.1872C107.832 48.4838 108.21 48.6859 108.621 48.7678C109.032 48.8498 109.459 48.8079 109.846 48.6476C110.233 48.4873 110.564 48.2156 110.797 47.8671C111.03 47.5185 111.155 47.1087 111.155 46.6894C111.155 46.1277 110.932 45.589 110.535 45.1916C110.138 44.7942 109.599 44.5707 109.038 44.5701Z" fill="#0D735A"/>
<path d="M121.473 43.7H122.488L120.009 49.6767H118.977L116.507 43.7H117.534C118.19 45.288 118.845 46.8746 119.498 48.4598L121.473 43.7Z" fill="black"/>
<path d="M121.473 43.7H122.488L120.009 49.6767H118.977L116.507 43.7H117.534C118.19 45.288 118.845 46.8746 119.498 48.4598L121.473 43.7Z" fill="#0D735A"/>
<path d="M120.017 49.7197H118.977C118.969 49.7195 118.961 49.717 118.954 49.7124C118.947 49.7079 118.942 49.7014 118.938 49.6938L116.468 43.7214C116.464 43.7152 116.463 43.7081 116.463 43.701C116.463 43.6938 116.464 43.6867 116.468 43.6805C116.472 43.6749 116.477 43.6703 116.483 43.6673C116.489 43.6643 116.496 43.6629 116.502 43.6633H117.534C117.543 43.6628 117.551 43.6651 117.558 43.6697C117.565 43.6744 117.57 43.6812 117.573 43.6891C118.004 44.7143 118.427 45.7395 118.844 46.7647L119.49 48.3542L121.428 43.6891C121.431 43.681 121.437 43.6741 121.444 43.6695C121.452 43.6648 121.46 43.6627 121.469 43.6633H122.488C122.495 43.6626 122.502 43.6638 122.509 43.6668C122.515 43.6699 122.521 43.6746 122.525 43.6805C122.529 43.6864 122.532 43.6933 122.532 43.7005C122.533 43.7077 122.532 43.7149 122.529 43.7214L120.05 49.6981C120.046 49.704 120.042 49.709 120.036 49.7127C120.031 49.7165 120.024 49.7189 120.017 49.7197ZM119.005 49.6335H119.989L122.434 43.743H121.501L119.537 48.4813C119.533 48.489 119.528 48.4955 119.52 48.5001C119.513 48.5047 119.505 48.5071 119.496 48.5071C119.488 48.507 119.48 48.5044 119.473 48.4999C119.466 48.4953 119.461 48.4888 119.457 48.4813L118.762 46.797C118.344 45.7804 117.924 44.7638 117.502 43.7473H116.571L119.005 49.6335Z" fill="black"/>
<path d="M120.017 49.7197H118.977C118.969 49.7195 118.961 49.717 118.954 49.7124C118.947 49.7079 118.942 49.7014 118.938 49.6938L116.468 43.7214C116.464 43.7152 116.463 43.7081 116.463 43.701C116.463 43.6938 116.464 43.6867 116.468 43.6805C116.472 43.6749 116.477 43.6703 116.483 43.6673C116.489 43.6643 116.496 43.6629 116.502 43.6633H117.534C117.543 43.6628 117.551 43.6651 117.558 43.6697C117.565 43.6744 117.57 43.6812 117.573 43.6891C118.004 44.7143 118.427 45.7395 118.844 46.7647L119.49 48.3542L121.428 43.6891C121.431 43.681 121.437 43.6741 121.444 43.6695C121.452 43.6648 121.46 43.6627 121.469 43.6633H122.488C122.495 43.6626 122.502 43.6638 122.509 43.6668C122.515 43.6699 122.521 43.6746 122.525 43.6805C122.529 43.6864 122.532 43.6933 122.532 43.7005C122.533 43.7077 122.532 43.7149 122.529 43.7214L120.05 49.6981C120.046 49.704 120.042 49.709 120.036 49.7127C120.031 49.7165 120.024 49.7189 120.017 49.7197ZM119.005 49.6335H119.989L122.434 43.743H121.501L119.537 48.4813C119.533 48.489 119.528 48.4955 119.52 48.5001C119.513 48.5047 119.505 48.5071 119.496 48.5071C119.488 48.507 119.48 48.5044 119.473 48.4999C119.466 48.4953 119.461 48.4888 119.457 48.4813L118.762 46.797C118.344 45.7804 117.924 44.7638 117.502 43.7473H116.571L119.005 49.6335Z" fill="#0D735A"/>
<path d="M128.223 49.6767H123.61V43.7H128.223V44.6476H124.562V46.2156H128.223V47.1675H124.562V48.7333H128.223V49.6767Z" fill="black"/>
<path d="M128.223 49.6767H123.61V43.7H128.223V44.6476H124.562V46.2156H128.223V47.1675H124.562V48.7333H128.223V49.6767Z" fill="#0D735A"/>
<path d="M128.223 49.7198H123.61C123.599 49.7198 123.588 49.7153 123.58 49.7072C123.571 49.6991 123.567 49.6882 123.567 49.6767V43.7C123.567 43.6945 123.568 43.689 123.57 43.6839C123.572 43.6788 123.576 43.6741 123.58 43.6703C123.584 43.6665 123.588 43.6635 123.594 43.6616C123.599 43.6597 123.604 43.6588 123.61 43.6591H128.223C128.229 43.6588 128.234 43.6597 128.24 43.6616C128.245 43.6635 128.25 43.6665 128.254 43.6703C128.258 43.6741 128.261 43.6788 128.263 43.6839C128.265 43.689 128.266 43.6945 128.266 43.7V44.6477C128.266 44.6591 128.262 44.6701 128.254 44.6782C128.246 44.6862 128.235 44.6908 128.223 44.6908H124.599V46.1726H128.223C128.235 46.1726 128.246 46.1771 128.254 46.1852C128.262 46.1933 128.266 46.2042 128.266 46.2156V47.1676C128.266 47.1732 128.265 47.1787 128.263 47.1838C128.261 47.1889 128.258 47.1935 128.254 47.1973C128.25 47.2012 128.245 47.2041 128.24 47.206C128.234 47.208 128.229 47.2088 128.223 47.2085H124.599V48.6925H128.223C128.229 48.6922 128.234 48.693 128.24 48.6949C128.245 48.6969 128.25 48.6998 128.254 48.7037C128.258 48.7075 128.261 48.7121 128.263 48.7172C128.265 48.7223 128.266 48.7278 128.266 48.7334V49.681C128.265 49.6917 128.26 49.7016 128.252 49.7088C128.244 49.7159 128.234 49.7199 128.223 49.7198ZM123.651 49.6337H128.174V48.7722H124.555C124.544 48.7722 124.533 48.7676 124.525 48.7595C124.517 48.7515 124.512 48.7405 124.512 48.7291V47.1676C124.512 47.1562 124.517 47.1452 124.525 47.1371C124.533 47.1291 124.544 47.1245 124.555 47.1245H128.18V46.263H124.555C124.544 46.263 124.533 46.2585 124.525 46.2504C124.517 46.2423 124.512 46.2314 124.512 46.2199V44.6477C124.512 44.6363 124.517 44.6253 124.525 44.6172C124.533 44.6092 124.544 44.6046 124.555 44.6046H128.18V43.7431H123.657L123.651 49.6337Z" fill="black"/>
<path d="M128.223 49.7198H123.61C123.599 49.7198 123.588 49.7153 123.58 49.7072C123.571 49.6991 123.567 49.6882 123.567 49.6767V43.7C123.567 43.6945 123.568 43.689 123.57 43.6839C123.572 43.6788 123.576 43.6741 123.58 43.6703C123.584 43.6665 123.588 43.6635 123.594 43.6616C123.599 43.6597 123.604 43.6588 123.61 43.6591H128.223C128.229 43.6588 128.234 43.6597 128.24 43.6616C128.245 43.6635 128.25 43.6665 128.254 43.6703C128.258 43.6741 128.261 43.6788 128.263 43.6839C128.265 43.689 128.266 43.6945 128.266 43.7V44.6477C128.266 44.6591 128.262 44.6701 128.254 44.6782C128.246 44.6862 128.235 44.6908 128.223 44.6908H124.599V46.1726H128.223C128.235 46.1726 128.246 46.1771 128.254 46.1852C128.262 46.1933 128.266 46.2042 128.266 46.2156V47.1676C128.266 47.1732 128.265 47.1787 128.263 47.1838C128.261 47.1889 128.258 47.1935 128.254 47.1973C128.25 47.2012 128.245 47.2041 128.24 47.206C128.234 47.208 128.229 47.2088 128.223 47.2085H124.599V48.6925H128.223C128.229 48.6922 128.234 48.693 128.24 48.6949C128.245 48.6969 128.25 48.6998 128.254 48.7037C128.258 48.7075 128.261 48.7121 128.263 48.7172C128.265 48.7223 128.266 48.7278 128.266 48.7334V49.681C128.265 49.6917 128.26 49.7016 128.252 49.7088C128.244 49.7159 128.234 49.7199 128.223 49.7198ZM123.651 49.6337H128.174V48.7722H124.555C124.544 48.7722 124.533 48.7676 124.525 48.7595C124.517 48.7515 124.512 48.7405 124.512 48.7291V47.1676C124.512 47.1562 124.517 47.1452 124.525 47.1371C124.533 47.1291 124.544 47.1245 124.555 47.1245H128.18V46.263H124.555C124.544 46.263 124.533 46.2585 124.525 46.2504C124.517 46.2423 124.512 46.2314 124.512 46.2199V44.6477C124.512 44.6363 124.517 44.6253 124.525 44.6172C124.533 44.6092 124.544 44.6046 124.555 44.6046H128.18V43.7431H123.657L123.651 49.6337Z" fill="#0D735A"/>
<path d="M130.276 47.1675V49.681H129.328V43.7H132.328C132.77 43.7025 133.194 43.8732 133.514 44.1773C133.834 44.4814 134.026 44.896 134.051 45.3368V45.3476C134.07 45.7622 133.939 46.1697 133.683 46.4964C133.427 46.8231 133.063 47.0474 132.656 47.1288L134.241 49.6767H133.125L131.568 47.1675H130.276ZM130.276 46.2199H132.337C132.545 46.2199 132.744 46.1373 132.891 45.9902C133.038 45.8432 133.121 45.6438 133.121 45.4359C133.121 45.228 133.038 45.0286 132.891 44.8815C132.744 44.7345 132.545 44.6519 132.337 44.6519H130.276V46.2199Z" fill="black"/>
<path d="M130.276 47.1675V49.681H129.328V43.7H132.328C132.77 43.7025 133.194 43.8732 133.514 44.1773C133.834 44.4814 134.026 44.896 134.051 45.3368V45.3476C134.07 45.7622 133.939 46.1697 133.683 46.4964C133.427 46.8231 133.063 47.0474 132.656 47.1288L134.241 49.6767H133.125L131.568 47.1675H130.276ZM130.276 46.2199H132.337C132.545 46.2199 132.744 46.1373 132.891 45.9902C133.038 45.8432 133.121 45.6438 133.121 45.4359C133.121 45.228 133.038 45.0286 132.891 44.8815C132.744 44.7345 132.545 44.6519 132.337 44.6519H130.276V46.2199Z" fill="#0D735A"/>
<path d="M134.247 49.7198H133.132C133.125 49.7197 133.118 49.7179 133.112 49.7145C133.106 49.7111 133.101 49.7063 133.097 49.7004L131.544 47.2042H130.319V49.6767C130.319 49.6824 130.318 49.688 130.316 49.6932C130.314 49.6984 130.31 49.7032 130.306 49.7072C130.302 49.7112 130.298 49.7143 130.292 49.7165C130.287 49.7187 130.282 49.7198 130.276 49.7198H129.328C129.317 49.7198 129.306 49.7152 129.298 49.7072C129.29 49.6991 129.285 49.6881 129.285 49.6767V43.7C129.285 43.6944 129.286 43.6889 129.288 43.6838C129.291 43.6787 129.294 43.6741 129.298 43.6703C129.302 43.6664 129.307 43.6635 129.312 43.6616C129.317 43.6596 129.323 43.6588 129.328 43.6591H132.328C132.772 43.6472 133.203 43.8018 133.538 44.0924C133.873 44.383 134.086 44.7885 134.137 45.2288C134.187 45.6692 134.071 46.1126 133.811 46.4715C133.551 46.8304 133.165 47.0787 132.731 47.1676L134.284 49.6638C134.288 49.6702 134.291 49.6777 134.291 49.6853C134.291 49.693 134.288 49.7005 134.284 49.7069C134.28 49.7119 134.274 49.7157 134.267 49.7179C134.261 49.7202 134.254 49.7208 134.247 49.7198ZM133.155 49.6336H134.17L132.626 47.1525C132.622 47.1465 132.621 47.1399 132.621 47.1331C132.621 47.1263 132.622 47.1197 132.626 47.1137C132.628 47.1072 132.632 47.1014 132.637 47.0969C132.643 47.0924 132.649 47.0893 132.656 47.0879C133.067 47.0063 133.433 46.7749 133.683 46.4386C133.932 46.1024 134.048 45.6852 134.008 45.2682C133.967 44.8512 133.773 44.4642 133.463 44.1824C133.153 43.9005 132.75 43.7439 132.331 43.7431H129.38V49.6336H130.241V47.1676C130.241 47.1561 130.246 47.1452 130.254 47.1371C130.262 47.129 130.273 47.1245 130.285 47.1245H131.577C131.584 47.1241 131.591 47.1257 131.597 47.1291C131.603 47.1326 131.608 47.1377 131.611 47.1439L133.155 49.6336ZM132.337 46.2587H130.276C130.264 46.2587 130.254 46.2541 130.245 46.2461C130.237 46.238 130.233 46.227 130.233 46.2156V44.6477C130.233 44.6362 130.237 44.6253 130.245 44.6172C130.254 44.6091 130.264 44.6046 130.276 44.6046H132.337C132.556 44.6046 132.767 44.6917 132.922 44.8468C133.077 45.0019 133.164 45.2123 133.164 45.4316C133.164 45.651 133.077 45.8613 132.922 46.0164C132.767 46.1715 132.556 46.2587 132.337 46.2587ZM130.319 46.1725H132.337C132.534 46.1725 132.722 46.0945 132.861 45.9555C133 45.8166 133.078 45.6281 133.078 45.4316C133.078 45.2351 133 45.0467 132.861 44.9077C132.722 44.7688 132.534 44.6907 132.337 44.6907H130.319V46.1725Z" fill="black"/>
<path d="M134.247 49.7198H133.132C133.125 49.7197 133.118 49.7179 133.112 49.7145C133.106 49.7111 133.101 49.7063 133.097 49.7004L131.544 47.2042H130.319V49.6767C130.319 49.6824 130.318 49.688 130.316 49.6932C130.314 49.6984 130.31 49.7032 130.306 49.7072C130.302 49.7112 130.298 49.7143 130.292 49.7165C130.287 49.7187 130.282 49.7198 130.276 49.7198H129.328C129.317 49.7198 129.306 49.7152 129.298 49.7072C129.29 49.6991 129.285 49.6881 129.285 49.6767V43.7C129.285 43.6944 129.286 43.6889 129.288 43.6838C129.291 43.6787 129.294 43.6741 129.298 43.6703C129.302 43.6664 129.307 43.6635 129.312 43.6616C129.317 43.6596 129.323 43.6588 129.328 43.6591H132.328C132.772 43.6472 133.203 43.8018 133.538 44.0924C133.873 44.383 134.086 44.7885 134.137 45.2288C134.187 45.6692 134.071 46.1126 133.811 46.4715C133.551 46.8304 133.165 47.0787 132.731 47.1676L134.284 49.6638C134.288 49.6702 134.291 49.6777 134.291 49.6853C134.291 49.693 134.288 49.7005 134.284 49.7069C134.28 49.7119 134.274 49.7157 134.267 49.7179C134.261 49.7202 134.254 49.7208 134.247 49.7198ZM133.155 49.6336H134.17L132.626 47.1525C132.622 47.1465 132.621 47.1399 132.621 47.1331C132.621 47.1263 132.622 47.1197 132.626 47.1137C132.628 47.1072 132.632 47.1014 132.637 47.0969C132.643 47.0924 132.649 47.0893 132.656 47.0879C133.067 47.0063 133.433 46.7749 133.683 46.4386C133.932 46.1024 134.048 45.6852 134.008 45.2682C133.967 44.8512 133.773 44.4642 133.463 44.1824C133.153 43.9005 132.75 43.7439 132.331 43.7431H129.38V49.6336H130.241V47.1676C130.241 47.1561 130.246 47.1452 130.254 47.1371C130.262 47.129 130.273 47.1245 130.285 47.1245H131.577C131.584 47.1241 131.591 47.1257 131.597 47.1291C131.603 47.1326 131.608 47.1377 131.611 47.1439L133.155 49.6336ZM132.337 46.2587H130.276C130.264 46.2587 130.254 46.2541 130.245 46.2461C130.237 46.238 130.233 46.227 130.233 46.2156V44.6477C130.233 44.6362 130.237 44.6253 130.245 44.6172C130.254 44.6091 130.264 44.6046 130.276 44.6046H132.337C132.556 44.6046 132.767 44.6917 132.922 44.8468C133.077 45.0019 133.164 45.2123 133.164 45.4316C133.164 45.651 133.077 45.8613 132.922 46.0164C132.767 46.1715 132.556 46.2587 132.337 46.2587ZM130.319 46.1725H132.337C132.534 46.1725 132.722 46.0945 132.861 45.9555C133 45.8166 133.078 45.6281 133.078 45.4316C133.078 45.2351 133 45.0467 132.861 44.9077C132.722 44.7688 132.534 44.6907 132.337 44.6907H130.319V46.1725Z" fill="#0D735A"/>
<path d="M137.006 48.2444L136.397 49.6767H135.354C136.203 47.6851 137.051 45.6929 137.898 43.7H138.941L141.484 49.6767H140.442L139.832 48.2444H137.006ZM137.42 47.2731H139.419L138.426 44.9211C138.088 45.7008 137.753 46.4848 137.42 47.2731Z" fill="black"/>
<path d="M137.006 48.2444L136.397 49.6767H135.354C136.203 47.6851 137.051 45.6929 137.898 43.7H138.941L141.484 49.6767H140.442L139.832 48.2444H137.006ZM137.42 47.2731H139.419L138.426 44.9211C138.088 45.7008 137.753 46.4848 137.42 47.2731Z" fill="#0D735A"/>
<path d="M141.484 49.7198H140.442C140.433 49.7197 140.425 49.7172 140.418 49.7126C140.412 49.708 140.406 49.7015 140.403 49.694L139.804 48.2876H137.034L136.436 49.694C136.432 49.7015 136.427 49.708 136.42 49.7126C136.413 49.7172 136.405 49.7197 136.397 49.7198H135.354C135.347 49.72 135.341 49.7183 135.335 49.7149C135.328 49.7114 135.323 49.7065 135.32 49.7004C135.317 49.6941 135.315 49.6871 135.315 49.68C135.315 49.6729 135.317 49.6659 135.32 49.6595L136.229 47.5273L137.864 43.685C137.866 43.677 137.872 43.6702 137.879 43.6656C137.886 43.6609 137.894 43.6586 137.902 43.6591H138.945C138.953 43.6586 138.961 43.6609 138.968 43.6656C138.975 43.6702 138.981 43.677 138.984 43.685L141.527 49.6595C141.53 49.6659 141.532 49.6729 141.532 49.68C141.532 49.6871 141.53 49.6941 141.527 49.7004C141.523 49.7077 141.516 49.7135 141.509 49.717C141.501 49.7204 141.492 49.7214 141.484 49.7198ZM140.47 49.6337H141.419L138.912 43.7431H137.926L136.304 47.5596L135.41 49.6337H136.36L136.957 48.2273C136.961 48.2197 136.967 48.2133 136.974 48.2087C136.981 48.2042 136.989 48.2016 136.998 48.2014H139.823C139.832 48.2016 139.84 48.2042 139.847 48.2087C139.855 48.2133 139.861 48.2197 139.864 48.2273L140.47 49.6337ZM139.419 47.3162H137.42C137.413 47.316 137.406 47.3141 137.399 47.3107C137.393 47.3074 137.387 47.3026 137.383 47.2968C137.38 47.2905 137.378 47.2835 137.378 47.2764C137.378 47.2693 137.38 47.2623 137.383 47.2559C137.655 46.6227 137.925 45.9888 138.193 45.3541L138.383 44.904C138.386 44.8968 138.392 44.8908 138.399 44.8866C138.406 44.8824 138.414 44.8802 138.422 44.8802C138.431 44.8802 138.439 44.8824 138.446 44.8866C138.453 44.8908 138.458 44.8968 138.462 44.904L139.464 47.2559C139.467 47.2623 139.469 47.2693 139.469 47.2764C139.469 47.2835 139.467 47.2905 139.464 47.2968C139.459 47.3039 139.452 47.3094 139.444 47.3129C139.436 47.3163 139.427 47.3174 139.419 47.3162ZM137.48 47.2301H139.35L138.426 45.0289L138.275 45.3864L137.48 47.2301Z" fill="black"/>
<path d="M141.484 49.7198H140.442C140.433 49.7197 140.425 49.7172 140.418 49.7126C140.412 49.708 140.406 49.7015 140.403 49.694L139.804 48.2876H137.034L136.436 49.694C136.432 49.7015 136.427 49.708 136.42 49.7126C136.413 49.7172 136.405 49.7197 136.397 49.7198H135.354C135.347 49.72 135.341 49.7183 135.335 49.7149C135.328 49.7114 135.323 49.7065 135.32 49.7004C135.317 49.6941 135.315 49.6871 135.315 49.68C135.315 49.6729 135.317 49.6659 135.32 49.6595L136.229 47.5273L137.864 43.685C137.866 43.677 137.872 43.6702 137.879 43.6656C137.886 43.6609 137.894 43.6586 137.902 43.6591H138.945C138.953 43.6586 138.961 43.6609 138.968 43.6656C138.975 43.6702 138.981 43.677 138.984 43.685L141.527 49.6595C141.53 49.6659 141.532 49.6729 141.532 49.68C141.532 49.6871 141.53 49.6941 141.527 49.7004C141.523 49.7077 141.516 49.7135 141.509 49.717C141.501 49.7204 141.492 49.7214 141.484 49.7198ZM140.47 49.6337H141.419L138.912 43.7431H137.926L136.304 47.5596L135.41 49.6337H136.36L136.957 48.2273C136.961 48.2197 136.967 48.2133 136.974 48.2087C136.981 48.2042 136.989 48.2016 136.998 48.2014H139.823C139.832 48.2016 139.84 48.2042 139.847 48.2087C139.855 48.2133 139.861 48.2197 139.864 48.2273L140.47 49.6337ZM139.419 47.3162H137.42C137.413 47.316 137.406 47.3141 137.399 47.3107C137.393 47.3074 137.387 47.3026 137.383 47.2968C137.38 47.2905 137.378 47.2835 137.378 47.2764C137.378 47.2693 137.38 47.2623 137.383 47.2559C137.655 46.6227 137.925 45.9888 138.193 45.3541L138.383 44.904C138.386 44.8968 138.392 44.8908 138.399 44.8866C138.406 44.8824 138.414 44.8802 138.422 44.8802C138.431 44.8802 138.439 44.8824 138.446 44.8866C138.453 44.8908 138.458 44.8968 138.462 44.904L139.464 47.2559C139.467 47.2623 139.469 47.2693 139.469 47.2764C139.469 47.2835 139.467 47.2905 139.464 47.2968C139.459 47.3039 139.452 47.3094 139.444 47.3129C139.436 47.3163 139.427 47.3174 139.419 47.3162ZM137.48 47.2301H139.35L138.426 45.0289L138.275 45.3864L137.48 47.2301Z" fill="#0D735A"/>
<path d="M105.611 33.1013L112.311 21.9706L108.693 16.0973L98.4324 33.1013H105.611Z" fill="url(#paint0_linear_144_3645)"/>
<path d="M70.7414 33.1012L82.8133 13.2004L79.1949 7.32703L63.5586 33.1012H70.7414Z" fill="url(#paint1_linear_144_3645)"/>
<path d="M83.1406 33.1013L94.5469 14.3011L90.9286 8.42773L75.9578 33.1013H83.1406Z" fill="url(#paint2_linear_144_3645)"/>
<path d="M105.223 33.1012L97.502 19.8405L93.8837 25.7138L98.3829 33.1012H105.223Z" fill="black"/>
<path d="M105.223 33.1012L97.502 19.8405L93.8837 25.7138L98.3829 33.1012H105.223Z" fill="#FF0000"/>
<defs>
<linearGradient id="paint0_linear_144_3645" x1="111.502" y1="13.6003" x2="100.926" y2="39.9693" gradientUnits="userSpaceOnUse">
<stop offset="0.65" stop-color="#0D735A"/>
<stop offset="1" stop-color="#252720"/>
</linearGradient>
<linearGradient id="paint1_linear_144_3645" x1="81.6904" y1="3.5421" x2="64.6332" y2="42.4666" gradientUnits="userSpaceOnUse">
<stop offset="0.65" stop-color="#0D735A"/>
<stop offset="1" stop-color="#252720"/>
</linearGradient>
<linearGradient id="paint2_linear_144_3645" x1="93.4629" y1="4.80442" x2="77.2277" y2="42.1679" gradientUnits="userSpaceOnUse">
<stop offset="0.65" stop-color="#0D735A"/>
<stop offset="1" stop-color="#252720"/>
</linearGradient>
</defs>
</svg>
