<svg width="143" height="28" viewBox="0 0 143 28" fill="none" xmlns="http://www.w3.org/2000/svg">
<g clip-path="url(#clip0_159_2996)">
<path d="M14.7278 16.1L19.8398 27.2916H9.64966L14.5081 16.1C14.5169 16.0781 14.5321 16.0593 14.5517 16.0461C14.5712 16.0328 14.5943 16.0258 14.618 16.0258C14.6416 16.0258 14.6647 16.0328 14.6843 16.0461C14.7039 16.0593 14.7191 16.0781 14.7278 16.1Z" fill="black"/>
<path d="M14.7278 16.1L19.8398 27.2916H9.64966L14.5081 16.1C14.5169 16.0781 14.5321 16.0593 14.5517 16.0461C14.5712 16.0328 14.5943 16.0258 14.618 16.0258C14.6416 16.0258 14.6647 16.0328 14.6843 16.0461C14.7039 16.0593 14.7191 16.0781 14.7278 16.1Z" fill="#0D735A"/>
<path d="M65.4583 7.38793L68.9986 15.1807H61.9348L65.3146 7.42166C65.3205 7.40867 65.3293 7.3972 65.3403 7.38814C65.3513 7.37908 65.3642 7.37267 65.3781 7.36941C65.392 7.36615 65.4064 7.36612 65.4204 7.36933C65.4343 7.37254 65.4472 7.37891 65.4583 7.38793V7.38793Z" fill="black"/>
<path d="M65.4583 7.38793L68.9986 15.1807H61.9348L65.3146 7.42166C65.3205 7.40867 65.3293 7.3972 65.3403 7.38814C65.3513 7.37908 65.3642 7.37267 65.3781 7.36941C65.392 7.36615 65.4064 7.36612 65.4204 7.36933C65.4343 7.37254 65.4472 7.37891 65.4583 7.38793V7.38793Z" fill="#0D735A"/>
<path d="M40.6256 19.7855C41.5029 19.7855 42.2141 19.0757 42.2141 18.2C42.2141 17.3243 41.5029 16.6144 40.6256 16.6144C39.7483 16.6144 39.0371 17.3243 39.0371 18.2C39.0371 19.0757 39.7483 19.7855 40.6256 19.7855Z" fill="black"/>
<path d="M40.6256 19.7855C41.5029 19.7855 42.2141 19.0757 42.2141 18.2C42.2141 17.3243 41.5029 16.6144 40.6256 16.6144C39.7483 16.6144 39.0371 17.3243 39.0371 18.2C39.0371 19.0757 39.7483 19.7855 40.6256 19.7855Z" fill="#FF0000"/>
<path d="M141.412 19.7855C142.289 19.7855 143 19.0757 143 18.2C143 17.3243 142.289 16.6144 141.412 16.6144C140.534 16.6144 139.823 17.3243 139.823 18.2C139.823 19.0757 140.534 19.7855 141.412 19.7855Z" fill="black"/>
<path d="M141.412 19.7855C142.289 19.7855 143 19.0757 143 18.2C143 17.3243 142.289 16.6144 141.412 16.6144C140.534 16.6144 139.823 17.3243 139.823 18.2C139.823 19.0757 140.534 19.7855 141.412 19.7855Z" fill="#FF0000"/>
<path d="M61.1323 14.3373C61.1255 14.4458 61.1539 14.5536 61.2133 14.6447C61.2726 14.7359 61.3598 14.8055 61.4619 14.8433V15.0036H57.4568V14.8349C57.7779 14.7843 57.8708 14.5566 58.0145 14.3373C58.1945 14.0662 58.3582 13.7846 58.5045 13.4939L63.2532 2.88431C63.3261 2.73897 63.391 2.58975 63.4475 2.43732C63.5102 2.25283 63.5388 2.05852 63.532 1.86383C63.5476 1.67803 63.49 1.49349 63.3715 1.34937C63.2193 1.20752 63.0416 1.0959 62.8476 1.02045V0.683105H68.2468V1.02045C68.0649 1.09108 67.9005 1.20045 67.7652 1.34094C67.701 1.40175 67.6499 1.475 67.615 1.55621C67.5802 1.63742 67.5623 1.72487 67.5624 1.81323C67.5501 1.99665 67.5614 2.18089 67.5962 2.36142C67.6559 2.56121 67.7381 2.75361 67.8413 2.93491L72.666 13.2241C72.8217 13.5337 72.9938 13.8349 73.1814 14.1265C73.3588 14.3964 73.5109 14.7337 73.9503 14.818V15.012H69.4213V14.8518C69.55 14.8076 69.662 14.7252 69.7424 14.6156C69.8523 14.447 69.7424 14.1096 69.4805 13.4939C69.2185 12.8783 65.467 4.46142 65.467 4.46142C65.467 4.46142 61.1746 13.9747 61.1323 14.3373Z" fill="black"/>
<path d="M61.1323 14.3373C61.1255 14.4458 61.1539 14.5536 61.2133 14.6447C61.2726 14.7359 61.3598 14.8055 61.4619 14.8433V15.0036H57.4568V14.8349C57.7779 14.7843 57.8708 14.5566 58.0145 14.3373C58.1945 14.0662 58.3582 13.7846 58.5045 13.4939L63.2532 2.88431C63.3261 2.73897 63.391 2.58975 63.4475 2.43732C63.5102 2.25283 63.5388 2.05852 63.532 1.86383C63.5476 1.67803 63.49 1.49349 63.3715 1.34937C63.2193 1.20752 63.0416 1.0959 62.8476 1.02045V0.683105H68.2468V1.02045C68.0649 1.09108 67.9005 1.20045 67.7652 1.34094C67.701 1.40175 67.6499 1.475 67.615 1.55621C67.5802 1.63742 67.5623 1.72487 67.5624 1.81323C67.5501 1.99665 67.5614 2.18089 67.5962 2.36142C67.6559 2.56121 67.7381 2.75361 67.8413 2.93491L72.666 13.2241C72.8217 13.5337 72.9938 13.8349 73.1814 14.1265C73.3588 14.3964 73.5109 14.7337 73.9503 14.818V15.012H69.4213V14.8518C69.55 14.8076 69.662 14.7252 69.7424 14.6156C69.8523 14.447 69.7424 14.1096 69.4805 13.4939C69.2185 12.8783 65.467 4.46142 65.467 4.46142C65.467 4.46142 61.1746 13.9747 61.1323 14.3373Z" fill="#0D735A"/>
<path d="M79.0959 13.6964C79.0599 14.0043 79.0828 14.3163 79.1635 14.6157C79.248 14.7506 79.2396 14.7759 79.4761 14.7928V15.012H75.5302V14.8687C75.9104 14.9108 75.8597 14.2024 75.8597 13.6964V1.96506C75.8902 1.75357 75.8391 1.53843 75.7168 1.3631C75.5944 1.18777 75.41 1.06531 75.2007 1.02048V0.683133H87.6384C88.1031 0.683133 88.1876 0.573494 88.3651 0H88.7199V3.93012H88.3904C88.379 3.70606 88.2928 3.49228 88.1454 3.32289C88.0069 3.22035 87.8355 3.17231 87.6638 3.18795H79.0959V6.62892H84.4952C85.0106 6.62892 85.2556 6.56145 85.3401 5.98795H85.7457V9.80843H85.3824C85.3259 9.56287 85.2163 9.3326 85.0613 9.13373C84.9177 8.99036 84.7149 9.0241 84.4614 9.0241H79.0959V13.6964Z" fill="black"/>
<path d="M79.0959 13.6964C79.0599 14.0043 79.0828 14.3163 79.1635 14.6157C79.248 14.7506 79.2396 14.7759 79.4761 14.7928V15.012H75.5302V14.8687C75.9104 14.9108 75.8597 14.2024 75.8597 13.6964V1.96506C75.8902 1.75357 75.8391 1.53843 75.7168 1.3631C75.5944 1.18777 75.41 1.06531 75.2007 1.02048V0.683133H87.6384C88.1031 0.683133 88.1876 0.573494 88.3651 0H88.7199V3.93012H88.3904C88.379 3.70606 88.2928 3.49228 88.1454 3.32289C88.0069 3.22035 87.8355 3.17231 87.6638 3.18795H79.0959V6.62892H84.4952C85.0106 6.62892 85.2556 6.56145 85.3401 5.98795H85.7457V9.80843H85.3824C85.3259 9.56287 85.2163 9.3326 85.0613 9.13373C84.9177 8.99036 84.7149 9.0241 84.4614 9.0241H79.0959V13.6964Z" fill="#0D735A"/>
<path d="M94.3052 13.7048C94.3052 13.9662 94.1953 14.7674 94.6347 14.7674V15.012H90.7225V14.9108C91.2549 14.7759 91.2464 14.2024 91.2464 13.6964V1.96504C91.2539 1.73084 91.1714 1.50264 91.0159 1.32708C90.8605 1.15151 90.6437 1.04184 90.4099 1.02046V0.683109H99.3157C100.688 0.614811 102.054 0.905538 103.279 1.52648C104.343 2.08311 104.876 3.21323 104.876 4.89998C104.876 6.09757 104.723 7.37106 104.031 7.99516C103.263 8.71133 102.313 9.20421 101.284 9.42046L103.667 12.9542C104.098 13.5446 104.816 14.4554 104.918 14.5397C105.017 14.6178 105.138 14.6648 105.264 14.6747V15.0205H101.039V14.6747C101.53 14.6156 97.8962 9.56383 97.8962 9.56383H94.2629L94.3052 13.7048ZM99.3749 7.02528C100.01 7.05639 100.644 6.9618 101.242 6.74696C101.715 6.54456 101.952 5.62528 101.952 4.95901C101.991 4.69027 101.945 4.41597 101.819 4.1752C101.693 3.93443 101.494 3.73945 101.251 3.61805C100.65 3.40244 100.013 3.30506 99.3749 3.3313H94.3052V7.02528H99.3749Z" fill="black"/>
<path d="M94.3052 13.7048C94.3052 13.9662 94.1953 14.7674 94.6347 14.7674V15.012H90.7225V14.9108C91.2549 14.7759 91.2464 14.2024 91.2464 13.6964V1.96504C91.2539 1.73084 91.1714 1.50264 91.0159 1.32708C90.8605 1.15151 90.6437 1.04184 90.4099 1.02046V0.683109H99.3157C100.688 0.614811 102.054 0.905538 103.279 1.52648C104.343 2.08311 104.876 3.21323 104.876 4.89998C104.876 6.09757 104.723 7.37106 104.031 7.99516C103.263 8.71133 102.313 9.20421 101.284 9.42046L103.667 12.9542C104.098 13.5446 104.816 14.4554 104.918 14.5397C105.017 14.6178 105.138 14.6648 105.264 14.6747V15.0205H101.039V14.6747C101.53 14.6156 97.8962 9.56383 97.8962 9.56383H94.2629L94.3052 13.7048ZM99.3749 7.02528C100.01 7.05639 100.644 6.9618 101.242 6.74696C101.715 6.54456 101.952 5.62528 101.952 4.95901C101.991 4.69027 101.945 4.41597 101.819 4.1752C101.693 3.93443 101.494 3.73945 101.251 3.61805C100.65 3.40244 100.013 3.30506 99.3749 3.3313H94.3052V7.02528H99.3749Z" fill="#0D735A"/>
<path d="M127.884 13.6964C127.884 14.1686 127.884 14.7674 128.222 14.8518V15.012H124.724V14.8349C125.256 14.6915 125.188 14.2024 125.188 13.6964V1.96503C125.195 1.73654 125.116 1.51377 124.968 1.33945C124.82 1.16513 124.613 1.05154 124.386 1.02045V0.683105H129.193V1.02045C129.042 1.04089 128.898 1.09571 128.771 1.1807C128.72 1.22024 128.681 1.27192 128.656 1.33091C128.63 1.3899 128.621 1.45428 128.627 1.51805C128.62 1.63273 128.646 1.74705 128.703 1.84696C128.804 1.99404 128.917 2.13229 129.041 2.26021L136.646 10.5V1.96503C136.678 1.7605 136.634 1.55119 136.522 1.37699C136.41 1.20279 136.237 1.07589 136.038 1.02045V0.683105L140.203 0.742142V1.07949C139.969 1.1008 139.751 1.21017 139.594 1.38551C139.437 1.56085 139.353 1.78907 139.358 2.02407V13.7554C139.358 14.2277 139.308 14.7421 139.857 14.9108V15.0711L136.038 15.012V14.759C136.083 14.751 136.124 14.7271 136.154 14.6915C136.183 14.656 136.199 14.6111 136.198 14.565C136.198 14.4301 127.909 5.56624 127.909 5.56624L127.884 13.6964Z" fill="black"/>
<path d="M127.884 13.6964C127.884 14.1686 127.884 14.7674 128.222 14.8518V15.012H124.724V14.8349C125.256 14.6915 125.188 14.2024 125.188 13.6964V1.96503C125.195 1.73654 125.116 1.51377 124.968 1.33945C124.82 1.16513 124.613 1.05154 124.386 1.02045V0.683105H129.193V1.02045C129.042 1.04089 128.898 1.09571 128.771 1.1807C128.72 1.22024 128.681 1.27192 128.656 1.33091C128.63 1.3899 128.621 1.45428 128.627 1.51805C128.62 1.63273 128.646 1.74705 128.703 1.84696C128.804 1.99404 128.917 2.13229 129.041 2.26021L136.646 10.5V1.96503C136.678 1.7605 136.634 1.55119 136.522 1.37699C136.41 1.20279 136.237 1.07589 136.038 1.02045V0.683105L140.203 0.742142V1.07949C139.969 1.1008 139.751 1.21017 139.594 1.38551C139.437 1.56085 139.353 1.78907 139.358 2.02407V13.7554C139.358 14.2277 139.308 14.7421 139.857 14.9108V15.0711L136.038 15.012V14.759C136.083 14.751 136.124 14.7271 136.154 14.6915C136.183 14.656 136.199 14.6111 136.198 14.565C136.198 14.4301 127.909 5.56624 127.909 5.56624L127.884 13.6964Z" fill="#0D735A"/>
<path d="M61.9348 15.147H68.9986L65.4667 7.33734L61.9348 15.147Z" fill="black"/>
<path d="M61.9348 15.147H68.9986L65.4667 7.33734L61.9348 15.147Z" fill="#FF0000"/>
<path d="M58.3016 9.79159V2.66509C58.3016 2.63003 58.3087 2.59533 58.3223 2.56305C58.336 2.53076 58.3561 2.50156 58.3813 2.47717C58.4065 2.45278 58.4364 2.4337 58.4692 2.42107C58.5019 2.40844 58.5369 2.40251 58.572 2.40364H62.0701L58.5551 9.85063C58.5409 9.8764 58.5186 9.89683 58.4917 9.90881C58.4648 9.92078 58.4347 9.92364 58.406 9.91696C58.3773 9.91027 58.3515 9.8944 58.3327 9.87177C58.3139 9.84914 58.303 9.82098 58.3016 9.79159V9.79159Z" fill="black"/>
<path d="M58.3016 9.79159V2.66509C58.3016 2.63003 58.3087 2.59533 58.3223 2.56305C58.336 2.53076 58.3561 2.50156 58.3813 2.47717C58.4065 2.45278 58.4364 2.4337 58.4692 2.42107C58.5019 2.40844 58.5369 2.40251 58.572 2.40364H62.0701L58.5551 9.85063C58.5409 9.8764 58.5186 9.89683 58.4917 9.90881C58.4648 9.92078 58.4347 9.92364 58.406 9.91696C58.3773 9.91027 58.3515 9.8944 58.3327 9.87177C58.3139 9.84914 58.303 9.82098 58.3016 9.79159V9.79159Z" fill="#0D735A"/>
<path d="M110.258 14.3373C110.252 14.4456 110.281 14.5528 110.341 14.6436C110.4 14.7345 110.486 14.8044 110.587 14.8433V15.0036H106.616V14.8349C106.929 14.7843 107.022 14.5566 107.174 14.3373C107.354 14.0662 107.518 13.7846 107.664 13.4939L112.379 2.88431C112.452 2.73897 112.517 2.58975 112.573 2.43732C112.636 2.25283 112.664 2.05852 112.658 1.86383C112.666 1.67456 112.599 1.4896 112.472 1.34937C112.32 1.20752 112.142 1.0959 111.948 1.02045V0.683105H117.339V1.02045C117.157 1.09108 116.992 1.20045 116.857 1.34094C116.794 1.40217 116.744 1.47569 116.711 1.55693C116.677 1.63818 116.661 1.72541 116.663 1.81323C116.659 1.99774 116.679 2.18199 116.722 2.36142C116.778 2.5611 116.858 2.75356 116.958 2.93491L121.783 13.2241C121.939 13.5337 122.111 13.8349 122.299 14.1265C122.476 14.3964 122.62 14.7337 123.059 14.818V15.012H118.547V14.8518C118.676 14.8076 118.788 14.7252 118.868 14.6156C118.978 14.447 118.868 14.1096 118.598 13.4939C118.327 12.8783 114.593 4.46142 114.593 4.46142C114.593 4.46142 110.309 13.9747 110.258 14.3373Z" fill="black"/>
<path d="M110.258 14.3373C110.252 14.4456 110.281 14.5528 110.341 14.6436C110.4 14.7345 110.486 14.8044 110.587 14.8433V15.0036H106.616V14.8349C106.929 14.7843 107.022 14.5566 107.174 14.3373C107.354 14.0662 107.518 13.7846 107.664 13.4939L112.379 2.88431C112.452 2.73897 112.517 2.58975 112.573 2.43732C112.636 2.25283 112.664 2.05852 112.658 1.86383C112.666 1.67456 112.599 1.4896 112.472 1.34937C112.32 1.20752 112.142 1.0959 111.948 1.02045V0.683105H117.339V1.02045C117.157 1.09108 116.992 1.20045 116.857 1.34094C116.794 1.40217 116.744 1.47569 116.711 1.55693C116.677 1.63818 116.661 1.72541 116.663 1.81323C116.659 1.99774 116.679 2.18199 116.722 2.36142C116.778 2.5611 116.858 2.75356 116.958 2.93491L121.783 13.2241C121.939 13.5337 122.111 13.8349 122.299 14.1265C122.476 14.3964 122.62 14.7337 123.059 14.818V15.012H118.547V14.8518C118.676 14.8076 118.788 14.7252 118.868 14.6156C118.978 14.447 118.868 14.1096 118.598 13.4939C118.327 12.8783 114.593 4.46142 114.593 4.46142C114.593 4.46142 110.309 13.9747 110.258 14.3373Z" fill="#0D735A"/>
<path d="M111.061 15.147H118.133L114.601 7.33734L111.061 15.147Z" fill="black"/>
<path d="M111.061 15.147H118.133L114.601 7.33734L111.061 15.147Z" fill="#FF0000"/>
<path d="M107.453 9.79152V2.66501C107.453 2.59567 107.48 2.52917 107.529 2.48014C107.578 2.43111 107.645 2.40356 107.714 2.40356H111.221L107.706 9.85055C107.692 9.87633 107.67 9.89676 107.643 9.90873C107.616 9.9207 107.586 9.92357 107.557 9.91688C107.528 9.9102 107.502 9.89433 107.484 9.8717C107.465 9.84907 107.454 9.82091 107.453 9.79152Z" fill="black"/>
<path d="M107.453 9.79152V2.66501C107.453 2.59567 107.48 2.52917 107.529 2.48014C107.578 2.43111 107.645 2.40356 107.714 2.40356H111.221L107.706 9.85055C107.692 9.87633 107.67 9.89676 107.643 9.90873C107.616 9.9207 107.586 9.92357 107.557 9.91688C107.528 9.9102 107.502 9.89433 107.484 9.8717C107.465 9.84907 107.454 9.82091 107.453 9.79152Z" fill="#0D735A"/>
<path d="M53.9753 4.63859C52.6343 3.62164 50.9953 3.07337 49.3111 3.07835C46.4721 3.06148 43.5992 5.19522 43.9372 8.70365C44.2752 12.2121 47.4691 13.3338 50.1307 13.0386C51.6149 12.9258 53.0308 12.3704 54.195 11.4446L55.3103 13.5362C53.2412 15.143 50.6503 15.9299 48.0352 15.7458C46.4271 15.6619 44.8852 15.0799 43.6238 14.0808C42.3623 13.0817 41.4441 11.7152 40.9968 10.1711C40.472 8.18302 40.7321 6.06968 41.7234 4.26751C44.2583 0.0506386 48.4831 0.236181 51.4489 0.725337C52.9262 0.993051 54.309 1.63809 55.4624 2.59763L53.9753 4.63859Z" fill="black"/>
<path d="M53.9753 4.63859C52.6343 3.62164 50.9953 3.07337 49.3111 3.07835C46.4721 3.06148 43.5992 5.19522 43.9372 8.70365C44.2752 12.2121 47.4691 13.3338 50.1307 13.0386C51.6149 12.9258 53.0308 12.3704 54.195 11.4446L55.3103 13.5362C53.2412 15.143 50.6503 15.9299 48.0352 15.7458C46.4271 15.6619 44.8852 15.0799 43.6238 14.0808C42.3623 13.0817 41.4441 11.7152 40.9968 10.1711C40.472 8.18302 40.7321 6.06968 41.7234 4.26751C44.2583 0.0506386 48.4831 0.236181 51.4489 0.725337C52.9262 0.993051 54.309 1.63809 55.4624 2.59763L53.9753 4.63859Z" fill="#0D735A"/>
<path d="M139.265 17.6687H42.7712V19.0181H139.265V17.6687Z" fill="black"/>
<path d="M139.265 17.6687H42.7712V19.0181H139.265V17.6687Z" fill="#0D735A"/>
<path d="M44.0055 26.3723V22.9144H44.4787L46.3038 25.6301V22.9144H46.7431V26.3723H46.27L44.4449 23.6566V26.3723H44.0055Z" fill="black"/>
<path d="M44.0055 26.3723V22.9144H44.4787L46.3038 25.6301V22.9144H46.7431V26.3723H46.27L44.4449 23.6566V26.3723H44.0055Z" fill="#0D735A"/>
<path d="M49.0834 26.3723V22.9144H51.6182V23.3192H49.5396V24.3819H51.4577V24.7867H49.5396V25.9674H51.6689V26.3723H49.0834Z" fill="black"/>
<path d="M49.0834 26.3723V22.9144H51.6182V23.3192H49.5396V24.3819H51.4577V24.7867H49.5396V25.9674H51.6689V26.3723H49.0834Z" fill="#0D735A"/>
<path d="M55.4884 25.0145V24.6097H56.9587V25.8916C56.7509 26.0671 56.5134 26.2041 56.2574 26.2964C56.0231 26.3874 55.7736 26.4332 55.5222 26.4313C55.1987 26.4388 54.8787 26.3633 54.5928 26.2121C54.3217 26.0749 54.1002 25.8567 53.9591 25.588C53.8149 25.3002 53.7424 24.982 53.7478 24.6603C53.7445 24.3334 53.8168 24.0101 53.9591 23.7157C54.0873 23.44 54.3005 23.2125 54.5674 23.0663C54.8484 22.9179 55.1622 22.8425 55.48 22.847C55.7143 22.8434 55.9469 22.8864 56.1644 22.9735C56.3504 23.0446 56.5158 23.1605 56.646 23.3109C56.7697 23.4802 56.8587 23.6722 56.908 23.8759L56.4939 23.994C56.4513 23.8469 56.3857 23.7075 56.2996 23.5807C56.2092 23.4723 56.093 23.3882 55.9616 23.3362C55.8117 23.2738 55.6508 23.2423 55.4884 23.2434C55.3012 23.2403 55.115 23.2718 54.9392 23.3362C54.8004 23.3963 54.6743 23.4822 54.5674 23.5892C54.4784 23.692 54.407 23.8088 54.3562 23.935C54.2617 24.156 54.2156 24.3947 54.221 24.635C54.2107 24.9 54.2659 25.1636 54.3816 25.4024C54.4789 25.6054 54.6429 25.7691 54.8463 25.8663C55.0483 25.9669 55.2711 26.0189 55.4969 26.0181C55.6964 26.0186 55.8943 25.9814 56.0799 25.9085C56.2348 25.8485 56.38 25.7661 56.5108 25.6639V25.0145H55.4884Z" fill="black"/>
<path d="M55.4884 25.0145V24.6097H56.9587V25.8916C56.7509 26.0671 56.5134 26.2041 56.2574 26.2964C56.0231 26.3874 55.7736 26.4332 55.5222 26.4313C55.1987 26.4388 54.8787 26.3633 54.5928 26.2121C54.3217 26.0749 54.1002 25.8567 53.9591 25.588C53.8149 25.3002 53.7424 24.982 53.7478 24.6603C53.7445 24.3334 53.8168 24.0101 53.9591 23.7157C54.0873 23.44 54.3005 23.2125 54.5674 23.0663C54.8484 22.9179 55.1622 22.8425 55.48 22.847C55.7143 22.8434 55.9469 22.8864 56.1644 22.9735C56.3504 23.0446 56.5158 23.1605 56.646 23.3109C56.7697 23.4802 56.8587 23.6722 56.908 23.8759L56.4939 23.994C56.4513 23.8469 56.3857 23.7075 56.2996 23.5807C56.2092 23.4723 56.093 23.3882 55.9616 23.3362C55.8117 23.2738 55.6508 23.2423 55.4884 23.2434C55.3012 23.2403 55.115 23.2718 54.9392 23.3362C54.8004 23.3963 54.6743 23.4822 54.5674 23.5892C54.4784 23.692 54.407 23.8088 54.3562 23.935C54.2617 24.156 54.2156 24.3947 54.221 24.635C54.2107 24.9 54.2659 25.1636 54.3816 25.4024C54.4789 25.6054 54.6429 25.7691 54.8463 25.8663C55.0483 25.9669 55.2711 26.0189 55.4969 26.0181C55.6964 26.0186 55.8943 25.9814 56.0799 25.9085C56.2348 25.8485 56.38 25.7661 56.5108 25.6639V25.0145H55.4884Z" fill="#0D735A"/>
<path d="M59.0537 24.6856C59.024 24.1922 59.1911 23.7071 59.5184 23.3362C59.6717 23.1761 59.857 23.0499 60.0622 22.9656C60.2674 22.8814 60.488 22.841 60.7098 22.847C61.0066 22.8476 61.298 22.9261 61.5547 23.0747C61.8074 23.2298 62.0121 23.4516 62.1462 23.7157C62.2844 24.0052 62.3538 24.3227 62.349 24.6434C62.3535 24.9714 62.2781 25.2955 62.1293 25.588C62.0018 25.8571 61.7916 26.0787 61.5294 26.2205C61.271 26.3633 60.9797 26.436 60.6844 26.4314C60.3868 26.4283 60.0954 26.3468 59.8395 26.1952C59.5872 26.0422 59.3847 25.8196 59.2564 25.5543C59.1265 25.2828 59.0574 24.9864 59.0537 24.6856ZM59.5268 24.6856C59.5152 24.8642 59.5391 25.0433 59.5971 25.2126C59.6551 25.382 59.7461 25.5382 59.8648 25.6723C59.9707 25.7906 60.1011 25.8843 60.2471 25.947C60.393 26.0096 60.551 26.0396 60.7098 26.035C60.8683 26.0374 61.0255 26.0064 61.1711 25.9439C61.3167 25.8814 61.4475 25.7888 61.5547 25.6723C61.7937 25.3811 61.9143 25.0108 61.8927 24.635C61.8966 24.3831 61.8477 24.1331 61.7491 23.9012C61.6606 23.6995 61.5134 23.5291 61.3266 23.4121C61.1428 23.294 60.9283 23.2324 60.7098 23.235C60.5535 23.2318 60.3981 23.26 60.253 23.318C60.1078 23.3759 59.9758 23.4624 59.8648 23.5723C59.736 23.7271 59.6398 23.9062 59.5817 24.0989C59.5236 24.2916 59.505 24.494 59.5268 24.694V24.6856Z" fill="black"/>
<path d="M59.0537 24.6856C59.024 24.1922 59.1911 23.7071 59.5184 23.3362C59.6717 23.1761 59.857 23.0499 60.0622 22.9656C60.2674 22.8814 60.488 22.841 60.7098 22.847C61.0066 22.8476 61.298 22.9261 61.5547 23.0747C61.8074 23.2298 62.0121 23.4516 62.1462 23.7157C62.2844 24.0052 62.3538 24.3227 62.349 24.6434C62.3535 24.9714 62.2781 25.2955 62.1293 25.588C62.0018 25.8571 61.7916 26.0787 61.5294 26.2205C61.271 26.3633 60.9797 26.436 60.6844 26.4314C60.3868 26.4283 60.0954 26.3468 59.8395 26.1952C59.5872 26.0422 59.3847 25.8196 59.2564 25.5543C59.1265 25.2828 59.0574 24.9864 59.0537 24.6856ZM59.5268 24.6856C59.5152 24.8642 59.5391 25.0433 59.5971 25.2126C59.6551 25.382 59.7461 25.5382 59.8648 25.6723C59.9707 25.7906 60.1011 25.8843 60.2471 25.947C60.393 26.0096 60.551 26.0396 60.7098 26.035C60.8683 26.0374 61.0255 26.0064 61.1711 25.9439C61.3167 25.8814 61.4475 25.7888 61.5547 25.6723C61.7937 25.3811 61.9143 25.0108 61.8927 24.635C61.8966 24.3831 61.8477 24.1331 61.7491 23.9012C61.6606 23.6995 61.5134 23.5291 61.3266 23.4121C61.1428 23.294 60.9283 23.2324 60.7098 23.235C60.5535 23.2318 60.3981 23.26 60.253 23.318C60.1078 23.3759 59.9758 23.4624 59.8648 23.5723C59.736 23.7271 59.6398 23.9062 59.5817 24.0989C59.5236 24.2916 59.505 24.494 59.5268 24.694V24.6856Z" fill="#0D735A"/>
<path d="M66.9966 25.1578L67.4529 25.2759C67.3801 25.6065 67.1986 25.9034 66.9374 26.1193C66.6745 26.3222 66.3486 26.4267 66.0164 26.4144C65.6968 26.4263 65.3803 26.3473 65.1039 26.1867C64.8642 26.0259 64.6787 25.7966 64.5716 25.5289C64.4452 25.2361 64.3819 24.92 64.3857 24.6012C64.3764 24.2737 64.449 23.9491 64.5969 23.6566C64.7246 23.3947 64.9315 23.1793 65.1884 23.0409C65.4478 22.901 65.7384 22.8285 66.0333 22.8301C66.3365 22.8282 66.6325 22.9228 66.8783 23.1C67.1204 23.2855 67.2931 23.5469 67.3684 23.8422L66.9205 23.9518C66.8633 23.7338 66.7392 23.5392 66.5657 23.3952C66.3975 23.2783 66.1959 23.2191 65.9911 23.2265C65.7536 23.2185 65.5197 23.2865 65.3236 23.4205C65.1449 23.5469 65.0116 23.7272 64.9433 23.9349C64.8727 24.1501 64.8357 24.3748 64.8335 24.6012C64.8263 24.8635 64.8723 25.1245 64.9687 25.3687C65.0399 25.5729 65.1804 25.746 65.3658 25.8578C65.5438 25.967 65.7484 26.0254 65.9573 26.0265C66.1932 26.0319 66.4235 25.9542 66.6079 25.8072C66.8078 25.6413 66.945 25.4122 66.9966 25.1578V25.1578Z" fill="black"/>
<path d="M66.9966 25.1578L67.4529 25.2759C67.3801 25.6065 67.1986 25.9034 66.9374 26.1193C66.6745 26.3222 66.3486 26.4267 66.0164 26.4144C65.6968 26.4263 65.3803 26.3473 65.1039 26.1867C64.8642 26.0259 64.6787 25.7966 64.5716 25.5289C64.4452 25.2361 64.3819 24.92 64.3857 24.6012C64.3764 24.2737 64.449 23.9491 64.5969 23.6566C64.7246 23.3947 64.9315 23.1793 65.1884 23.0409C65.4478 22.901 65.7384 22.8285 66.0333 22.8301C66.3365 22.8282 66.6325 22.9228 66.8783 23.1C67.1204 23.2855 67.2931 23.5469 67.3684 23.8422L66.9205 23.9518C66.8633 23.7338 66.7392 23.5392 66.5657 23.3952C66.3975 23.2783 66.1959 23.2191 65.9911 23.2265C65.7536 23.2185 65.5197 23.2865 65.3236 23.4205C65.1449 23.5469 65.0116 23.7272 64.9433 23.9349C64.8727 24.1501 64.8357 24.3748 64.8335 24.6012C64.8263 24.8635 64.8723 25.1245 64.9687 25.3687C65.0399 25.5729 65.1804 25.746 65.3658 25.8578C65.5438 25.967 65.7484 26.0254 65.9573 26.0265C66.1932 26.0319 66.4235 25.9542 66.6079 25.8072C66.8078 25.6413 66.945 25.4122 66.9966 25.1578V25.1578Z" fill="#0D735A"/>
<path d="M69.6582 26.3723V22.9144H70.1314V26.3723H69.6582Z" fill="black"/>
<path d="M69.6582 26.3723V22.9144H70.1314V26.3723H69.6582Z" fill="#0D735A"/>
<path d="M72.3452 24.6856C72.3155 24.1922 72.4826 23.7071 72.8099 23.3362C72.9642 23.175 73.1508 23.0482 73.3575 22.9639C73.5643 22.8796 73.7865 22.8398 74.0097 22.847C74.3065 22.8476 74.5979 22.9261 74.8547 23.0747C75.1094 23.2272 75.3148 23.4498 75.4461 23.7157C75.5844 24.0052 75.6538 24.3227 75.6489 24.6434C75.6535 24.9714 75.5781 25.2955 75.4292 25.588C75.3017 25.8571 75.0916 26.0787 74.8293 26.2205C74.571 26.3633 74.2796 26.436 73.9844 26.4314C73.6862 26.4325 73.3936 26.3507 73.1394 26.1952C72.8828 26.045 72.6768 25.8219 72.5479 25.5543C72.4181 25.2828 72.3489 24.9864 72.3452 24.6856V24.6856ZM72.8183 24.6856C72.8067 24.8642 72.8306 25.0433 72.8886 25.2126C72.9466 25.382 73.0376 25.5382 73.1563 25.6723C73.2622 25.7906 73.3926 25.8843 73.5386 25.947C73.6845 26.0096 73.8425 26.0396 74.0013 26.035C74.1598 26.0374 74.317 26.0064 74.4626 25.9439C74.6082 25.8814 74.739 25.7888 74.8462 25.6723C75.0852 25.3811 75.2058 25.0108 75.1842 24.635C75.1882 24.3831 75.1392 24.1331 75.0406 23.9012C74.9521 23.6996 74.8049 23.5291 74.6181 23.4121C74.4343 23.294 74.2198 23.2324 74.0013 23.235C73.845 23.2318 73.6896 23.26 73.5445 23.318C73.3993 23.3759 73.2673 23.4624 73.1563 23.5723C73.0275 23.7271 72.9313 23.9062 72.8732 24.0989C72.8151 24.2916 72.7965 24.494 72.8183 24.694V24.6856Z" fill="black"/>
<path d="M72.3452 24.6856C72.3155 24.1922 72.4826 23.7071 72.8099 23.3362C72.9642 23.175 73.1508 23.0482 73.3575 22.9639C73.5643 22.8796 73.7865 22.8398 74.0097 22.847C74.3065 22.8476 74.5979 22.9261 74.8547 23.0747C75.1094 23.2272 75.3148 23.4498 75.4461 23.7157C75.5844 24.0052 75.6538 24.3227 75.6489 24.6434C75.6535 24.9714 75.5781 25.2955 75.4292 25.588C75.3017 25.8571 75.0916 26.0787 74.8293 26.2205C74.571 26.3633 74.2796 26.436 73.9844 26.4314C73.6862 26.4325 73.3936 26.3507 73.1394 26.1952C72.8828 26.045 72.6768 25.8219 72.5479 25.5543C72.4181 25.2828 72.3489 24.9864 72.3452 24.6856V24.6856ZM72.8183 24.6856C72.8067 24.8642 72.8306 25.0433 72.8886 25.2126C72.9466 25.382 73.0376 25.5382 73.1563 25.6723C73.2622 25.7906 73.3926 25.8843 73.5386 25.947C73.6845 26.0096 73.8425 26.0396 74.0013 26.035C74.1598 26.0374 74.317 26.0064 74.4626 25.9439C74.6082 25.8814 74.739 25.7888 74.8462 25.6723C75.0852 25.3811 75.2058 25.0108 75.1842 24.635C75.1882 24.3831 75.1392 24.1331 75.0406 23.9012C74.9521 23.6996 74.8049 23.5291 74.6181 23.4121C74.4343 23.294 74.2198 23.2324 74.0013 23.235C73.845 23.2318 73.6896 23.26 73.5445 23.318C73.3993 23.3759 73.2673 23.4624 73.1563 23.5723C73.0275 23.7271 72.9313 23.9062 72.8732 24.0989C72.8151 24.2916 72.7965 24.494 72.8183 24.694V24.6856Z" fill="#0D735A"/>
<path d="M77.66 25.3012H78.091C78.1024 25.4516 78.1518 25.5967 78.2346 25.7229C78.319 25.8467 78.4401 25.9411 78.581 25.9927C78.748 26.0686 78.9299 26.1061 79.1134 26.1024C79.2725 26.1069 79.4308 26.0782 79.5781 26.0181C79.6982 25.9796 79.8042 25.9062 79.8823 25.8072C79.9419 25.7202 79.9743 25.6174 79.9752 25.512C79.9752 25.4091 79.9427 25.3087 79.8823 25.2253C79.8007 25.1281 79.6918 25.0575 79.5696 25.0229C79.4767 25.0229 79.2739 24.9301 78.9528 24.8542C78.7225 24.8074 78.4985 24.7338 78.2853 24.6349C78.1323 24.5672 78.0029 24.4557 77.9135 24.3144C77.8288 24.1871 77.7847 24.0372 77.7868 23.8843C77.7854 23.7095 77.8386 23.5385 77.9389 23.3952C78.044 23.2389 78.1943 23.1183 78.3698 23.0494C78.5727 22.9629 78.7914 22.9198 79.012 22.9229C79.2436 22.9183 79.4737 22.9614 79.6879 23.0494C79.8769 23.1194 80.0373 23.2499 80.1442 23.4205C80.2516 23.5803 80.3103 23.7678 80.3132 23.9602H79.8738C79.8627 23.77 79.7778 23.5915 79.6372 23.4626C79.4598 23.3385 79.245 23.279 79.0289 23.294C78.8139 23.2785 78.5999 23.3349 78.4205 23.4542C78.3629 23.4956 78.3161 23.5501 78.2838 23.6132C78.2514 23.6762 78.2346 23.746 78.2346 23.8168C78.2319 23.8745 78.2428 23.9319 78.2663 23.9846C78.2897 24.0373 78.3252 24.0838 78.3698 24.1205C78.5793 24.2547 78.8159 24.3411 79.0627 24.3735C79.3241 24.4272 79.5811 24.5005 79.8316 24.5927C80.0087 24.6707 80.1629 24.7926 80.2794 24.947C80.3767 25.0913 80.4269 25.2622 80.423 25.4361C80.4204 25.6221 80.3647 25.8035 80.2625 25.959C80.1518 26.1281 79.9929 26.2603 79.8062 26.3385C79.5963 26.4317 79.3684 26.4777 79.1387 26.4735C78.8675 26.4827 78.5973 26.4368 78.3445 26.3385C78.1401 26.2544 77.9663 26.1103 77.8459 25.9253C77.724 25.74 77.6593 25.5229 77.66 25.3012V25.3012Z" fill="black"/>
<path d="M77.66 25.3012H78.091C78.1024 25.4516 78.1518 25.5967 78.2346 25.7229C78.319 25.8467 78.4401 25.9411 78.581 25.9927C78.748 26.0686 78.9299 26.1061 79.1134 26.1024C79.2725 26.1069 79.4308 26.0782 79.5781 26.0181C79.6982 25.9796 79.8042 25.9062 79.8823 25.8072C79.9419 25.7202 79.9743 25.6174 79.9752 25.512C79.9752 25.4091 79.9427 25.3087 79.8823 25.2253C79.8007 25.1281 79.6918 25.0575 79.5696 25.0229C79.4767 25.0229 79.2739 24.9301 78.9528 24.8542C78.7225 24.8074 78.4985 24.7338 78.2853 24.6349C78.1323 24.5672 78.0029 24.4557 77.9135 24.3144C77.8288 24.1871 77.7847 24.0372 77.7868 23.8843C77.7854 23.7095 77.8386 23.5385 77.9389 23.3952C78.044 23.2389 78.1943 23.1183 78.3698 23.0494C78.5727 22.9629 78.7914 22.9198 79.012 22.9229C79.2436 22.9183 79.4737 22.9614 79.6879 23.0494C79.8769 23.1194 80.0373 23.2499 80.1442 23.4205C80.2516 23.5803 80.3103 23.7678 80.3132 23.9602H79.8738C79.8627 23.77 79.7778 23.5915 79.6372 23.4626C79.4598 23.3385 79.245 23.279 79.0289 23.294C78.8139 23.2785 78.5999 23.3349 78.4205 23.4542C78.3629 23.4956 78.3161 23.5501 78.2838 23.6132C78.2514 23.6762 78.2346 23.746 78.2346 23.8168C78.2319 23.8745 78.2428 23.9319 78.2663 23.9846C78.2897 24.0373 78.3252 24.0838 78.3698 24.1205C78.5793 24.2547 78.8159 24.3411 79.0627 24.3735C79.3241 24.4272 79.5811 24.5005 79.8316 24.5927C80.0087 24.6707 80.1629 24.7926 80.2794 24.947C80.3767 25.0913 80.4269 25.2622 80.423 25.4361C80.4204 25.6221 80.3647 25.8035 80.2625 25.959C80.1518 26.1281 79.9929 26.2603 79.8062 26.3385C79.5963 26.4317 79.3684 26.4777 79.1387 26.4735C78.8675 26.4827 78.5973 26.4368 78.3445 26.3385C78.1401 26.2544 77.9663 26.1103 77.8459 25.9253C77.724 25.74 77.6593 25.5229 77.66 25.3012V25.3012Z" fill="#0D735A"/>
<path d="M85.5851 26.3723V22.9144H86.0414V26.3723H85.5851Z" fill="black"/>
<path d="M85.5851 26.3723V22.9144H86.0414V26.3723H85.5851Z" fill="#0D735A"/>
<path d="M88.4076 26.3723V22.9144H88.8808L90.7059 25.6301V22.9144H91.1452V26.3723H90.6721L88.847 23.6566V26.3723H88.4076Z" fill="black"/>
<path d="M88.4076 26.3723V22.9144H88.8808L90.7059 25.6301V22.9144H91.1452V26.3723H90.6721L88.847 23.6566V26.3723H88.4076Z" fill="#0D735A"/>
<path d="M93.4604 26.3723V22.9144H94.1449L94.9898 25.3602C95.0659 25.5879 95.1166 25.765 95.1504 25.8747C95.1504 25.7482 95.2518 25.5626 95.3362 25.318L96.1812 22.9144H96.8065V26.3723H96.3248V23.4795L95.3193 26.3723H94.9053L93.8998 23.4289V26.3723H93.4604Z" fill="black"/>
<path d="M93.4604 26.3723V22.9144H94.1449L94.9898 25.3602C95.0659 25.5879 95.1166 25.765 95.1504 25.8747C95.1504 25.7482 95.2518 25.5626 95.3362 25.318L96.1812 22.9144H96.8065V26.3723H96.3248V23.4795L95.3193 26.3723H94.9053L93.8998 23.4289V26.3723H93.4604Z" fill="#0D735A"/>
<path d="M98.9272 24.6855C98.8976 24.1922 99.0646 23.7071 99.3919 23.3361C99.5469 23.1759 99.7336 23.0496 99.9402 22.9653C100.147 22.8811 100.369 22.8408 100.592 22.847C100.889 22.8451 101.181 22.9238 101.437 23.0747C101.691 23.2272 101.897 23.4497 102.028 23.7157C102.166 24.0052 102.236 24.3227 102.231 24.6434C102.238 24.9707 102.166 25.2948 102.02 25.588C101.886 25.8558 101.674 26.0765 101.411 26.2205C101.153 26.3632 100.862 26.4359 100.566 26.4313C100.268 26.432 99.9758 26.3503 99.7214 26.1952C99.4652 26.047 99.2615 25.823 99.1384 25.5542C99.0018 25.2848 98.9295 24.9875 98.9272 24.6855V24.6855ZM99.4004 24.6855C99.3888 24.8641 99.4127 25.0433 99.4707 25.2126C99.5287 25.3819 99.6196 25.5382 99.7383 25.6723C99.8446 25.7901 99.9751 25.8835 100.121 25.9461C100.267 26.0087 100.425 26.039 100.583 26.0349C100.742 26.0374 100.899 26.0064 101.045 25.9438C101.19 25.8813 101.321 25.7888 101.428 25.6723C101.67 25.3827 101.791 25.0112 101.766 24.6349C101.77 24.383 101.721 24.1331 101.623 23.9012C101.537 23.6977 101.389 23.5265 101.2 23.4121C101.017 23.293 100.802 23.2314 100.583 23.2349C100.427 23.2313 100.271 23.2593 100.126 23.3173C99.981 23.3752 99.849 23.462 99.7383 23.5723C99.6079 23.7261 99.5105 23.905 99.4524 24.098C99.3942 24.291 99.3765 24.4939 99.4004 24.694V24.6855Z" fill="black"/>
<path d="M98.9272 24.6855C98.8976 24.1922 99.0646 23.7071 99.3919 23.3361C99.5469 23.1759 99.7336 23.0496 99.9402 22.9653C100.147 22.8811 100.369 22.8408 100.592 22.847C100.889 22.8451 101.181 22.9238 101.437 23.0747C101.691 23.2272 101.897 23.4497 102.028 23.7157C102.166 24.0052 102.236 24.3227 102.231 24.6434C102.238 24.9707 102.166 25.2948 102.02 25.588C101.886 25.8558 101.674 26.0765 101.411 26.2205C101.153 26.3632 100.862 26.4359 100.566 26.4313C100.268 26.432 99.9758 26.3503 99.7214 26.1952C99.4652 26.047 99.2615 25.823 99.1384 25.5542C99.0018 25.2848 98.9295 24.9875 98.9272 24.6855V24.6855ZM99.4004 24.6855C99.3888 24.8641 99.4127 25.0433 99.4707 25.2126C99.5287 25.3819 99.6196 25.5382 99.7383 25.6723C99.8446 25.7901 99.9751 25.8835 100.121 25.9461C100.267 26.0087 100.425 26.039 100.583 26.0349C100.742 26.0374 100.899 26.0064 101.045 25.9438C101.19 25.8813 101.321 25.7888 101.428 25.6723C101.67 25.3827 101.791 25.0112 101.766 24.6349C101.77 24.383 101.721 24.1331 101.623 23.9012C101.537 23.6977 101.389 23.5265 101.2 23.4121C101.017 23.293 100.802 23.2314 100.583 23.2349C100.427 23.2313 100.271 23.2593 100.126 23.3173C99.981 23.3752 99.849 23.462 99.7383 23.5723C99.6079 23.7261 99.5105 23.905 99.4524 24.098C99.3942 24.291 99.3765 24.4939 99.4004 24.694V24.6855Z" fill="#0D735A"/>
<path d="M104.377 26.3723V22.9145H105.678C105.897 22.9064 106.115 22.9408 106.32 23.0157C106.476 23.0791 106.607 23.1916 106.692 23.3362C106.782 23.4743 106.829 23.6356 106.827 23.8C106.83 23.9465 106.789 24.0904 106.709 24.2133C106.622 24.3532 106.496 24.4647 106.346 24.5338C106.538 24.5785 106.708 24.6889 106.827 24.8458C106.941 24.9964 107 25.1805 106.996 25.3687C106.997 25.5262 106.962 25.6818 106.895 25.8241C106.836 25.949 106.75 26.0587 106.642 26.1446C106.527 26.2268 106.398 26.2868 106.261 26.3217C106.078 26.3584 105.891 26.3754 105.704 26.3723H104.377ZM104.833 24.3651H105.619C105.767 24.3743 105.915 24.36 106.059 24.3229C106.162 24.2966 106.254 24.2374 106.32 24.1542C106.378 24.0635 106.409 23.9582 106.409 23.8506C106.409 23.7431 106.378 23.6377 106.32 23.547C106.266 23.4615 106.182 23.3986 106.084 23.3699C105.913 23.3285 105.736 23.3115 105.56 23.3193H104.859L104.833 24.3651ZM104.833 25.9675H105.678H105.991C106.083 25.9535 106.172 25.922 106.253 25.8747C106.326 25.8249 106.387 25.7584 106.43 25.6807C106.476 25.5889 106.499 25.4879 106.498 25.3856C106.502 25.2676 106.469 25.1514 106.402 25.0542C106.335 24.9569 106.238 24.8838 106.126 24.8458C105.957 24.8065 105.784 24.7894 105.611 24.7952H104.766L104.833 25.9675Z" fill="black"/>
<path d="M104.377 26.3723V22.9145H105.678C105.897 22.9064 106.115 22.9408 106.32 23.0157C106.476 23.0791 106.607 23.1916 106.692 23.3362C106.782 23.4743 106.829 23.6356 106.827 23.8C106.83 23.9465 106.789 24.0904 106.709 24.2133C106.622 24.3532 106.496 24.4647 106.346 24.5338C106.538 24.5785 106.708 24.6889 106.827 24.8458C106.941 24.9964 107 25.1805 106.996 25.3687C106.997 25.5262 106.962 25.6818 106.895 25.8241C106.836 25.949 106.75 26.0587 106.642 26.1446C106.527 26.2268 106.398 26.2868 106.261 26.3217C106.078 26.3584 105.891 26.3754 105.704 26.3723H104.377ZM104.833 24.3651H105.619C105.767 24.3743 105.915 24.36 106.059 24.3229C106.162 24.2966 106.254 24.2374 106.32 24.1542C106.378 24.0635 106.409 23.9582 106.409 23.8506C106.409 23.7431 106.378 23.6377 106.32 23.547C106.266 23.4615 106.182 23.3986 106.084 23.3699C105.913 23.3285 105.736 23.3115 105.56 23.3193H104.859L104.833 24.3651ZM104.833 25.9675H105.678H105.991C106.083 25.9535 106.172 25.922 106.253 25.8747C106.326 25.8249 106.387 25.7584 106.43 25.6807C106.476 25.5889 106.499 25.4879 106.498 25.3856C106.502 25.2676 106.469 25.1514 106.402 25.0542C106.335 24.9569 106.238 24.8838 106.126 24.8458C105.957 24.8065 105.784 24.7894 105.611 24.7952H104.766L104.833 25.9675Z" fill="#0D735A"/>
<path d="M109.27 26.3723V22.9144H109.726V26.3723H109.27Z" fill="black"/>
<path d="M109.27 26.3723V22.9144H109.726V26.3723H109.27Z" fill="#0D735A"/>
<path d="M112.075 26.3723V22.9144H112.531V25.9674H114.221V26.3723H112.075Z" fill="black"/>
<path d="M112.075 26.3723V22.9144H112.531V25.9674H114.221V26.3723H112.075Z" fill="#0D735A"/>
<path d="M116.427 26.3723V22.9144H116.883V26.3723H116.427Z" fill="black"/>
<path d="M116.427 26.3723V22.9144H116.883V26.3723H116.427Z" fill="#0D735A"/>
<path d="M118.868 26.3723L120.203 22.9144H120.693L122.121 26.3723H121.597L121.192 25.3012H119.738L119.358 26.347L118.868 26.3723ZM119.874 24.9554H121.048L120.685 23.9939C120.575 23.6988 120.49 23.4626 120.44 23.2771C120.393 23.5005 120.331 23.7203 120.254 23.9349L119.874 24.9554Z" fill="black"/>
<path d="M118.868 26.3723L120.203 22.9144H120.693L122.121 26.3723H121.597L121.192 25.3012H119.738L119.358 26.347L118.868 26.3723ZM119.874 24.9554H121.048L120.685 23.9939C120.575 23.6988 120.49 23.4626 120.44 23.2771C120.393 23.5005 120.331 23.7203 120.254 23.9349L119.874 24.9554Z" fill="#0D735A"/>
<path d="M124.047 26.3723V22.9144H125.585C125.825 22.9012 126.066 22.9327 126.295 23.0072C126.457 23.0675 126.592 23.1843 126.675 23.3361C126.777 23.4913 126.83 23.6735 126.827 23.859C126.83 23.9728 126.81 24.0861 126.768 24.1919C126.726 24.2977 126.663 24.3939 126.582 24.4747C126.382 24.6631 126.122 24.7764 125.847 24.7952C125.947 24.8424 126.041 24.9019 126.126 24.9723C126.269 25.1125 126.397 25.268 126.506 25.4361L127.106 26.3723H126.532L126.067 25.6554C125.966 25.4889 125.856 25.3283 125.737 25.1747C125.675 25.0864 125.598 25.0094 125.509 24.947C125.443 24.9071 125.372 24.8759 125.298 24.8542H125.044H124.504V26.3891L124.047 26.3723ZM124.504 24.4409H125.492C125.661 24.4459 125.829 24.4231 125.991 24.3735C126.102 24.3361 126.198 24.2617 126.261 24.1626C126.318 24.0719 126.348 23.9663 126.346 23.859C126.349 23.7825 126.334 23.7064 126.304 23.6362C126.273 23.5661 126.227 23.5039 126.168 23.4542C126.007 23.3367 125.81 23.28 125.611 23.294H124.504V24.4409Z" fill="black"/>
<path d="M124.047 26.3723V22.9144H125.585C125.825 22.9012 126.066 22.9327 126.295 23.0072C126.457 23.0675 126.592 23.1843 126.675 23.3361C126.777 23.4913 126.83 23.6735 126.827 23.859C126.83 23.9728 126.81 24.0861 126.768 24.1919C126.726 24.2977 126.663 24.3939 126.582 24.4747C126.382 24.6631 126.122 24.7764 125.847 24.7952C125.947 24.8424 126.041 24.9019 126.126 24.9723C126.269 25.1125 126.397 25.268 126.506 25.4361L127.106 26.3723H126.532L126.067 25.6554C125.966 25.4889 125.856 25.3283 125.737 25.1747C125.675 25.0864 125.598 25.0094 125.509 24.947C125.443 24.9071 125.372 24.8759 125.298 24.8542H125.044H124.504V26.3891L124.047 26.3723ZM124.504 24.4409H125.492C125.661 24.4459 125.829 24.4231 125.991 24.3735C126.102 24.3361 126.198 24.2617 126.261 24.1626C126.318 24.0719 126.348 23.9663 126.346 23.859C126.349 23.7825 126.334 23.7064 126.304 23.6362C126.273 23.5661 126.227 23.5039 126.168 23.4542C126.007 23.3367 125.81 23.28 125.611 23.294H124.504V24.4409Z" fill="#0D735A"/>
<path d="M129.176 26.3723V22.9144H129.641V26.3723H129.176Z" fill="black"/>
<path d="M129.176 26.3723V22.9144H129.641V26.3723H129.176Z" fill="#0D735A"/>
<path d="M131.863 24.6855C131.834 24.1922 132.001 23.7071 132.328 23.3361C132.483 23.1759 132.67 23.0496 132.876 22.9653C133.083 22.8811 133.305 22.8408 133.528 22.847C133.825 22.8451 134.117 22.9238 134.373 23.0747C134.627 23.2272 134.833 23.4497 134.964 23.7157C135.102 24.0052 135.172 24.3227 135.167 24.6434C135.174 24.9707 135.102 25.2948 134.956 25.588C134.822 25.8558 134.61 26.0765 134.347 26.2205C134.089 26.3632 133.798 26.4359 133.502 26.4313C133.204 26.432 132.912 26.3503 132.657 26.1952C132.401 26.047 132.198 25.823 132.074 25.5542C131.938 25.2848 131.866 24.9875 131.863 24.6855V24.6855ZM132.336 24.6855C132.318 25.0456 132.439 25.3991 132.674 25.6723C132.781 25.7901 132.911 25.8835 133.057 25.9461C133.203 26.0087 133.361 26.039 133.519 26.0349C133.678 26.0374 133.835 26.0064 133.981 25.9438C134.126 25.8813 134.257 25.7888 134.364 25.6723C134.606 25.3827 134.727 25.0112 134.702 24.6349C134.706 24.383 134.657 24.1331 134.559 23.9012C134.473 23.6977 134.325 23.5265 134.136 23.4121C133.953 23.293 133.738 23.2314 133.519 23.2349C133.363 23.2313 133.207 23.2593 133.062 23.3173C132.917 23.3752 132.785 23.462 132.674 23.5723C132.544 23.7261 132.447 23.905 132.388 24.098C132.33 24.291 132.313 24.4939 132.336 24.694V24.6855Z" fill="black"/>
<path d="M131.863 24.6855C131.834 24.1922 132.001 23.7071 132.328 23.3361C132.483 23.1759 132.67 23.0496 132.876 22.9653C133.083 22.8811 133.305 22.8408 133.528 22.847C133.825 22.8451 134.117 22.9238 134.373 23.0747C134.627 23.2272 134.833 23.4497 134.964 23.7157C135.102 24.0052 135.172 24.3227 135.167 24.6434C135.174 24.9707 135.102 25.2948 134.956 25.588C134.822 25.8558 134.61 26.0765 134.347 26.2205C134.089 26.3632 133.798 26.4359 133.502 26.4313C133.204 26.432 132.912 26.3503 132.657 26.1952C132.401 26.047 132.198 25.823 132.074 25.5542C131.938 25.2848 131.866 24.9875 131.863 24.6855V24.6855ZM132.336 24.6855C132.318 25.0456 132.439 25.3991 132.674 25.6723C132.781 25.7901 132.911 25.8835 133.057 25.9461C133.203 26.0087 133.361 26.039 133.519 26.0349C133.678 26.0374 133.835 26.0064 133.981 25.9438C134.126 25.8813 134.257 25.7888 134.364 25.6723C134.606 25.3827 134.727 25.0112 134.702 24.6349C134.706 24.383 134.657 24.1331 134.559 23.9012C134.473 23.6977 134.325 23.5265 134.136 23.4121C133.953 23.293 133.738 23.2314 133.519 23.2349C133.363 23.2313 133.207 23.2593 133.062 23.3173C132.917 23.3752 132.785 23.462 132.674 23.5723C132.544 23.7261 132.447 23.905 132.388 24.098C132.33 24.291 132.313 24.4939 132.336 24.694V24.6855Z" fill="#0D735A"/>
<path d="M137.178 25.3012H137.609C137.624 25.4508 137.674 25.5949 137.753 25.7229C137.839 25.8449 137.96 25.9388 138.099 25.9927C138.269 26.0693 138.454 26.1068 138.64 26.1024C138.796 26.107 138.952 26.0783 139.096 26.018C139.216 25.9796 139.322 25.9061 139.4 25.8072C139.466 25.7228 139.502 25.6189 139.502 25.512C139.503 25.4074 139.467 25.3057 139.4 25.2253C139.321 25.1259 139.211 25.0549 139.088 25.0229C138.995 25.0229 138.792 24.9301 138.471 24.8542C138.241 24.8074 138.017 24.7338 137.803 24.6349C137.653 24.5629 137.525 24.4523 137.432 24.3144C137.35 24.1863 137.308 24.0363 137.313 23.8843C137.31 23.7104 137.36 23.5395 137.457 23.3952C137.564 23.2368 137.717 23.1159 137.896 23.0494C138.096 22.9631 138.312 22.92 138.53 22.9229C138.765 22.9172 138.998 22.9603 139.215 23.0494C139.4 23.122 139.557 23.2521 139.662 23.4205C139.772 23.5796 139.834 23.767 139.84 23.9602H139.392C139.388 23.8656 139.365 23.7727 139.325 23.6872C139.284 23.6017 139.227 23.5253 139.155 23.4626C138.978 23.3385 138.763 23.279 138.547 23.2939C138.335 23.2798 138.124 23.3361 137.947 23.4542C137.889 23.4952 137.84 23.5494 137.807 23.6124C137.773 23.6754 137.754 23.7454 137.753 23.8168C137.75 23.8745 137.761 23.9319 137.784 23.9846C137.808 24.0373 137.843 24.0838 137.888 24.1205C138.097 24.2547 138.334 24.3411 138.581 24.3735C138.842 24.4272 139.099 24.5005 139.35 24.5927C139.528 24.6682 139.683 24.7907 139.798 24.947C139.895 25.0913 139.945 25.2622 139.941 25.4361C139.943 25.6227 139.887 25.8052 139.781 25.959C139.674 26.1319 139.514 26.2652 139.324 26.3385C139.115 26.4325 138.887 26.4786 138.657 26.4735C138.388 26.4827 138.121 26.4368 137.871 26.3385C137.664 26.2545 137.488 26.1105 137.364 25.9253C137.246 25.7382 137.182 25.5223 137.178 25.3012Z" fill="black"/>
<path d="M137.178 25.3012H137.609C137.624 25.4508 137.674 25.5949 137.753 25.7229C137.839 25.8449 137.96 25.9388 138.099 25.9927C138.269 26.0693 138.454 26.1068 138.64 26.1024C138.796 26.107 138.952 26.0783 139.096 26.018C139.216 25.9796 139.322 25.9061 139.4 25.8072C139.466 25.7228 139.502 25.6189 139.502 25.512C139.503 25.4074 139.467 25.3057 139.4 25.2253C139.321 25.1259 139.211 25.0549 139.088 25.0229C138.995 25.0229 138.792 24.9301 138.471 24.8542C138.241 24.8074 138.017 24.7338 137.803 24.6349C137.653 24.5629 137.525 24.4523 137.432 24.3144C137.35 24.1863 137.308 24.0363 137.313 23.8843C137.31 23.7104 137.36 23.5395 137.457 23.3952C137.564 23.2368 137.717 23.1159 137.896 23.0494C138.096 22.9631 138.312 22.92 138.53 22.9229C138.765 22.9172 138.998 22.9603 139.215 23.0494C139.4 23.122 139.557 23.2521 139.662 23.4205C139.772 23.5796 139.834 23.767 139.84 23.9602H139.392C139.388 23.8656 139.365 23.7727 139.325 23.6872C139.284 23.6017 139.227 23.5253 139.155 23.4626C138.978 23.3385 138.763 23.279 138.547 23.2939C138.335 23.2798 138.124 23.3361 137.947 23.4542C137.889 23.4952 137.84 23.5494 137.807 23.6124C137.773 23.6754 137.754 23.7454 137.753 23.8168C137.75 23.8745 137.761 23.9319 137.784 23.9846C137.808 24.0373 137.843 24.0838 137.888 24.1205C138.097 24.2547 138.334 24.3411 138.581 24.3735C138.842 24.4272 139.099 24.5005 139.35 24.5927C139.528 24.6682 139.683 24.7907 139.798 24.947C139.895 25.0913 139.945 25.2622 139.941 25.4361C139.943 25.6227 139.887 25.8052 139.781 25.959C139.674 26.1319 139.514 26.2652 139.324 26.3385C139.115 26.4325 138.887 26.4786 138.657 26.4735C138.388 26.4827 138.121 26.4368 137.871 26.3385C137.664 26.2545 137.488 26.1105 137.364 25.9253C137.246 25.7382 137.182 25.5223 137.178 25.3012Z" fill="#0D735A"/>
<path d="M56.9495 24.6771H56.5017V26.3133H56.9495V24.6771Z" fill="black"/>
<path d="M56.9495 24.6771H56.5017V26.3133H56.9495V24.6771Z" fill="#0D735A"/>
<path d="M6.75963 25.7988C6.74269 26.0001 6.79325 26.2013 6.90338 26.3708C7.01351 26.5402 7.17695 26.6683 7.368 26.735V27.0301H0V26.735C0.591468 26.6337 0.768908 26.2121 1.03929 25.7988C1.30968 25.3856 1.60541 24.888 1.95184 24.2133L10.714 4.55423C10.8408 4.29278 10.9506 4.01447 11.0689 3.71086C11.1812 3.3651 11.2354 3.00319 11.2294 2.63977C11.2371 2.46531 11.2096 2.2911 11.1486 2.12742C11.0877 1.96373 10.9945 1.8139 10.8746 1.68676C10.6005 1.41816 10.2721 1.21112 9.91131 1.07953V0.463867H19.9156V1.0964C19.5771 1.22495 19.2713 1.42654 19.0199 1.68676C18.7942 1.91124 18.6614 2.21236 18.6481 2.53013C18.6439 2.87393 18.6836 3.21686 18.7664 3.55061C18.8761 3.92287 19.0263 4.28203 19.2143 4.6217L28.1454 23.7241C28.4359 24.3032 28.7575 24.8663 29.1087 25.4109C29.4382 25.9169 29.7086 26.5325 30.5197 26.6928V27.0386H22.1462V26.7518C22.3858 26.6647 22.5944 26.5093 22.7462 26.3048C22.9405 25.9928 22.7462 25.3771 22.2476 24.2386C21.7491 23.1 14.812 7.48073 14.812 7.48073C14.812 7.48073 6.86103 25.1157 6.75963 25.7988Z" fill="black"/>
<path d="M6.75963 25.7988C6.74269 26.0001 6.79325 26.2013 6.90338 26.3708C7.01351 26.5402 7.17695 26.6683 7.368 26.735V27.0301H0V26.735C0.591468 26.6337 0.768908 26.2121 1.03929 25.7988C1.30968 25.3856 1.60541 24.888 1.95184 24.2133L10.714 4.55423C10.8408 4.29278 10.9506 4.01447 11.0689 3.71086C11.1812 3.3651 11.2354 3.00319 11.2294 2.63977C11.2371 2.46531 11.2096 2.2911 11.1486 2.12742C11.0877 1.96373 10.9945 1.8139 10.8746 1.68676C10.6005 1.41816 10.2721 1.21112 9.91131 1.07953V0.463867H19.9156V1.0964C19.5771 1.22495 19.2713 1.42654 19.0199 1.68676C18.7942 1.91124 18.6614 2.21236 18.6481 2.53013C18.6439 2.87393 18.6836 3.21686 18.7664 3.55061C18.8761 3.92287 19.0263 4.28203 19.2143 4.6217L28.1454 23.7241C28.4359 24.3032 28.7575 24.8663 29.1087 25.4109C29.4382 25.9169 29.7086 26.5325 30.5197 26.6928V27.0386H22.1462V26.7518C22.3858 26.6647 22.5944 26.5093 22.7462 26.3048C22.9405 25.9928 22.7462 25.3771 22.2476 24.2386C21.7491 23.1 14.812 7.48073 14.812 7.48073C14.812 7.48073 6.86103 25.1157 6.75963 25.7988Z" fill="#0D735A"/>
<path d="M8.25549 27.2916H21.3607L14.8123 12.8024L8.25549 27.2916Z" fill="black"/>
<path d="M8.25549 27.2916H21.3607L14.8123 12.8024L8.25549 27.2916Z" fill="#FF0000"/>
<path d="M3.48121 16.3952V4.43612C3.48121 4.31758 3.52839 4.20388 3.61238 4.12006C3.69636 4.03623 3.81027 3.98914 3.92904 3.98914H9.84372L3.92904 16.4879C3.92294 16.5173 3.9111 16.5451 3.89421 16.5699C3.87732 16.5947 3.8557 16.6159 3.8306 16.6324C3.80549 16.6488 3.77738 16.6602 3.74788 16.6658C3.71838 16.6714 3.68806 16.6711 3.65865 16.665C3.62925 16.6589 3.60133 16.6471 3.5765 16.6303C3.55167 16.6134 3.53041 16.5918 3.51393 16.5668C3.48066 16.5162 3.46889 16.4544 3.48121 16.3952Z" fill="black"/>
<path d="M3.48121 16.3952V4.43612C3.48121 4.31758 3.52839 4.20388 3.61238 4.12006C3.69636 4.03623 3.81027 3.98914 3.92904 3.98914H9.84372L3.92904 16.4879C3.92294 16.5173 3.9111 16.5451 3.89421 16.5699C3.87732 16.5947 3.8557 16.6159 3.8306 16.6324C3.80549 16.6488 3.77738 16.6602 3.74788 16.6658C3.71838 16.6714 3.68806 16.6711 3.65865 16.665C3.62925 16.6589 3.60133 16.6471 3.5765 16.6303C3.55167 16.6134 3.53041 16.5918 3.51393 16.5668C3.48066 16.5162 3.46889 16.4544 3.48121 16.3952Z" fill="#0D735A"/>
<path d="M33.9083 0.463867H32.9873V28H33.9083V0.463867Z" fill="black"/>
<path d="M33.9083 0.463867H32.9873V28H33.9083V0.463867Z" fill="#0D735A"/>
</g>
<defs>
<clipPath id="clip0_159_2996">
<rect width="143" height="28" fill="white"/>
</clipPath>
</defs>
</svg>
