<svg width="44" height="43" viewBox="0 0 44 43" fill="none" xmlns="http://www.w3.org/2000/svg">
<path d="M13.1675 19.7086L27.9488 19.7086L22.1259 13.8855L23.3159 12.5419L31.3784 20.6044L23.3159 28.6669L22.1259 27.3231L27.9488 21.5002L13.1675 21.5002L13.1675 19.7086ZM40.0425 20.6044C40.0425 30.0048 32.4221 37.6252 23.0217 37.6252C13.6214 37.6252 6.00088 30.0047 6.00088 20.6044C6.00088 11.2041 13.6214 3.58358 23.0217 3.58358C32.4221 3.58358 40.0425 11.2041 40.0425 20.6044ZM38.2509 20.6044C38.2509 12.1936 31.4325 5.37525 23.0217 5.37525C14.6109 5.37525 7.79255 12.1936 7.79255 20.6044C7.79255 29.0152 14.6109 35.8336 23.0217 35.8336C31.4325 35.8336 38.2509 29.0152 38.2509 20.6044Z" fill="#6A676D"/>
</svg>
