<svg width="24" height="25" viewBox="0 0 24 25" fill="none" xmlns="http://www.w3.org/2000/svg">
<path fill-rule="evenodd" clip-rule="evenodd" d="M4.98301 2.14197H3.9159C3.81437 1.83809 3.58701 1.59686 3.3006 1.48914V0.356994C3.3006 0.159838 3.14995 0 2.96413 0C2.7783 0 2.62765 0.159838 2.62765 0.356994V1.48914C2.34125 1.59691 2.11388 1.83814 2.01235 2.14197H0.945238C0.759415 2.14197 0.608765 2.3018 0.608765 2.49896C0.608765 2.69612 0.759415 2.85596 0.945238 2.85596H2.01235C2.11388 3.15983 2.34125 3.40106 2.62765 3.50878V4.64093C2.62765 4.83808 2.7783 4.99792 2.96413 4.99792C3.14995 4.99792 3.3006 4.83808 3.3006 4.64093V3.50878C3.58701 3.40106 3.81437 3.15983 3.9159 2.85596H4.98301C5.16884 2.85596 5.31949 2.69612 5.31949 2.49896C5.31949 2.3018 5.16884 2.14197 4.98301 2.14197ZM2.96413 2.85596C2.77857 2.85596 2.62765 2.69583 2.62765 2.49896C2.62765 2.30209 2.77857 2.14197 2.96413 2.14197C3.14968 2.14197 3.3006 2.30209 3.3006 2.49896C3.3006 2.69583 3.14968 2.85596 2.96413 2.85596ZM22.7956 24.3726H1.39673C1.07802 24.3726 0.793321 24.1708 0.671383 23.8584C0.549401 23.5461 0.616247 23.1898 0.841549 22.9507L12.5706 10.5064C12.702 10.367 12.915 10.367 13.0464 10.5064C13.1778 10.6458 13.1778 10.8719 13.0464 11.0112L1.31741 23.4555C1.27129 23.5044 1.28237 23.5577 1.2931 23.5852C1.30382 23.6127 1.3315 23.6587 1.39673 23.6587H2.62961V22.9242C2.62961 22.7271 2.78026 22.5673 2.96609 22.5673C3.15191 22.5673 3.30256 22.7271 3.30256 22.9242V23.6587H4.65743V22.9242C4.65743 22.7271 4.80808 22.5673 4.9939 22.5673C5.17972 22.5673 5.33037 22.7271 5.33037 22.9242V23.6587H6.68524V22.9242C6.68524 22.7271 6.83589 22.5673 7.02171 22.5673C7.20754 22.5673 7.35819 22.7271 7.35819 22.9242V23.6587H8.71305V22.9242C8.71305 22.7271 8.8637 22.5673 9.04953 22.5673C9.23535 22.5673 9.386 22.7271 9.386 22.9242V23.6587H10.7409V22.9242C10.7409 22.7271 10.8915 22.5673 11.0773 22.5673C11.2632 22.5673 11.4138 22.7271 11.4138 22.9242V23.6587H12.7687V22.9242C12.7687 22.7271 12.9193 22.5673 13.1052 22.5673C13.291 22.5673 13.4416 22.7271 13.4416 22.9242V23.6587H14.7965V22.9242C14.7965 22.7271 14.9471 22.5673 15.133 22.5673C15.3188 22.5673 15.4694 22.7271 15.4694 22.9242V23.6587H16.8243V22.9242C16.8243 22.7271 16.975 22.5673 17.1608 22.5673C17.3466 22.5673 17.4972 22.7271 17.4972 22.9242V23.6587H18.8521V22.9242C18.8521 22.7271 19.0028 22.5673 19.1886 22.5673C19.3744 22.5673 19.5251 22.7271 19.5251 22.9242V23.6587H20.8799V22.9242C20.8799 22.7271 21.0306 22.5673 21.2164 22.5673C21.4022 22.5673 21.5529 22.7271 21.5529 22.9242V23.6587H22.7956C22.8574 23.6587 22.9077 23.6052 22.9077 23.5397V0.835861C22.9077 0.766652 22.8644 0.737283 22.8385 0.725907C22.8126 0.714531 22.7624 0.702821 22.7163 0.751706L14.0334 9.96405C13.902 10.1035 13.689 10.1035 13.5576 9.96405C13.4262 9.82463 13.4262 9.59858 13.5576 9.45921L22.2404 0.246822C22.4658 0.00773104 22.8016 -0.0630965 23.096 0.0662304C23.3904 0.195605 23.5807 0.497669 23.5807 0.835813V23.5397C23.5807 23.999 23.2285 24.3726 22.7956 24.3726ZM18.7557 20.0866H14.4488C14.263 20.0866 14.1123 19.9268 14.1123 19.7296C14.1123 19.5324 14.263 19.3726 14.4488 19.3726H18.7557C18.8175 19.3726 18.8678 19.3192 18.8678 19.2536V10.889L10.8715 19.3726H13.1029C13.2887 19.3726 13.4394 19.5324 13.4394 19.7296C13.4394 19.9268 13.2887 20.0866 13.1029 20.0866H10.8715C10.5984 20.0866 10.3544 19.9136 10.2498 19.6458C10.1453 19.3781 10.2025 19.0726 10.3957 18.8677L18.392 10.3838C18.5851 10.1788 18.8729 10.1181 19.1253 10.229C19.3777 10.3399 19.5408 10.5989 19.5408 10.8886V19.2536C19.5408 19.7129 19.1885 20.0866 18.7557 20.0866ZM2.62745 18.9207C2.62745 19.1179 2.7781 19.2777 2.96392 19.2777C3.14975 19.2777 3.3004 19.1179 3.3004 18.9207V17.4927C3.3004 17.2955 3.14975 17.1357 2.96392 17.1357C2.7781 17.1357 2.62745 17.2955 2.62745 17.4927V18.9207ZM2.96392 16.4217C2.7781 16.4217 2.62745 16.2619 2.62745 16.0647V14.6367C2.62745 14.4396 2.7781 14.2797 2.96392 14.2797C3.14975 14.2797 3.3004 14.4396 3.3004 14.6367V16.0647C3.3004 16.2619 3.14975 16.4217 2.96392 16.4217ZM2.62745 13.2088C2.62745 13.4059 2.7781 13.5658 2.96392 13.5658C3.14975 13.5658 3.3004 13.406 3.3004 13.2088V11.7808C3.3004 11.5836 3.14975 11.4238 2.96392 11.4238C2.7781 11.4238 2.62745 11.5836 2.62745 11.7808V13.2088ZM2.96392 10.7098C2.7781 10.7098 2.62745 10.55 2.62745 10.3528V8.9248C2.62745 8.72765 2.7781 8.56781 2.96392 8.56781C3.14975 8.56781 3.3004 8.72765 3.3004 8.9248V10.3528C3.3004 10.55 3.14975 10.7098 2.96392 10.7098ZM2.62745 7.49687C2.62745 7.69403 2.7781 7.85387 2.96392 7.85387C3.14975 7.85387 3.3004 7.69408 3.3004 7.49687V6.06885C3.3004 5.87169 3.14975 5.71185 2.96392 5.71185C2.7781 5.71185 2.62745 5.87169 2.62745 6.06885V7.49687ZM17.0957 2.8559H18.4417C18.6275 2.8559 18.7781 2.69606 18.7781 2.4989C18.7781 2.30175 18.6275 2.14191 18.4417 2.14191H17.0957C16.9099 2.14191 16.7593 2.30175 16.7593 2.4989C16.7593 2.69606 16.9099 2.8559 17.0957 2.8559ZM15.7501 2.8559H14.4041C14.2183 2.8559 14.0677 2.69606 14.0677 2.4989C14.0677 2.30175 14.2183 2.14191 14.4041 2.14191H15.7501C15.9359 2.14191 16.0865 2.30175 16.0865 2.4989C16.0865 2.69606 15.9359 2.8559 15.7501 2.8559ZM11.7126 2.8559H13.0585C13.2443 2.8559 13.395 2.69606 13.395 2.4989C13.395 2.30175 13.2443 2.14191 13.0585 2.14191H11.7126C11.5267 2.14191 11.3761 2.30175 11.3761 2.4989C11.3761 2.69606 11.5267 2.8559 11.7126 2.8559ZM10.3669 2.8559H9.021C8.83517 2.8559 8.68452 2.69606 8.68452 2.4989C8.68452 2.30175 8.83517 2.14191 9.021 2.14191H10.3669C10.5528 2.14191 10.7034 2.30175 10.7034 2.4989C10.7034 2.69606 10.5528 2.8559 10.3669 2.8559ZM6.32837 2.8559H7.67431C7.86013 2.8559 8.01078 2.69606 8.01078 2.4989C8.01078 2.30175 7.86013 2.14191 7.67431 2.14191H6.32837C6.14254 2.14191 5.99189 2.30175 5.99189 2.4989C5.99189 2.69606 6.14254 2.8559 6.32837 2.8559Z" fill="#6A676D"/>
</svg>
